<svg width="629" height="161" viewBox="0 0 629 161" fill="none" xmlns="http://www.w3.org/2000/svg">
<path d="M356.065 69.5418V48.831C356.065 16.9098 336.114 1.13916 301.913 1.13916C265.621 1.13916 247.761 16.9098 247.761 48.831V62.5115C247.761 95.0027 264.481 111.343 297.353 111.343C313.883 111.343 324.904 106.403 331.364 96.7128V105.263C331.364 138.324 301.153 140.794 282.342 137.564C279.112 136.994 277.212 136.424 275.692 137.184C271.132 140.984 277.402 158.085 287.472 160.365C294.122 160.555 300.773 160.365 307.423 159.795C336.494 155.235 355.875 140.414 355.875 105.833V69.5418M331.174 57.3813V63.6515C331.174 82.2722 324.144 90.4425 301.723 90.4425C279.302 90.4425 272.652 82.2722 272.652 63.2715V49.401C272.652 30.4003 278.732 22.61 301.723 22.61C324.714 22.61 331.174 30.5903 331.174 49.211V57.3813Z" fill="white"/>
<path d="M170.998 0C165.297 0 159.787 0.190007 154.087 0.950036C144.397 2.28009 136.796 20.3308 141.166 23.5609C142.497 24.5109 144.587 24.3209 147.627 23.5609C155.797 22.0408 164.157 21.2808 172.518 21.2808C189.428 21.2808 200.449 24.7009 200.449 39.9015V51.872H174.228C144.587 51.872 125.776 61.3723 125.776 88.7334C125.776 114.574 143.067 126.355 173.848 126.355C208.999 126.355 224.39 114.194 224.39 87.2133V40.0915C224.58 9.31035 202.919 0 170.998 0ZM200.449 86.0732C200.449 102.604 189.048 105.074 173.658 105.074C161.497 105.074 150.477 102.604 150.477 88.1633C150.477 75.6228 158.267 70.8727 174.418 70.8727H200.449V86.0732Z" fill="white"/>
<path d="M450.878 124.644C446.698 125.024 442.518 125.214 437.958 125.214C396.916 125.214 377.916 110.204 377.916 73.9125V53.0117C377.916 18.2404 395.966 0.949707 432.068 0.949707C465.889 0.949707 483.75 18.0504 483.75 50.5416C483.75 54.3417 483.56 57.5718 483.179 61.182C482.229 70.1123 479.759 72.3924 470.829 72.3924H402.996V77.7126C402.996 95.1933 413.257 102.224 437.768 102.224C441.758 102.224 445.748 102.034 449.928 101.654C457.149 101.083 464.369 100.133 471.399 98.4234C473.489 97.6634 475.769 97.4734 477.859 98.0434C482.039 101.844 475.959 120.464 466.459 122.364C461.329 123.884 456.198 124.644 450.878 124.644ZM403.186 52.2516H460.189V46.1714C460.189 30.4008 450.688 22.4205 431.498 22.4205C412.307 22.4205 403.186 30.4008 403.186 46.1714V52.2516Z" fill="white"/>
<path d="M505.79 33.6311C505.79 52.2518 514.911 59.6621 529.541 66.1223L555.382 77.5227C567.163 82.8429 570.583 85.693 570.583 91.7733C570.583 99.7536 564.123 102.034 548.162 102.034H541.132C530.111 101.464 519.091 99.1836 508.64 95.3834C507.5 95.0034 506.36 95.1934 505.41 95.7634C501.23 99.7536 507.31 119.894 516.621 121.794C516.621 121.794 522.701 122.934 527.071 123.314C527.071 123.314 544.172 124.264 546.072 124.264C580.083 124.264 594.334 113.814 594.334 90.6332C594.334 71.4425 584.833 63.6522 568.683 57.002L540.942 45.0315C532.771 41.2314 529.731 38.5713 529.731 32.871C529.731 25.8408 534.671 23.1807 550.822 23.1807C559.182 22.9907 567.543 24.1307 575.713 26.2208C577.423 26.7908 584.263 29.6409 586.543 28.1209C590.724 24.3207 585.403 5.51001 576.093 3.03992C567.923 1.32985 559.562 0.569824 551.392 0.569824C519.281 0.569824 505.79 11.0202 505.79 33.0611" fill="white"/>
<path d="M51.6731 125.024H40.2727C38.5626 125.024 36.8526 124.074 35.9025 122.554C34.9525 121.034 34.7625 119.134 35.7125 117.614L63.8336 62.5121L35.7125 8.55004C34.7625 7.02998 34.7625 5.12991 35.7125 3.60985C36.6626 2.08979 38.1826 1.13976 40.0827 1.13976H51.6731C61.7435 0.569735 71.4339 5.88994 76.1841 15.0103L103.165 61.182C103.545 61.9421 103.545 62.8921 103.165 63.6521L76.5641 110.014C71.8139 119.514 62.1235 125.214 51.6731 125.024ZM40.0827 6.07995L68.7738 61.372C69.1538 62.1321 69.1538 62.8921 68.7738 63.6521L40.0827 120.084H51.6731C60.9835 120.084 67.0637 116.284 72.3839 107.544L98.4149 62.5121L71.8139 17.4804C67.8237 10.0701 60.0334 5.69993 51.6731 6.26995L40.0827 6.07995Z" fill="white"/>
</svg>
