<svg width="629" height="160" viewBox="0 0 629 160" fill="none" xmlns="http://www.w3.org/2000/svg">
<path d="M150.527 25.1298V60.9796H166.008C169.471 60.9796 172.119 60.1648 173.748 58.5353C175.378 56.9058 176.396 53.443 177.007 48.5544H179.248V79.3119H177.007C177.007 75.8491 176.6 73.2011 175.785 71.5716C174.97 69.942 173.952 68.7199 172.322 67.9051C170.897 67.0904 168.656 66.683 166.008 66.683H150.527V95.1999C150.527 99.8848 150.731 102.94 151.342 104.366C151.75 105.384 152.564 106.403 153.99 107.218C155.823 108.236 157.657 108.847 159.693 108.847H162.749V111.292H126.492V108.847H129.547C133.01 108.847 135.658 107.829 137.084 105.588C138.102 104.162 138.51 100.7 138.51 95.1999V36.3329C138.51 31.648 138.306 28.5926 137.695 27.1667C137.287 26.1483 136.473 25.1298 135.25 24.315C133.417 23.2966 131.584 22.6855 129.547 22.6855H126.492V20.2412H190.451L191.266 40.203H189.025C188.007 35.9255 186.785 32.8701 185.155 30.8332C183.729 28.7963 181.896 27.3704 179.859 26.5557C177.822 25.7409 174.563 25.1298 170.082 25.1298H150.527Z" fill="white"/>
<path d="M227.524 80.7375H194.73L189.026 95.1997C187.601 98.6624 186.989 101.31 186.989 103.144C186.989 104.569 187.601 105.792 188.823 106.81C190.045 107.829 192.693 108.643 196.767 108.847V111.291H170.083V108.847C173.546 108.236 175.99 107.217 177.009 106.199C179.045 103.958 181.49 99.6809 184.138 93.1627L213.877 18.2041H216.117L245.245 93.7738C247.69 99.8846 249.727 103.755 251.763 105.588C253.8 107.421 256.448 108.44 259.911 108.643V111.088H226.506V108.643C229.968 108.44 232.209 107.829 233.431 106.81C234.653 105.792 235.264 104.569 235.264 103.144C235.264 101.107 234.45 98.0513 232.82 93.7738L227.524 80.7375ZM225.691 75.8489L211.432 38.9807L196.767 75.8489H225.691Z" fill="white"/>
<path d="M258.282 111.291V108.847H261.541C265.207 108.847 267.652 107.625 269.077 105.181C269.892 103.755 270.503 100.292 270.503 95.1998V36.3329C270.503 30.6295 269.892 27.1667 268.67 25.7409C267.041 23.704 264.596 22.6855 261.337 22.6855H258.078V20.2412H292.502C305.131 20.2412 314.704 21.8707 321.426 24.9261C327.944 27.9815 333.24 33.0738 337.314 40.4067C341.388 47.5359 343.425 55.8873 343.425 65.4608C343.425 78.0897 339.759 88.6817 332.629 97.2368C324.685 106.81 312.464 111.495 295.965 111.495H258.282V111.291ZM282.521 104.57C287.817 105.792 292.298 106.403 295.761 106.403C305.335 106.403 313.482 102.736 319.797 95.4035C326.111 88.0706 329.37 78.2934 329.37 65.6645C329.37 53.0356 326.111 43.2584 319.797 35.9255C313.482 28.5926 305.335 25.1298 295.354 25.1298C291.687 25.1298 287.41 25.7409 282.521 27.1667V104.57Z" fill="white"/>
<path d="M367.664 25.1298V60.7759H386.2C391.089 60.7759 394.144 59.9611 395.774 58.3316C398.014 56.2947 399.236 52.8319 399.44 47.7396H401.681V79.5156H399.44C398.829 75.0343 398.218 72.7937 397.607 71.3679C396.792 69.7384 395.57 68.5162 393.94 67.7014C392.311 66.8867 389.663 66.2756 385.996 66.2756H367.461V95.8109C367.461 99.8848 367.664 102.329 367.868 103.144C368.275 103.959 368.683 104.773 369.701 105.181C370.516 105.792 372.145 105.996 374.386 105.996H388.644C393.533 105.996 396.996 105.588 399.033 104.977C401.273 104.162 403.31 102.94 405.347 100.7C407.995 97.8478 410.643 93.774 413.291 88.0706H415.735L408.403 110.884H343.221V108.44H346.277C348.313 108.44 350.147 107.829 351.98 106.81C353.406 105.996 354.221 104.977 354.628 103.551C355.035 102.125 355.443 99.2737 355.443 94.7925V35.7218C355.443 30.0184 354.832 26.352 353.813 25.1298C352.387 23.2966 349.739 22.4818 346.277 22.4818H343.221V20.2412H408.403L409.421 40.203H406.977C406.162 35.3144 405.144 32.0553 404.125 30.4258C403.107 28.5926 401.477 27.3704 399.44 26.352C398.014 25.5372 395.163 25.1298 390.885 25.1298H367.664Z" fill="white"/>
<path d="M500.064 111.292H477.454L448.937 68.7199C446.9 68.7199 445.067 68.9236 443.845 68.9236C443.234 68.9236 442.827 68.9236 442.012 68.9236C441.401 68.9236 440.79 68.9236 440.179 68.7199V95.1999C440.179 100.903 440.79 104.57 442.012 105.792C443.641 107.829 445.882 108.847 449.141 108.847H452.4V111.292H416.143V108.847H419.402C423.068 108.847 425.513 107.625 427.142 105.181C427.957 103.755 428.364 100.496 428.364 95.4035V36.3329C428.364 30.6295 427.753 26.963 426.531 25.7409C424.902 23.704 422.457 22.6855 419.198 22.6855H415.939V20.2412H446.697C455.659 20.2412 462.381 20.8523 466.658 22.2781C470.936 23.704 474.602 26.352 477.454 30.0184C480.51 33.8886 481.935 38.3698 481.935 43.4621C481.935 48.9618 480.306 53.8504 476.843 58.1279C473.38 62.2018 468.288 65.2571 461.159 66.8867L478.676 92.9592C482.75 98.8663 486.009 102.94 489.065 104.977C491.916 107.014 495.583 108.236 500.268 108.644V111.292H500.064ZM439.975 64.4424C440.79 64.4424 441.401 64.4424 442.012 64.4424C442.623 64.4424 443.03 64.4424 443.438 64.4424C451.585 64.4424 457.492 62.6091 461.77 58.739C465.844 55.0725 467.881 50.1839 467.881 44.2769C467.881 38.5735 466.251 33.8886 462.992 30.4258C459.733 26.963 455.252 25.1298 449.956 25.1298C447.511 25.1298 444.252 25.5372 440.179 26.352V64.4424H439.975Z" fill="white"/>
<path d="M559.542 18.2037L561.783 46.9243H559.542C557.302 39.795 554.45 34.2954 550.987 30.8326C545.895 25.5366 539.581 22.8886 531.637 22.8886C520.841 22.8886 512.693 27.5735 506.99 36.7397C502.305 44.48 499.861 53.6461 499.861 64.4418C499.861 73.2005 501.49 81.1445 504.546 88.2737C507.601 95.4029 511.675 100.699 516.767 103.958C521.859 107.217 526.952 109.05 532.248 109.05C535.303 109.05 538.358 108.643 541.21 107.828C544.062 107.013 546.913 105.791 549.561 104.162V77.478C549.561 72.9968 549.154 69.3304 548.543 67.9045C547.932 66.4787 546.913 65.4602 545.488 64.6455C544.062 63.8307 541.821 63.627 538.358 63.627V60.979H571.153V63.627H569.523C566.264 63.627 564.024 64.8491 562.801 67.0898C561.987 68.7193 561.579 72.5894 561.579 77.478V105.384C556.894 108.236 552.006 110.272 547.525 111.495C542.84 112.717 537.747 113.532 532.044 113.532C515.749 113.532 503.323 107.828 494.768 96.6251C488.454 88.07 485.195 78.4965 485.195 67.2934C485.195 59.3495 487.028 51.6092 490.491 44.2763C494.768 35.5175 500.472 28.7957 508.008 24.1108C514.119 20.2406 521.452 18.2037 530.007 18.2037C533.062 18.2037 535.914 18.4074 538.358 19.0185C540.803 19.6295 544.469 20.648 549.154 22.4812C551.395 23.4997 553.024 23.9071 553.839 23.9071C554.654 23.9071 555.265 23.4997 555.876 22.6849C556.487 21.8701 556.691 20.4443 556.894 18H559.542V18.2037Z" fill="white"/>
<path d="M623.908 18.2041V49.5727H621.667C620.852 43.4619 619.63 38.777 617.593 35.1105C615.76 31.4441 612.908 28.5924 609.242 26.5555C605.575 24.5186 601.909 23.5001 598.039 23.5001C593.761 23.5001 590.095 24.9259 587.243 27.7776C584.391 30.6293 582.966 33.8884 582.966 37.5548C582.966 40.4065 583.78 42.8508 585.614 45.0914C588.262 48.3505 594.372 52.8317 603.946 58.5351C611.89 63.0163 617.186 66.6828 620.038 69.1271C622.889 71.5714 625.13 74.4231 626.759 77.6821C628.389 80.9412 629 84.404 629 88.0704C629 94.996 626.556 100.903 621.463 105.995C616.575 111.088 610.057 113.532 602.316 113.532C599.872 113.532 597.631 113.328 595.391 112.921C594.169 112.717 591.521 111.902 587.447 110.477C583.373 109.051 580.725 108.44 579.707 108.44C578.688 108.44 577.873 108.847 577.262 109.458C576.651 110.069 576.244 111.495 575.836 113.532H573.596V82.1634H575.836C576.855 88.6815 578.281 93.5701 580.114 96.8292C581.947 100.088 584.799 102.736 588.465 104.977C592.132 107.217 596.409 108.236 600.891 108.236C606.187 108.236 610.26 106.81 613.112 103.755C616.167 100.699 617.593 97.2366 617.593 93.3664C617.593 91.1258 616.982 88.8852 615.964 86.6446C614.742 84.404 613.112 82.1634 610.668 80.3301C609.038 78.9043 604.557 76.0526 597.428 71.7751C590.299 67.4975 585.003 64.0348 581.947 61.3868C578.892 58.7388 576.651 55.8871 575.022 52.8317C573.392 49.7764 572.577 46.3136 572.577 42.4434C572.577 35.9253 574.818 30.2219 579.503 25.537C584.188 20.8521 590.095 18.4078 597.224 18.4078C601.705 18.4078 606.39 19.6299 611.483 21.8706C613.723 22.889 615.556 23.5001 616.371 23.5001C617.39 23.5001 618.408 23.0927 619.019 22.4816C619.63 21.8706 620.241 20.4447 620.649 18.2041H623.908Z" fill="white"/>
<path d="M3.05566 72.3863L56.2193 20.2412H23.0175L3.05566 72.3863Z" fill="white"/>
<path d="M102.049 93.1626L14.4614 101.921C14.6651 102.125 14.6651 102.329 14.8688 102.532L83.7167 120.254C90.4385 113.328 96.9567 104.366 102.049 93.1626Z" fill="white"/>
<path d="M8.14852 88.8854L111.013 60.3685C112.439 48.9618 112.235 35.9255 109.791 21.4634L7.94482 88.0706C7.94482 88.2743 7.94482 88.6817 8.14852 88.8854Z" fill="white"/>
<path d="M4.88916 79.7193C4.88916 79.9229 4.88916 79.9229 5.09285 80.1266L109.383 20.2412H58.4601L4.88916 79.7193Z" fill="white"/>
<path d="M11.2031 95.81C11.2031 95.81 11.2031 96.0137 11.4068 96.0137L102.457 92.3472C106.327 83.5885 109.383 73.4039 110.808 61.7935L11.2031 95.81Z" fill="white"/>
<path d="M18.7402 108.643C35.0356 132.271 56.0159 141.641 56.0159 141.641C56.0159 141.641 69.4595 135.734 83.1069 121.272L18.7402 108.643Z" fill="white"/>
<path d="M22.4071 20.2412H2.24157C-0.610119 37.555 -0.406426 52.6282 1.63049 65.6645L22.4071 20.2412Z" fill="white"/>
<path d="M138.103 136.549C137.9 138.178 137.085 139.401 136.066 140.215C135.048 141.03 133.826 141.437 132.196 141.437C130.567 141.437 129.141 140.826 127.919 139.604C127.104 138.789 126.696 137.975 126.493 136.956C126.289 136.345 126.289 135.123 126.289 133.29C126.289 131.457 126.289 130.438 126.493 129.623C126.696 128.605 127.104 127.586 127.919 126.975C129.141 125.753 130.567 125.142 132.196 125.142C133.826 125.142 135.048 125.549 136.066 126.364C137.085 127.179 137.696 128.401 138.103 130.031H135.048C134.64 128.605 133.826 127.79 132.4 127.79C131.381 127.79 130.77 128.197 130.159 128.809C129.752 129.42 129.548 130.845 129.548 133.086C129.548 134.308 129.548 135.123 129.548 135.327C129.752 136.345 129.956 136.956 130.363 137.567C130.77 138.178 131.585 138.382 132.4 138.382C133.826 138.382 134.64 137.567 135.048 136.141H138.103V136.549Z" fill="white"/>
<path d="M164.584 141.437H154.195V125.549H164.584V128.197H157.251V132.067H163.565V134.715H157.251V138.586H164.584V141.437Z" fill="white"/>
<path d="M193.305 141.437H190.453L184.138 131.66V141.437H181.083V125.549H183.731L190.045 135.327V125.549H193.305V141.437Z" fill="white"/>
<path d="M220.599 128.197H216.322V141.437H213.266V128.197H209.192V125.549H220.599V128.197Z" fill="white"/>
<path d="M248.301 141.437H244.634L241.579 135.123H239.338V141.437H236.283V125.549H242.597C244.227 125.549 245.449 125.957 246.467 126.975C247.282 127.79 247.893 129.012 247.893 130.438C247.893 131.456 247.689 132.475 247.078 133.086C246.467 133.697 245.856 134.308 245.041 134.512L248.301 141.437ZM244.634 130.438C244.634 129.827 244.43 129.216 244.023 129.012C243.616 128.605 243.005 128.401 242.393 128.401H239.542V132.475H242.393C243.005 132.475 243.616 132.271 244.023 131.864C244.43 131.456 244.634 131.049 244.634 130.438Z" fill="white"/>
<path d="M275.595 133.494C275.595 135.123 275.595 136.346 275.392 137.16C275.188 138.179 274.781 139.197 273.966 139.808C272.744 141.03 271.318 141.642 269.688 141.642C268.059 141.642 266.633 141.03 265.411 139.808C264.8 138.994 264.189 138.179 263.985 137.16C263.781 136.549 263.781 135.327 263.781 133.494C263.781 131.661 263.781 130.642 263.985 129.827C264.189 128.809 264.596 127.79 265.411 127.179C266.633 125.957 268.059 125.346 269.688 125.346C271.318 125.346 272.744 125.957 273.966 127.179C274.781 127.994 275.188 128.809 275.392 129.827C275.392 130.438 275.595 131.661 275.595 133.494ZM272.336 133.494C272.336 132.272 272.336 131.457 272.336 131.253C272.336 130.235 271.929 129.624 271.522 129.013C271.114 128.402 270.299 128.198 269.485 128.198C268.67 128.198 268.059 128.402 267.448 129.013C267.04 129.42 266.837 130.235 266.633 131.253C266.633 131.457 266.633 132.272 266.633 133.494C266.633 134.716 266.633 135.531 266.633 135.734C266.633 136.753 267.04 137.364 267.448 137.771C267.855 138.382 268.67 138.586 269.485 138.586C270.503 138.586 271.114 138.179 271.725 137.568C272.133 137.16 272.336 135.734 272.336 133.494Z" fill="white"/>
<path d="M628.52 133.494C628.52 135.123 628.52 136.346 628.316 137.16C628.113 138.179 627.705 139.197 626.89 139.808C625.668 141.03 624.242 141.642 622.613 141.642C620.983 141.642 619.557 141.03 618.335 139.808C617.724 138.994 617.113 138.179 616.909 137.16C616.706 136.549 616.706 135.327 616.706 133.494C616.706 131.661 616.706 130.642 616.909 129.827C617.113 128.809 617.521 127.79 618.335 127.179C619.557 125.957 620.983 125.346 622.613 125.346C624.242 125.346 625.668 125.957 626.89 127.179C627.705 127.994 628.113 128.809 628.316 129.827C628.316 130.438 628.52 131.661 628.52 133.494ZM625.261 133.494C625.261 132.272 625.261 131.457 625.261 131.253C625.261 130.235 624.853 129.624 624.446 129.013C624.039 128.402 623.224 128.198 622.409 128.198C621.594 128.198 620.983 128.402 620.372 129.013C619.965 129.42 619.761 130.235 619.557 131.253C619.557 131.457 619.557 132.272 619.557 133.494C619.557 134.716 619.557 135.531 619.557 135.734C619.557 136.753 619.965 137.364 620.372 137.771C620.78 138.382 621.594 138.586 622.409 138.586C623.428 138.586 624.039 138.179 624.65 137.568C625.057 137.16 625.261 135.734 625.261 133.494Z" fill="white"/>
<path d="M322.037 135.938C322.037 137.567 321.426 138.993 320.407 140.011C319.389 141.03 317.963 141.641 316.333 141.641C314.704 141.641 313.278 141.03 312.259 140.011C311.241 138.993 310.63 137.567 310.63 135.938V125.549H313.685V135.938C313.685 136.752 313.889 137.567 314.5 138.178C314.907 138.789 315.722 138.993 316.537 138.993C317.352 138.993 317.963 138.789 318.574 138.178C318.981 137.567 319.389 136.956 319.389 135.938V125.549H322.444V135.938H322.037Z" fill="white"/>
<path d="M350.962 141.437H348.314L342 131.66V141.437H338.944V125.549H341.592L347.907 135.327V125.549H350.962V141.437Z" fill="white"/>
<path d="M371.127 125.549H368.072V141.437H371.127V125.549Z" fill="white"/>
<path d="M399.236 125.549L394.144 141.437H391.7L386.404 125.549H389.663L392.922 135.938L395.977 125.549H399.236Z" fill="white"/>
<path d="M425.105 141.437H414.513V125.549H425.105V128.197H417.772V132.067H423.883V134.715H417.772V138.586H425.105V141.437Z" fill="white"/>
<path d="M453.418 141.437H449.752L446.697 135.123H444.456V141.437H441.401V125.549H447.715C449.345 125.549 450.567 125.957 451.585 126.975C452.4 127.79 453.011 129.012 453.011 130.438C453.011 131.456 452.807 132.475 452.196 133.086C451.585 133.697 450.974 134.308 450.159 134.512L453.418 141.437ZM449.752 130.438C449.752 129.827 449.548 129.216 449.141 129.012C448.734 128.605 448.122 128.401 447.511 128.401H444.66V132.475H447.511C448.122 132.475 448.734 132.271 449.141 131.864C449.548 131.456 449.752 131.049 449.752 130.438Z" fill="white"/>
<path d="M479.694 136.752C479.694 138.178 479.083 139.4 478.065 140.215C477.046 141.03 475.62 141.437 473.787 141.437C471.343 141.437 469.306 140.826 468.084 139.4L470.121 137.363C470.935 138.178 472.361 138.789 473.991 138.789C475.824 138.789 476.842 138.178 476.842 136.752C476.842 136.141 476.639 135.734 476.435 135.53C476.028 135.327 475.62 135.123 475.009 134.919L473.176 134.715C470.324 134.308 468.899 132.882 468.899 130.234C468.899 128.808 469.306 127.586 470.324 126.771C471.343 125.957 472.769 125.549 474.398 125.549C476.639 125.549 478.268 126.16 479.49 127.383L477.454 129.419C476.639 128.605 475.62 128.401 474.194 128.401C473.38 128.401 472.769 128.605 472.361 129.012C471.954 129.419 471.75 129.827 471.75 130.438C471.75 130.845 471.954 131.253 472.158 131.66C472.565 132.067 472.972 132.271 473.583 132.271L475.417 132.475C476.843 132.679 477.861 133.086 478.472 133.697C479.287 134.104 479.694 135.327 479.694 136.752Z" fill="white"/>
<path d="M499.045 125.549H495.99V141.437H499.045V125.549Z" fill="white"/>
<path d="M600.77 125.549H597.715V141.437H600.77V125.549Z" fill="white"/>
<path d="M526.34 128.197H522.266V141.437H519.007V128.197H514.933V125.549H526.34V128.197Z" fill="white"/>
<path d="M554.449 141.438H551.19L550.172 138.586H544.672L543.654 141.438H540.395L546.098 125.55H548.542L554.449 141.438ZM549.561 135.938L547.524 130.235L545.487 135.938H549.561ZM550.783 120.254L548.339 124.124H546.302L547.727 120.254H550.783Z" fill="white"/>
<path d="M581.744 141.437H578.077L575.226 135.123H572.985V141.437H569.93V125.549H576.244C577.874 125.549 579.096 125.957 580.114 126.975C580.929 127.79 581.54 129.012 581.54 130.438C581.54 131.456 581.336 132.475 580.725 133.086C580.114 133.697 579.503 134.308 578.688 134.512L581.744 141.437ZM578.077 130.438C578.077 129.827 577.874 129.216 577.466 129.012C577.059 128.605 576.448 128.401 575.837 128.401H572.985V132.475H575.837C576.448 132.475 577.059 132.271 577.466 131.864C577.874 131.456 578.077 131.049 578.077 130.438Z" fill="white"/>
</svg>
