<svg width="629" height="161" viewBox="0 0 629 161" fill="none" xmlns="http://www.w3.org/2000/svg">
<path fill-rule="evenodd" clip-rule="evenodd" d="M263.291 97.2397C263.291 106.174 258.409 111.992 249.682 111.992C241.059 111.992 235.865 107.525 235.865 98.5902C235.865 93.2919 239.812 87.3703 249.474 87.3703H263.291V97.2397ZM237.215 57.762C238.878 52.2559 243.033 48.7237 248.851 48.3082C256.746 47.8926 263.291 54.4376 263.291 62.3331V72.722H249.474C231.709 72.722 219.866 82.4875 219.866 98.9019C219.866 116.043 232.125 127.263 249.682 127.056C267.551 127.056 279.186 114.693 279.29 97.0319V63.5798C279.29 45.2954 267.343 33.1404 249.786 33.1404C244.28 33.0365 238.774 34.491 233.995 37.296C226.203 41.971 221.216 50.3859 220.385 61.0865C220.385 61.6059 220.281 62.1253 220.281 62.6448C220.281 63.4759 220.281 64.6187 220.281 65.4498C220.281 65.9692 220.697 66.2809 221.113 66.2809H235.553C236.073 66.2809 236.384 65.8653 236.384 65.4498V62.6448C236.592 61.0865 236.8 59.4242 237.215 57.762ZM347.96 63.0603C347.96 54.1259 352.843 48.3082 361.57 48.3082C370.193 48.3082 375.387 52.7754 375.387 61.7098C375.387 67.0081 371.439 72.9297 361.778 72.9297H347.96V63.0603ZM374.036 102.538C372.374 108.044 368.219 111.576 362.401 111.992C354.505 112.407 347.96 105.862 347.96 97.9669V87.578H361.778C379.543 87.578 391.386 77.8125 391.386 61.3981C391.386 44.2565 379.127 33.0365 361.57 33.2443C343.701 33.2443 332.066 45.6071 331.962 63.2681V96.7202C331.962 115.005 343.909 127.16 361.466 127.16C366.972 127.263 372.478 125.809 377.257 123.004C385.049 118.329 390.035 109.914 390.866 99.2135C390.866 98.6941 390.97 98.1747 390.97 97.6552C390.97 96.8241 390.97 95.6813 390.97 94.8502C390.97 94.3308 390.555 94.0191 390.139 94.0191H375.699C375.179 94.0191 374.868 94.4347 374.868 94.8502V97.6552C374.764 99.2135 374.452 100.98 374.036 102.538ZM467.224 62.8526C467.121 59.2165 466.601 55.5804 465.562 52.152C465.562 52.0482 465.458 51.9443 465.458 51.8404C461.926 42.1787 453.407 35.426 443.018 33.556H442.915C441.148 33.2443 439.382 33.1404 437.616 33.1404C436.058 33.1404 434.604 33.2443 433.045 33.4521C429.825 33.9715 426.708 34.9065 423.799 36.2571V1.45444C423.799 0.72722 423.176 0.103888 422.449 0.103888H409.047C408.32 0.103888 407.696 0.72722 407.696 1.45444V125.809C407.696 126.536 408.32 127.16 409.047 127.16H422.449C423.176 127.16 423.799 126.536 423.799 125.809V63.1642C423.799 54.022 429.513 48.2043 437.616 48.2043C446.239 48.2043 451.226 54.022 451.226 63.1642V125.705C451.226 126.432 451.849 127.056 452.576 127.056H465.978C466.705 127.056 467.328 126.432 467.328 125.705V63.6837C467.328 63.4759 467.328 63.1642 467.224 62.8526ZM209.996 0C187.972 0 170.103 17.7649 169.999 39.7893C169.999 39.9971 169.999 40.101 169.999 40.3087C169.999 40.7243 169.999 43.4254 169.999 46.9576C169.999 47.6848 169.376 48.3082 168.649 48.3082H163.351C162.623 48.3082 162 48.9315 162 49.6587V65.1381C162 65.8653 162.623 66.4886 163.351 66.4886H168.545C169.272 66.4886 169.896 67.112 169.896 67.8392V125.809C169.896 126.536 170.519 127.16 171.246 127.16H184.648C185.375 127.16 185.998 126.536 185.998 125.809V67.7353C185.998 67.0081 186.622 66.3848 187.349 66.3848H201.166C201.893 66.3848 202.517 65.7614 202.517 65.0342V49.6587C202.517 48.9315 201.893 48.3082 201.166 48.3082H185.894C185.894 43.6332 185.894 39.9971 185.894 39.9971C186.102 26.8032 196.699 16.2066 209.893 16.1027H217.165C217.892 16.1027 218.515 15.4794 218.515 14.7522V1.35055C218.515 0.623331 217.892 0 217.165 0H209.996Z" fill="white"/>
<path fill-rule="evenodd" clip-rule="evenodd" d="M296.224 64.9303C296.224 29.6082 324.482 0.72722 359.804 0C360.531 0 361.154 0.623331 361.154 1.35055V17.0377C361.154 17.7649 360.531 18.3883 359.804 18.3883C334.663 19.1155 314.612 39.7893 314.612 64.9303C314.612 66.4886 314.716 67.9431 314.82 69.5014C314.924 70.2286 314.405 70.852 313.677 70.9559H313.574H297.782C297.055 70.9559 296.536 70.4364 296.432 69.7092C296.328 68.1509 296.224 66.5925 296.224 64.9303ZM315.028 95.3697C315.028 130.692 286.77 159.573 251.448 160.3C250.721 160.3 250.098 159.677 250.098 158.949V143.262C250.098 142.535 250.721 141.912 251.448 141.912C276.589 141.185 296.64 120.511 296.64 95.3697C296.64 93.8113 296.536 92.3569 296.432 90.7986C296.328 90.0714 296.847 89.448 297.575 89.3441H297.679H313.47C314.197 89.3441 314.716 89.8636 314.82 90.5908C314.924 92.1491 315.028 93.7075 315.028 95.3697Z" fill="white"/>
</svg>
