<svg width="629" height="160" viewBox="0 0 629 160" fill="none" xmlns="http://www.w3.org/2000/svg">
<path d="M214.459 106.171C215.358 106.485 216.283 106.798 217.182 107.07C217.713 107.233 218.271 107.369 218.843 107.506C217.432 104.754 216.239 101.895 215.276 98.9556C215.276 100.14 215.153 101.325 214.99 102.563C214.827 103.802 214.677 105.014 214.459 106.171Z" fill="white"/>
<path d="M244.534 24.2378C234.705 24.2289 225.069 26.9623 216.709 32.1306C208.349 37.299 201.596 44.6973 197.211 53.4935C192.825 62.2898 190.981 72.1351 191.885 81.9222C192.789 91.7093 196.406 101.05 202.329 108.894L202.628 108.717C199.948 105.163 197.738 101.278 196.052 97.1582C195.38 95.8607 194.859 94.4903 194.5 93.0738H194.582C194.296 92.2025 194.024 91.3447 193.792 90.4462C191.545 81.8592 191.545 72.8385 193.792 64.2515C195.646 62.3137 196.801 59.8127 197.073 57.1446C197.208 56.2836 197.29 55.4152 197.318 54.5442C201.265 46.3456 207.27 39.3096 214.745 34.1221C215.229 34.627 215.683 35.1588 216.107 35.715C222.74 31.1299 230.381 28.212 238.382 27.2089C246.383 26.2058 254.508 27.1471 262.067 29.9529C269.627 32.7588 276.398 37.3463 281.807 43.3266C287.216 49.3069 291.103 56.5034 293.139 64.3059C293.357 65.1636 293.547 65.9941 293.738 66.8383H293.806C294.149 68.1752 294.354 69.5438 294.419 70.9227C295.461 79.465 294.298 88.1321 291.04 96.0973C287.782 104.062 282.538 111.06 275.807 116.423L275.63 116.682H275.562C266.437 123.855 255.106 127.64 243.501 127.392C231.896 127.144 220.737 122.877 211.927 115.32C211.614 116.083 211.274 116.831 210.92 117.512L210.851 117.608C220.205 126.008 231.028 130.051 244.602 130.051C258.464 129.829 271.682 124.166 281.406 114.285C291.13 104.404 296.579 91.0963 296.579 77.2331C296.579 63.3699 291.13 50.0623 281.406 40.1811C271.682 30.3 258.464 24.6374 244.602 24.4148L244.534 24.2378Z" fill="white"/>
<path d="M215.467 68.7436C214.97 71.264 214.652 73.8163 214.514 76.3814C222.465 78.587 232.553 78.6415 243.036 76.0683L235.834 48.6891C233.895 49.1251 231.913 49.3488 229.926 49.3562C228.083 49.3827 226.247 49.1302 224.48 48.6074C222.953 50.6017 221.587 52.7141 220.395 54.9246C220.314 55.6735 220.232 56.4223 220.109 57.1847C219.518 61.356 217.925 65.3221 215.467 68.7436Z" fill="white"/>
<path d="M222.179 47.5602C221.418 47.1183 220.748 46.5362 220.205 45.8447C220.418 47.1736 220.541 48.5155 220.572 49.8611C221.09 49.1259 221.621 48.3498 222.179 47.5602Z" fill="white"/>
<path d="M219.469 40.9424L218.965 41.0921L219.238 41.8682C219.289 41.5537 219.366 41.244 219.469 40.9424Z" fill="white"/>
<path d="M212.131 75.6475C212.199 74.4358 212.322 73.2513 212.472 72.0532C211.463 72.9643 210.358 73.7632 209.177 74.4358C210.116 74.8715 211.096 75.2799 212.131 75.6475Z" fill="white"/>
<path d="M221.157 38.0289C223.956 35.078 227.519 32.9618 231.45 31.9159L231.259 31.1943C226.327 32.6234 221.66 34.8443 217.44 37.7702C217.661 38.1259 217.861 38.4941 218.039 38.873C219.047 38.5599 220.109 38.2876 221.157 38.0289Z" fill="white"/>
<path d="M230.211 39.2144C227.649 39.3346 225.1 39.6533 222.587 40.1674C222.194 40.6144 221.906 41.1432 221.744 41.7155C221.581 42.2878 221.548 42.8892 221.647 43.4758C221.814 43.9695 222.081 44.4232 222.433 44.8077C222.784 45.1921 223.212 45.499 223.689 45.7086C225.629 43.3207 227.815 41.144 230.211 39.2144Z" fill="white"/>
<path d="M226.099 46.5516C227.354 46.8388 228.638 46.9759 229.925 46.96C231.696 46.9388 233.461 46.7427 235.194 46.3746L233.492 39.7578C230.781 41.7381 228.301 44.017 226.099 46.5516Z" fill="white"/>
<path d="M232.021 34.272C229.786 34.9431 227.666 35.9483 225.731 37.2536C228.042 36.9443 230.371 36.8033 232.702 36.8315L232.021 34.272Z" fill="white"/>
<path d="M245.065 33.8228C242.483 34.703 239.986 35.8149 237.604 37.1447C240.935 37.5345 244.213 38.2878 247.379 39.3912C247.69 38.9774 247.913 38.5038 248.032 38.0001C248.152 37.4964 248.166 36.9734 248.074 36.464C247.814 35.8188 247.407 35.2436 246.884 34.7848C246.361 34.3261 245.738 33.9965 245.065 33.8228Z" fill="white"/>
<path d="M270.511 61.5147C265.414 53.1819 257.895 46.6033 248.959 42.6584L248.196 42.3452C245.407 45.0925 241.956 47.0717 238.176 48.0906L245.351 75.4562C255.507 72.6107 264.398 67.6958 270.511 61.5147Z" fill="white"/>
<path d="M235.848 39.3911L237.549 45.79C240.555 44.9511 243.342 43.4693 245.718 41.4469C242.519 40.382 239.206 39.6921 235.848 39.3911Z" fill="white"/>
<path d="M239.81 33.0187C237.977 33.0296 236.151 33.2396 234.364 33.6449L234.936 35.8777C236.682 34.8069 238.502 33.8606 240.381 33.0459C240.192 33.0222 240.001 33.0131 239.81 33.0187Z" fill="white"/>
<path d="M250.416 35.8922C250.765 37.4168 250.496 39.0178 249.667 40.3442L249.912 40.4395C259.095 44.4774 266.857 51.1731 272.199 59.6635C277.033 54.0542 279.007 48.1455 277.781 42.7813C272.366 37.5286 265.789 33.6248 258.585 31.3857C255.102 31.513 251.642 32.0105 248.265 32.8697C249.298 33.6094 250.055 34.6732 250.416 35.8922Z" fill="white"/>
<path d="M239.81 30.595C241.564 30.5682 243.312 30.8022 244.997 31.2894C247.021 30.6439 249.086 30.1345 251.178 29.7645C248.987 29.4431 246.776 29.2793 244.561 29.2744C240.858 29.2988 237.171 29.7557 233.574 30.6359L233.765 31.3439C235.746 30.8724 237.773 30.6213 239.81 30.595Z" fill="white"/>
<path d="M39.932 24.5635C27.8421 24.5635 15.4255 29.7507 12.5255 48.2258L0 127.668H23.145L29.4622 87.5451L74.2274 87.7357L77.9442 65.6118L33.0157 65.6935L34.84 53.9985C35.3983 50.2 36.2015 46.1156 43.4309 46.1156H80.5855L83.676 24.8902C70.4017 24.8902 40.4221 24.5635 40.4221 24.5635H39.932Z" fill="white"/>
<path d="M212.893 99.9211C214.745 85.8299 208.686 75.5508 199.945 74.1485C209.666 73.0185 216.474 64.7135 217.999 54.5705C220.381 38.5052 214.037 24.6182 192.498 24.6182H149.952L147.325 41.1464L148.4 34.7611C153.478 40.207 156.324 49.0566 154.118 63.1886C151.708 79.3221 146.086 87.0552 139.537 90.7312L133.683 127.668H176.623C198.257 127.668 209.544 124.006 212.893 99.9211ZM189.939 95.7006C188.577 104.577 184.493 107.668 178.679 107.668H159.796L163.744 83.1614H182.628C189.666 83.1614 191.069 89.22 189.939 95.7006ZM194.881 54.5705C194.037 60.4657 190.374 64.2914 184.602 64.2914H166.903L169.993 44.5637H187.692C192.335 44.5637 196.147 46.5379 194.881 54.5705Z" fill="white"/>
<path d="M103.621 44.5635H121.538C126.603 44.5635 129.98 47.5179 128.427 57.3749C126.875 67.232 123.213 70.9896 117.291 70.9896H100.34L103.621 44.5635ZM83.7576 24.5635L68.3594 127.668H91.5044L97.5902 91.1258H116.651C128.904 91.1258 146.767 92.7868 151.654 60.2749C156.025 32.106 140.395 24.6316 126.862 24.6316L83.7576 24.5635Z" fill="white"/>
<mask id="mask0_28_182" style="mask-type:luminance" maskUnits="userSpaceOnUse" x="68" y="24" width="85" height="104">
<path d="M103.621 44.563H121.538C126.603 44.563 129.98 47.5174 128.427 57.3744C126.875 67.2315 123.213 70.9892 117.291 70.9892H100.34L103.621 44.563ZM83.7576 24.563L68.3594 127.667H91.5044L97.5902 91.1253H116.651C128.904 91.1253 146.767 92.7863 151.654 60.2744C156.025 32.1055 140.395 24.6311 126.862 24.6311L83.7576 24.563Z" fill="white"/>
</mask>
<g mask="url(#mask0_28_182)">
<path d="M91.2933 -13.9808L23.0405 100.696L133.096 166.199L201.349 51.5216L91.2933 -13.9808Z" fill="white"/>
</g>
<path d="M354.772 16H353.125V143.978H354.772V16Z" fill="white"/>
<path d="M382.151 49.642V16H398.925V21.7046H388.591V29.4241H396.692V35.1151H388.591V49.642H382.151Z" fill="white"/>
<path d="M402.192 31.7251C402.221 30.545 402.515 29.3864 403.052 28.3353C403.59 27.2842 404.357 26.3674 405.296 25.653C407.15 24.4022 409.351 23.7685 411.586 23.8422C417.849 23.8422 420.204 27.0008 420.204 31.5481V47.559C420.224 48.26 420.334 48.9555 420.531 49.6285H414.663C414.527 48.9614 414.445 48.1717 414.255 47.1506C413.347 48.0835 412.261 48.8245 411.061 49.3296C409.861 49.8348 408.572 50.0938 407.27 50.0914C403.717 50.0914 401.443 48.1309 401.443 44.0328C401.443 38.1649 407.025 35.6462 414.336 33.4542V31.6298C414.387 31.2203 414.343 30.8046 414.209 30.4143C414.076 30.024 413.855 29.6692 413.564 29.3768C413.272 29.0843 412.919 28.8619 412.529 28.7262C412.139 28.5906 411.724 28.5453 411.314 28.5937C410.894 28.581 410.476 28.6525 410.084 28.804C409.693 28.9555 409.335 29.1839 409.033 29.4758C408.731 29.7676 408.491 30.117 408.326 30.5034C408.161 30.8897 408.075 31.3051 408.074 31.7251H402.192ZM414.336 37.2527C410.851 38.4644 407.311 40.4113 407.311 43.0934C407.281 43.4456 407.327 43.8003 407.447 44.1328C407.567 44.4653 407.758 44.7677 408.007 45.019C408.256 45.2703 408.556 45.4645 408.887 45.5881C409.219 45.7117 409.573 45.7617 409.925 45.7347C410.777 45.6844 411.609 45.4575 412.369 45.0684C413.128 44.6793 413.798 44.1366 414.336 43.4746V37.2527Z" fill="white"/>
<path d="M438.394 33.0738V31.9574C438.394 29.9833 437.032 28.9622 434.936 28.9622C432.839 28.9622 431.505 29.9833 431.505 31.9574V42.0051C431.505 43.9656 432.866 44.9867 434.936 44.9867C437.005 44.9867 438.394 43.9656 438.394 42.0051V40.4122H444.262V40.5075C444.262 47.2195 440.79 50.1195 434.936 50.1195C429.081 50.1195 425.623 47.2195 425.623 40.5075V33.4414C425.623 26.7294 429.054 23.9111 434.936 23.9111C440.817 23.9111 444.126 26.7021 444.207 33.1419L438.394 33.0738Z" fill="white"/>
<path d="M466.985 24.2925V49.6567H461.307V46.7704C459.156 48.622 457.141 50.1196 454.732 50.1196C451.151 50.1196 449.286 48.2952 449.286 43.5981V24.2925H455.154V42.9446C455.154 44.6056 455.712 45.7493 457.291 45.7493C458.503 45.7493 459.864 44.5784 461.103 43.4484V24.2925H466.985Z" fill="white"/>
<path d="M479.252 16H473.357V49.642H479.252V16Z" fill="white"/>
<path d="M497.877 49.6566V46.5797H497.781C497.064 47.596 496.13 48.4406 495.047 49.0527C493.964 49.6648 492.759 50.0291 491.518 50.1195C486.958 50.1195 485.106 46.5797 485.106 40.0582V33.9452C485.106 27.4238 486.958 23.884 491.518 23.884C493.111 23.884 494.609 24.6328 497.4 26.675V16.0146H503.282V49.6566H497.877ZM497.4 30.0378C496.981 29.4916 496.446 29.0448 495.834 28.7294C495.222 28.414 494.548 28.2378 493.86 28.2134C492.281 28.2134 490.974 29.2481 490.974 34.2856V39.6634C490.974 44.7145 492.335 45.7356 493.86 45.7356C494.548 45.7112 495.222 45.535 495.834 45.2196C496.446 44.9042 496.981 44.4574 497.4 43.9112V30.0378Z" fill="white"/>
<path d="M508.319 31.7254C508.343 30.5458 508.633 29.387 509.169 28.3355C509.704 27.284 510.47 26.3671 511.409 25.6533C513.267 24.4005 515.473 23.7668 517.713 23.8425C523.948 23.8425 526.331 27.0011 526.331 31.5484V47.5593C526.336 48.2615 526.446 48.959 526.658 49.6288H520.79C520.64 48.9616 520.545 48.172 520.368 47.1509C519.461 48.0821 518.377 48.8221 517.18 49.3273C515.983 49.8324 514.696 50.0923 513.397 50.0917C509.843 50.0917 507.556 48.1311 507.556 44.0331C507.556 38.1652 513.152 35.6465 520.449 33.4545V31.6301C520.5 31.2205 520.456 30.8049 520.322 30.4146C520.188 30.0243 519.968 29.6695 519.676 29.377C519.385 29.0846 519.032 28.8622 518.642 28.7265C518.252 28.5909 517.837 28.5456 517.427 28.594C517.006 28.5813 516.586 28.6527 516.193 28.8038C515.8 28.955 515.441 29.183 515.136 29.4745C514.832 29.766 514.589 30.1152 514.421 30.5017C514.254 30.8881 514.165 31.3041 514.159 31.7254H508.319ZM520.449 37.253C516.964 38.4647 513.424 40.4116 513.424 43.0937C513.394 43.4423 513.44 43.7932 513.557 44.1226C513.675 44.452 513.862 44.7523 514.107 45.0028C514.351 45.2534 514.646 45.4485 514.972 45.5749C515.298 45.7012 515.648 45.7558 515.997 45.735C516.857 45.6953 517.699 45.4733 518.466 45.0837C519.234 44.694 519.91 44.1457 520.449 43.4749V37.253Z" fill="white"/>
<path d="M544.452 49.6566V46.5797H544.357C543.646 47.5967 542.718 48.4422 541.639 49.0546C540.56 49.667 539.359 50.0309 538.121 50.1195C533.547 50.1195 531.695 46.5797 531.695 40.0582V33.9452C531.695 27.4238 533.547 23.884 538.121 23.884C539.701 23.884 541.212 24.6328 543.989 26.675V16.0146H549.857V49.6566H544.452ZM543.989 30.0378C543.576 29.4985 543.05 29.0558 542.448 28.7407C541.846 28.4256 541.182 28.2457 540.504 28.2134C538.938 28.2134 537.617 29.2481 537.617 34.2856V39.6634C537.617 44.7145 538.979 45.7356 540.504 45.7356C541.194 45.7132 541.871 45.538 542.485 45.2225C543.1 44.907 543.637 44.4592 544.057 43.9112L543.989 30.0378Z" fill="white"/>
<path d="M560.926 38.3702V41.7194C560.864 42.1968 560.909 42.6821 561.058 43.1399C561.207 43.5978 561.456 44.0166 561.787 44.3661C562.119 44.7155 562.524 44.9868 562.973 45.1601C563.422 45.3335 563.904 45.4045 564.384 45.3681C564.854 45.4075 565.327 45.3421 565.769 45.1765C566.21 45.0109 566.61 44.7493 566.938 44.4107C567.266 44.072 567.515 43.6647 567.667 43.2181C567.818 42.7715 567.869 42.2968 567.815 41.8283H573.669C573.397 47.0427 570.266 50.1197 564.384 50.1197C558.775 50.1197 555.058 46.6615 555.058 41.1203V32.8426C555.058 27.2878 558.775 23.8433 564.384 23.8433C569.993 23.8433 573.669 27.2878 573.669 32.4614V38.3702H560.926ZM567.733 33.6186V32.2572C567.733 29.9971 566.658 28.622 564.303 28.622C561.947 28.622 560.844 29.9835 560.844 32.2572V33.6186H567.733Z" fill="white"/>
<path d="M388.578 63.4346H382.151V97.0765H388.578V63.4346Z" fill="white"/>
<path d="M394.623 97.0767V71.7125H400.273V74.626C402.424 72.7336 404.425 71.2632 406.849 71.2632C410.443 71.2632 412.294 73.0739 412.294 77.7982V97.0767H406.44V78.4381C406.44 76.7499 405.896 75.6335 404.316 75.6335C403.077 75.6335 401.743 76.818 400.477 77.9208V97.0767H394.623Z" fill="white"/>
<path d="M415.398 77.6073V72.8422H417.74V65.9531H423.608V72.8422H427.379V77.6073H423.608V90.5413C423.608 91.8075 424.67 92.4065 426.263 92.4065C426.653 92.4279 427.044 92.4279 427.434 92.4065V97.335C426.323 97.5171 425.197 97.5991 424.071 97.5801C420.259 97.5801 417.74 96.2186 417.74 92.529V77.6073H415.398Z" fill="white"/>
<path d="M436.283 85.7895V89.1387C436.221 89.6174 436.266 90.1039 436.416 90.5628C436.566 91.0217 436.816 91.4414 437.149 91.7911C437.482 92.1408 437.888 92.4117 438.339 92.5841C438.79 92.7565 439.274 92.826 439.755 92.7874C440.226 92.8294 440.7 92.7657 441.142 92.601C441.585 92.4363 441.986 92.1748 442.314 91.8355C442.643 91.4963 442.892 91.0879 443.043 90.6401C443.194 90.1924 443.243 89.7167 443.186 89.2476H449.068C448.782 94.4621 445.664 97.539 439.755 97.539C434.159 97.539 430.429 94.0808 430.429 88.5396V80.2347C430.429 74.6799 434.159 71.2354 439.755 71.2354C445.351 71.2354 449.068 74.6799 449.068 79.8535V85.7623L436.283 85.7895ZM443.159 81.0516V79.6901C443.159 77.4437 442.11 76.055 439.728 76.055C437.345 76.055 436.283 77.4164 436.283 79.6901V81.0516H443.159Z" fill="white"/>
<path d="M454.16 97.0761V71.7119H459.891V75.0747H459.987C460.493 73.8988 461.345 72.9046 462.43 72.2238C463.514 71.543 464.78 71.2078 466.059 71.2626V77.6071C465.046 77.2435 463.988 77.019 462.914 76.94C462.539 76.9211 462.165 76.9798 461.814 77.1125C461.463 77.2452 461.143 77.4489 460.875 77.711C460.606 77.973 460.395 78.2877 460.254 78.6353C460.113 78.9829 460.045 79.356 460.055 79.731V97.0761H454.16Z" fill="white"/>
<path d="M469.708 97.0767V71.7125H475.398V74.626C477.522 72.7336 479.483 71.2632 481.961 71.2632C485.528 71.2632 487.407 73.0739 487.407 77.7982V97.0767H481.552V78.4381C481.552 76.7499 480.98 75.6335 479.388 75.6335C478.189 75.6335 476.828 76.818 475.589 77.9208V97.0767H469.708Z" fill="white"/>
<path d="M492.417 79.1461C492.449 77.9609 492.75 76.7984 493.298 75.7465C493.845 74.6947 494.624 73.7808 495.576 73.074C497.433 71.8195 499.64 71.1856 501.879 71.2632C508.115 71.2632 510.497 74.4218 510.497 78.9691V95.0072C510.51 95.7089 510.62 96.4054 510.824 97.0767H504.943C504.806 96.4096 504.725 95.6199 504.521 94.5988C503.621 95.5389 502.538 96.2848 501.34 96.7905C500.141 97.2963 498.851 97.5512 497.55 97.5396C493.996 97.5396 491.736 95.5791 491.736 91.481C491.736 85.6131 497.318 83.0944 504.629 80.9024V79.0508C504.68 78.64 504.637 78.223 504.502 77.8315C504.367 77.4401 504.145 77.0845 503.852 76.7917C503.56 76.499 503.204 76.2769 502.813 76.1423C502.421 76.0076 502.004 75.964 501.593 76.0147C501.169 75.9945 500.745 76.0604 500.347 76.2085C499.949 76.3567 499.585 76.5839 499.277 76.8765C498.969 77.1691 498.724 77.5211 498.556 77.9112C498.387 78.3012 498.3 78.7213 498.299 79.1461H492.417ZM504.575 84.6737C501.09 85.8854 497.55 87.8323 497.55 90.5144C497.507 90.8718 497.543 91.2344 497.657 91.576C497.77 91.9176 497.958 92.2298 498.207 92.4902C498.455 92.7505 498.759 92.9526 499.095 93.0818C499.431 93.2109 499.791 93.2641 500.15 93.2373C501.01 93.178 501.849 92.939 502.611 92.5356C503.373 92.1323 504.042 91.5736 504.575 90.8956V84.6737Z" fill="white"/>
<path d="M528.578 80.494V79.3776C528.578 77.4034 527.216 76.3823 525.12 76.3823C523.023 76.3823 521.675 77.4034 521.675 79.3776V89.4252C521.675 91.3993 523.036 92.4068 525.12 92.4068C527.203 92.4068 528.578 91.3993 528.578 89.4252V87.8323H534.446V87.9412C534.446 94.6396 530.987 97.5396 525.12 97.5396C519.252 97.5396 515.793 94.6396 515.793 87.9412V80.8616C515.793 74.1495 519.238 71.2632 525.12 71.2632C531.001 71.2632 534.282 74.0542 534.378 80.494H528.578Z" fill="white"/>
<path d="M540.3 62.0454H546.182V67.3415H540.3V62.0454ZM546.168 97.0761H540.3V71.7119H546.168V97.0761Z" fill="white"/>
<path d="M552.036 80.8616C552.036 74.1495 555.481 71.2632 561.362 71.2632C567.244 71.2632 570.675 74.1495 570.675 80.8616V87.9412C570.675 94.6396 567.217 97.5396 561.362 97.5396C555.508 97.5396 552.036 94.6396 552.036 87.9412V80.8616ZM557.918 89.4252C557.918 91.3993 559.279 92.4068 561.362 92.4068C563.445 92.4068 564.807 91.3993 564.807 89.4252V79.3776C564.807 77.4034 563.445 76.3823 561.362 76.3823C559.279 76.3823 557.918 77.4034 557.918 79.3776V89.4252Z" fill="white"/>
<path d="M575.793 97.0767V71.7125H581.484V74.626C583.622 72.7336 585.569 71.2632 588.047 71.2632C591.627 71.2632 593.493 73.0739 593.493 77.7982V97.0767H587.625V78.4381C587.625 76.7499 587.08 75.6335 585.487 75.6335C584.275 75.6335 582.914 76.818 581.675 77.9208V97.0767H575.793Z" fill="white"/>
<path d="M598.53 79.1464C598.567 77.9665 598.866 76.8096 599.405 75.7594C599.944 74.7092 600.71 73.7921 601.648 73.0742C603.504 71.8181 605.711 71.184 607.951 71.2635C614.187 71.2635 616.556 74.4221 616.556 78.9694V95.0075C616.566 95.7104 616.68 96.4079 616.896 97.077H611.015C610.878 96.4099 610.783 95.6202 610.606 94.5991C609.695 95.5359 608.605 96.2792 607.4 96.7845C606.195 97.2899 604.901 97.5468 603.594 97.5399C600.068 97.5399 597.781 95.5794 597.781 91.4813C597.781 85.6134 603.377 83.0947 610.701 80.9027V79.0511C610.752 78.6403 610.708 78.2233 610.574 77.8318C610.439 77.4404 610.217 77.0847 609.924 76.792C609.632 76.4993 609.276 76.2772 608.885 76.1426C608.493 76.0079 608.076 75.9643 607.665 76.015C607.244 76.0004 606.825 76.0705 606.431 76.2212C606.038 76.3718 605.679 76.6 605.376 76.892C605.072 77.1841 604.83 77.5341 604.665 77.9214C604.499 78.3086 604.413 78.7252 604.411 79.1464H598.53ZM610.701 84.674C607.202 85.8857 603.635 87.8326 603.635 90.5147C603.596 90.8736 603.637 91.2366 603.754 91.5781C603.871 91.9196 604.061 92.2312 604.312 92.491C604.563 92.7507 604.867 92.9522 605.204 93.0813C605.542 93.2103 605.903 93.2637 606.263 93.2376C607.124 93.1752 607.964 92.9349 608.728 92.5319C609.491 92.1288 610.164 91.5718 610.701 90.8959V84.674Z" fill="white"/>
<path d="M629 63.4346H623.146V97.0765H629V63.4346Z" fill="white"/>
<path d="M394.908 143.992V140.915H394.827C394.117 141.936 393.187 142.784 392.105 143.396C391.024 144.009 389.818 144.371 388.578 144.455C384.017 144.455 382.165 140.915 382.165 134.393V128.24C382.165 121.718 384.017 118.178 388.578 118.178C390.17 118.178 391.641 118.927 394.459 120.901V110.282H400.273V143.992H394.908ZM394.445 124.373C394.026 123.827 393.491 123.381 392.879 123.066C392.267 122.75 391.594 122.574 390.906 122.549C389.326 122.549 388.019 123.583 388.019 128.621V134.067C388.019 139.104 389.381 140.139 390.906 140.139C391.595 140.114 392.27 139.936 392.882 139.618C393.495 139.3 394.028 138.85 394.445 138.301V124.373Z" fill="white"/>
<path d="M405.337 126.062C405.373 124.883 405.67 123.727 406.206 122.676C406.743 121.626 407.507 120.709 408.441 119.989C410.295 118.739 412.496 118.105 414.731 118.179C420.98 118.179 423.363 121.337 423.363 125.885V141.936C423.376 142.633 423.486 143.325 423.69 143.992H417.795C417.672 143.325 417.59 142.535 417.386 141.514C416.483 142.453 415.397 143.198 414.197 143.703C412.996 144.209 411.705 144.465 410.402 144.455C406.862 144.455 404.588 142.495 404.588 138.396C404.588 132.529 410.198 130.01 417.495 127.831V125.966C417.544 125.556 417.498 125.141 417.363 124.751C417.227 124.362 417.005 124.008 416.712 123.717C416.42 123.426 416.065 123.205 415.675 123.071C415.284 122.937 414.869 122.893 414.459 122.944C414.036 122.924 413.613 122.989 413.216 123.136C412.819 123.284 412.455 123.51 412.148 123.801C411.84 124.092 411.594 124.442 411.425 124.831C411.256 125.219 411.167 125.638 411.164 126.062H405.337ZM417.509 131.603C414.01 132.801 410.47 134.761 410.47 137.43C410.429 137.786 410.467 138.147 410.582 138.487C410.696 138.827 410.884 139.137 411.133 139.396C411.381 139.655 411.684 139.856 412.019 139.984C412.353 140.113 412.713 140.166 413.07 140.139C413.933 140.082 414.774 139.844 415.538 139.44C416.303 139.037 416.974 138.477 417.509 137.797V131.603Z" fill="white"/>
<path d="M442.615 143.993V110.351H451.886C459.783 110.351 463.676 114.068 463.676 120.426C463.676 126.784 459.783 130.487 451.886 130.487H449.041V143.993H442.615ZM449.041 125.164H452.472C455.657 125.164 457.237 123.585 457.237 120.426C457.237 117.267 455.657 115.661 452.472 115.661H449.041V125.164Z" fill="white"/>
<path d="M467.502 126.062C467.534 124.881 467.83 123.722 468.37 122.671C468.909 121.62 469.679 120.704 470.62 119.99C472.467 118.736 474.665 118.102 476.896 118.179C483.146 118.179 485.514 121.338 485.514 125.885V141.937C485.528 142.634 485.638 143.326 485.841 143.993H479.973C479.837 143.326 479.755 142.536 479.538 141.515C478.638 142.455 477.555 143.201 476.357 143.707C475.158 144.212 473.868 144.467 472.567 144.456C469.027 144.456 466.753 142.495 466.753 138.397C466.753 132.529 472.335 130.01 479.647 127.832V125.967C479.695 125.558 479.65 125.144 479.515 124.756C479.38 124.367 479.159 124.014 478.868 123.723C478.577 123.432 478.224 123.211 477.835 123.076C477.447 122.941 477.033 122.896 476.624 122.944C476.204 122.93 475.786 122.999 475.393 123.149C475.001 123.299 474.643 123.526 474.339 123.817C474.036 124.107 473.794 124.456 473.628 124.841C473.461 125.227 473.374 125.642 473.37 126.062H467.502ZM479.647 131.603C476.148 132.801 472.621 134.762 472.621 137.43C472.58 137.787 472.618 138.148 472.733 138.488C472.848 138.828 473.036 139.138 473.284 139.397C473.533 139.656 473.835 139.856 474.17 139.985C474.505 140.113 474.864 140.166 475.222 140.14C476.083 140.083 476.922 139.845 477.684 139.441C478.447 139.038 479.115 138.478 479.647 137.798V131.603Z" fill="white"/>
<path d="M491.355 143.992V118.628H497.06V122.004H497.155C497.655 120.826 498.504 119.828 499.586 119.144C500.669 118.461 501.934 118.124 503.213 118.179V124.523C502.205 124.158 501.151 123.934 500.082 123.856C499.712 123.836 499.342 123.891 498.994 124.019C498.646 124.146 498.328 124.344 498.059 124.599C497.79 124.853 497.576 125.161 497.43 125.501C497.284 125.842 497.209 126.208 497.209 126.579V143.992H491.355Z" fill="white"/>
<path d="M506.29 126.062C506.328 124.883 506.625 123.728 507.162 122.678C507.699 121.628 508.461 120.71 509.394 119.989C511.248 118.739 513.449 118.105 515.684 118.179C521.947 118.179 524.33 121.337 524.33 125.885V141.936C524.343 142.633 524.453 143.325 524.656 143.992H518.72C518.584 143.325 518.489 142.535 518.298 141.514C517.394 142.452 516.308 143.195 515.108 143.701C513.907 144.206 512.616 144.463 511.314 144.455C507.774 144.455 505.487 142.495 505.487 138.396C505.487 132.529 511.069 130.01 518.407 127.831V125.966C518.456 125.556 518.41 125.141 518.275 124.751C518.139 124.362 517.917 124.008 517.624 123.717C517.332 123.426 516.977 123.205 516.587 123.071C516.196 122.937 515.781 122.893 515.371 122.944C514.951 122.929 514.533 122.999 514.14 123.149C513.748 123.299 513.39 123.525 513.086 123.816C512.783 124.107 512.541 124.455 512.374 124.841C512.208 125.226 512.121 125.642 512.117 126.062H506.29ZM518.462 131.603C514.949 132.801 511.409 134.761 511.409 137.43C511.368 137.786 511.406 138.147 511.521 138.487C511.635 138.827 511.824 139.137 512.072 139.396C512.32 139.655 512.623 139.856 512.958 139.984C513.293 140.113 513.652 140.166 514.01 140.139C514.874 140.082 515.717 139.844 516.484 139.441C517.251 139.037 517.925 138.477 518.462 137.797V131.603Z" fill="white"/>
<path d="M541.417 108.826L534.609 115.634H529.912L534.242 108.826H541.417ZM530.892 118.71H536.76V143.993H530.892V118.71Z" fill="white"/>
<path d="M543.105 143.993V110.351H548.973V120.984C551.696 118.928 553.248 118.18 554.841 118.18C559.388 118.18 561.253 121.733 561.253 128.241V134.395C561.253 140.916 559.388 144.456 554.841 144.456C553.601 144.37 552.396 144.008 551.314 143.395C550.233 142.783 549.302 141.935 548.591 140.916H548.51V143.993H543.105ZM548.973 138.261C549.383 138.818 549.912 139.276 550.523 139.601C551.133 139.926 551.808 140.11 552.499 140.14C554.105 140.14 555.399 139.119 555.399 134.068V128.622C555.399 123.585 554.105 122.55 552.499 122.55C551.811 122.574 551.138 122.752 550.528 123.07C549.918 123.388 549.386 123.838 548.973 124.388V138.261Z" fill="white"/>
<path d="M565.841 126.062C565.867 124.88 566.161 123.719 566.701 122.667C567.241 121.615 568.013 120.7 568.959 119.99C570.805 118.734 573.004 118.1 575.235 118.179C581.457 118.179 583.853 121.338 583.853 125.885V141.937C583.874 142.634 583.984 143.324 584.18 143.993H578.312C578.163 143.326 578.067 142.536 577.904 141.515C576.996 142.451 575.908 143.195 574.705 143.7C573.503 144.205 572.21 144.462 570.906 144.456C567.339 144.456 565.065 142.495 565.065 138.397C565.065 132.529 570.674 130.011 577.972 127.832V125.967C578.02 125.559 577.975 125.144 577.84 124.756C577.705 124.367 577.484 124.014 577.193 123.724C576.902 123.433 576.549 123.211 576.161 123.077C575.772 122.942 575.358 122.897 574.949 122.945C574.529 122.932 574.111 123.003 573.719 123.153C573.326 123.303 572.968 123.53 572.664 123.82C572.36 124.11 572.116 124.458 571.948 124.843C571.779 125.228 571.689 125.642 571.682 126.062H565.841ZM577.972 131.604C574.487 132.802 570.947 134.762 570.947 137.431C570.908 137.789 570.948 138.152 571.065 138.492C571.182 138.833 571.373 139.144 571.624 139.403C571.875 139.662 572.18 139.862 572.517 139.989C572.854 140.117 573.215 140.168 573.574 140.14C574.43 140.079 575.264 139.839 576.021 139.435C576.779 139.032 577.443 138.474 577.972 137.798V131.604Z" fill="white"/>
<path d="M295.725 89.2198C302.816 83.7431 309.509 77.7693 315.753 71.3437C317.672 69.3831 331.409 56.4492 320.627 47.8447C317.727 45.9114 313.669 45.2715 309.463 45.2715C303.435 45.391 297.454 46.3581 291.695 48.1442C303.949 51.4253 306.44 58.4778 296.774 69.2198C297.096 71.6207 297.26 74.0403 297.264 76.4628C297.268 80.7617 296.751 85.0452 295.725 89.2198Z" fill="white"/>
<path d="M163.513 136.055C183.922 134.882 204.128 131.36 223.73 125.558C219.567 123.718 215.652 121.363 212.076 118.546C181.361 129.533 146.63 136.246 116.501 131.004C129.149 135.197 149.34 136.804 163.513 136.055Z" fill="white"/>
<path d="M278.979 110.188C283.382 105.579 286.825 100.141 289.109 94.1904C286.672 95.9195 284.208 97.5941 281.689 99.2143C281.255 102.972 280.345 106.66 278.979 110.188Z" fill="white"/>
<path d="M257.318 112.746L255.357 113.645L257.794 122.944C263.643 121.26 269.112 118.464 273.901 114.707C276.472 110.49 278.171 105.8 278.897 100.915C275.121 103.266 271.268 105.508 267.338 107.641C264.062 109.429 260.722 111.131 257.318 112.746Z" fill="white"/>
<path d="M237.917 124.374C240.095 124.686 242.293 124.841 244.493 124.837C248.193 124.839 251.88 124.41 255.48 123.557L253.234 114.68C247.107 117.403 240.836 119.904 234.418 122.182C235.523 123.007 236.693 123.74 237.917 124.374Z" fill="white"/>
<path d="M223.73 110.895C224.357 111.848 224.997 112.733 225.623 113.618C227.27 112.937 228.904 112.257 230.524 111.521C228.25 111.44 225.982 111.231 223.73 110.895Z" fill="white"/>
<path d="M249.857 102.114L243.703 78.4243C238.43 79.739 233.018 80.42 227.583 80.4529C223.15 80.4922 218.73 79.9614 214.432 78.8736C214.464 89.1384 217.096 99.2278 222.083 108.2C226.657 108.998 231.306 109.281 235.943 109.044C239.773 107.229 243.499 105.413 247.121 103.598L249.857 102.114Z" fill="white"/>
<path d="M278.898 84.3194C278.45 81.4654 277.809 78.6451 276.978 75.8782C275.719 71.6083 273.974 67.497 271.777 63.625C265.392 69.915 256.297 74.8844 245.909 77.7979L251.995 100.943C253.52 100.126 255.031 99.2955 256.501 98.465C264.219 94.1607 271.695 89.4384 278.898 84.3194Z" fill="white"/>
<path d="M291.736 74.1623C291.889 73.1305 291.949 72.087 291.913 71.0445C291.668 68.9797 291.267 66.9362 290.715 64.9315C288.854 57.8273 285.378 51.2486 280.558 45.7075C280.64 51.0445 278.23 56.5993 273.547 61.8273C275.99 66.0349 277.923 70.5185 279.306 75.1834C280.052 77.6555 280.652 80.1695 281.103 82.7123C284.833 79.9894 288.214 77.2664 291.246 74.5435L291.736 74.1623Z" fill="white"/>
<path d="M220.476 110.35C219.115 110.078 217.849 109.765 216.583 109.397C215.67 109.139 214.799 108.853 213.955 108.553C213.601 110.042 213.206 111.43 212.771 112.719C214.371 114.149 216.063 115.472 217.835 116.681C219.632 115.987 221.402 115.32 223.186 114.53C222.21 113.185 221.306 111.79 220.476 110.35Z" fill="white"/>
</svg>
