<svg width="629" height="160" viewBox="0 0 629 160" fill="none" xmlns="http://www.w3.org/2000/svg">
<path d="M278.223 47L278.223 113L279.445 113L279.445 47L278.223 47Z" fill="white"/>
<path d="M305.827 76.0725C297.245 76.0725 292.042 70.4945 292.042 61.5375C292.042 52.9738 297.62 47.0025 305.451 47.0025C308.178 46.9544 310.873 47.6004 313.282 48.8797L312.156 55.2623C310.393 53.7642 308.139 52.9686 305.827 53.0275C301.732 53.0275 298.675 56.3886 298.675 61.5912C298.675 67.187 301.661 70.1727 306.131 70.1727C308.353 70.0947 310.524 69.4814 312.459 68.3849L313.21 73.9629C311.105 75.5753 308.466 76.3292 305.827 76.0725Z" fill="white"/>
<path d="M333.77 67.1338H321.827C321.843 67.7483 321.982 68.3533 322.236 68.9131C322.49 69.4729 322.853 69.976 323.305 70.3928C323.757 70.8095 324.288 71.1314 324.866 71.3393C325.445 71.5473 326.059 71.6371 326.672 71.6034C329.082 71.553 331.419 70.7739 333.377 69.3686L334.128 73.8382C331.804 75.3599 329.073 76.1393 326.297 76.073C320.344 76.073 315.874 72.7297 315.874 65.6499C315.892 58.9277 320.04 55.2627 325.206 55.2627C331.16 55.2627 334.146 59.7322 334.146 65.7036C334.146 66.383 334.146 66.7584 333.77 67.1338ZM325.206 59.3032C323.419 59.3032 322.221 60.805 322.221 63.7727H328.55C327.817 60.805 327.066 59.3032 325.206 59.3032Z" fill="white"/>
<path d="M349.055 75.7154V63.0397C349.055 61.538 348.304 60.8049 347.267 60.8049C345.959 60.9478 344.756 61.5879 343.906 62.5928V75.6439H337.506V55.5845H343.084L343.459 58.1947C344.251 57.2871 345.226 56.5568 346.32 56.0515C347.414 55.5463 348.601 55.2775 349.806 55.2627C353.525 55.2627 355.384 57.4975 355.384 61.5916V75.769L349.055 75.7154Z" fill="white"/>
<path d="M367.686 76.0737C363.591 76.0737 360.534 74.5898 360.534 69.3693V60.8056H357.996V55.9606H360.606V49.9893L366.524 48.8809V55.5852H370.242L370.993 60.4302H366.524V67.8854C366.524 69.3693 367.257 70.1202 369.116 70.1202C369.645 70.1764 370.177 70.0434 370.618 69.7448L371.422 74.9295C370.329 75.6966 369.021 76.0972 367.686 76.0737Z" fill="white"/>
<path d="M380.36 64.5236V75.7154H374.014V55.5845H379.234L379.985 59.6786C380.519 58.4931 381.349 57.4646 382.394 56.6914C383.44 55.9182 384.666 55.4263 385.956 55.2627L387.065 61.5916C384.566 61.7955 382.207 62.8274 380.36 64.5236Z" fill="white"/>
<path d="M397.506 76.073C391.911 76.073 387.816 71.9788 387.816 65.65C387.816 59.3211 391.911 55.2627 397.506 55.2627C403.102 55.2627 407.196 59.3568 407.196 65.7036C407.196 72.0504 403.084 76.073 397.506 76.073ZM397.882 60.4295C395.629 60.4295 394.145 62.6643 394.145 65.65C394.145 68.9932 395.629 71.228 397.882 71.228C400.135 71.228 401.601 68.9932 401.601 66.0254C401.225 62.6643 400.117 60.4295 397.882 60.4295Z" fill="white"/>
<path d="M303.592 112.972C296.44 112.972 291.667 109.253 291.667 101.423V84.2773H298.818V101.423C298.818 105.141 300.302 107.376 303.663 107.376C307.024 107.376 308.508 105.141 308.508 101.798V84.6528H315.66V101.744C315.892 109.253 310.672 112.972 303.592 112.972Z" fill="white"/>
<path d="M331.911 112.596V99.9564C331.911 98.4725 331.16 97.3641 329.676 97.3641C328.368 97.507 327.164 98.147 326.315 99.1519V112.561H320.04V92.4833H325.582L325.939 95.0756C326.709 94.1103 327.67 93.3149 328.763 92.7395C329.855 92.1641 331.055 91.8212 332.286 91.7324C336.005 91.7324 337.864 93.9672 337.864 98.0613V112.221H331.911V112.596Z" fill="white"/>
<path d="M345.318 89.8741C344.389 89.8867 343.489 89.5472 342.799 88.9238C342.109 88.3003 341.681 87.4391 341.6 86.513C341.6 84.2782 343.084 83.1519 345.318 83.1519C345.757 83.1542 346.192 83.243 346.596 83.4132C347.001 83.5834 347.368 83.8316 347.677 84.1437C347.986 84.4558 348.23 84.8257 348.396 85.2322C348.562 85.6387 348.646 86.0739 348.644 86.513C349.055 88.3723 347.553 89.8741 345.318 89.8741ZM342.35 112.597V92.4843H348.644V112.597H342.35Z" fill="white"/>
<path d="M364.324 112.598H357.995L351.291 92.8072L357.995 92.0742L361.732 104.732L365.451 92.4497H371.422L364.324 112.598Z" fill="white"/>
<path d="M390.427 104.035H378.502C378.483 104.659 378.598 105.281 378.84 105.857C379.082 106.434 379.445 106.951 379.904 107.375C380.364 107.799 380.909 108.119 381.503 108.314C382.097 108.509 382.726 108.574 383.347 108.504C385.754 108.445 388.089 107.667 390.051 106.269L390.784 110.739C388.352 112.299 385.501 113.079 382.614 112.974C376.642 112.974 372.173 109.613 372.173 102.533C372.173 95.8285 376.285 92.1099 381.863 92.1099C388.21 92.1099 390.802 96.5794 390.802 102.533C390.851 103.062 390.718 103.591 390.427 104.035ZM381.487 96.204C379.7 96.204 378.52 97.6879 378.144 100.674H384.402C384.402 97.6879 383.347 96.204 381.47 96.204H381.487Z" fill="white"/>
<path d="M400.117 101.424V112.598H393.771V92.4853H399.366L400.117 96.5794C400.638 95.3832 401.461 94.3426 402.504 93.5592C403.548 92.7758 404.777 92.2765 406.071 92.1099L407.197 98.4388C404.557 98.5612 402.048 99.6196 400.117 101.424Z" fill="white"/>
<path d="M416.887 112.975C414.044 113.085 411.22 112.469 408.68 111.187L409.431 106.342C411.665 107.755 414.244 108.528 416.887 108.577C418.674 108.577 419.497 107.826 419.497 107.075C419.497 105.967 418.746 105.591 416.136 104.84C410.915 103.356 408.984 102.248 408.984 98.5113C408.984 94.7747 411.97 92.1824 416.815 92.1824C419.381 92.103 421.931 92.6106 424.27 93.6663L423.519 98.5113C421.434 97.4545 419.15 96.8455 416.815 96.7235C415.313 96.7235 414.58 97.0989 414.58 98.2073C414.58 98.9582 415.313 99.3337 417.923 100.442C423.144 101.944 425.075 103.428 425.075 107.146C425.075 110.865 422.089 112.975 416.887 112.975Z" fill="white"/>
<path d="M431.778 89.8741C430.849 89.8867 429.949 89.5472 429.259 88.9238C428.569 88.3003 428.141 87.4391 428.06 86.513C428.06 84.2782 429.544 83.1519 431.778 83.1519C432.67 83.1519 433.525 83.506 434.155 84.1363C434.785 84.7666 435.14 85.6216 435.14 86.513C435.14 87.4044 434.785 88.2593 434.155 88.8896C433.525 89.52 432.67 89.8741 431.778 89.8741ZM428.435 112.597V92.4843H434.764V112.597H428.435Z" fill="white"/>
<path d="M447.815 112.972C443.346 112.972 440.36 111.488 440.36 106.268V97.6865H437.75V92.4839H440.36V86.5126L446.689 85.3862V92.5375H450.425L451.158 97.7401H446.689V105.571C446.689 107.055 447.44 107.806 449.299 107.806C449.828 107.862 450.36 107.729 450.801 107.43L451.534 112.651C450.425 112.597 449.299 112.972 447.815 112.972Z" fill="white"/>
<path d="M465.319 112.598L464.962 109.988C464.2 110.935 463.232 111.696 462.133 112.213C461.033 112.73 459.83 112.99 458.615 112.974C457.862 113.05 457.102 112.957 456.39 112.702C455.677 112.447 455.03 112.037 454.496 111.501C453.962 110.966 453.554 110.317 453.302 109.604C453.049 108.891 452.959 108.131 453.037 107.378C453.037 102.533 456.756 100.227 464.586 99.5653V99.1898C464.586 97.402 463.46 96.5796 461.601 96.5796C459.418 96.6805 457.272 97.1835 455.272 98.0635L454.521 93.2185C457.103 92.091 459.913 91.5828 462.727 91.7346C468.305 91.7346 470.915 93.5224 470.915 98.8859V112.295H465.319V112.598ZM464.586 102.908C460.474 103.659 459.366 105.143 459.366 106.645C459.366 107.119 459.554 107.574 459.89 107.909C460.225 108.245 460.68 108.433 461.154 108.433C461.788 108.43 462.414 108.295 462.993 108.036C463.571 107.778 464.09 107.401 464.515 106.931L464.586 102.908ZM463.835 90.2328H459.741L462.352 83.8682L469.807 84.9945L463.835 90.2328Z" fill="white"/>
<path d="M481.355 101.424V112.598H475.008V92.4853H480.604L481.355 96.5794C481.879 95.3852 482.702 94.3464 483.745 93.5635C484.788 92.7805 486.015 92.2798 487.308 92.1099L488.435 98.4388C487.113 98.4221 485.801 98.6787 484.583 99.1925C483.365 99.7062 482.266 100.466 481.355 101.424Z" fill="white"/>
<path d="M494.03 89.8756C493.588 89.878 493.15 89.7927 492.741 89.6246C492.332 89.4565 491.961 89.209 491.648 88.8965C491.336 88.5839 491.088 88.2124 490.92 87.8036C490.752 87.3947 490.667 86.9566 490.669 86.5145C490.634 86.0642 490.697 85.6117 490.854 85.1881C491.01 84.7645 491.257 84.3798 491.576 84.0604C491.896 83.7411 492.28 83.4946 492.704 83.3381C493.128 83.1815 493.58 83.1185 494.03 83.1534C494.96 83.1408 495.86 83.4803 496.55 84.1037C497.239 84.7271 497.668 85.5883 497.749 86.5145C497.61 87.417 497.165 88.2441 496.487 88.8564C495.81 89.4686 494.942 89.8286 494.03 89.8756ZM490.669 112.599V92.4858H497.034V112.599H490.669Z" fill="white"/>
<path d="M510.05 112.974C504.454 112.974 500.36 108.88 500.36 102.533C500.36 96.1861 504.454 92.1099 510.05 92.1099C515.646 92.1099 519.74 96.204 519.74 102.533C519.74 108.862 515.646 112.974 510.05 112.974ZM510.05 96.8834C507.815 96.8834 506.313 99.1181 506.313 102.104C506.313 105.447 507.815 107.682 510.05 107.682C512.284 107.682 513.768 105.447 513.768 102.104C513.768 99.1896 512.284 96.9549 510.05 96.9549V96.8834Z" fill="white"/>
<path d="M532.416 112.596V84.2773H539.567V112.596H532.416Z" fill="white"/>
<path d="M554.031 112.596H544.698V84.2773H554.388C560.735 84.2773 564.078 86.8876 564.078 91.7326C564.058 93.0178 563.659 94.2685 562.931 95.3276C562.202 96.3868 561.177 97.2072 559.984 97.686C562.97 98.8124 565.205 100.672 565.205 104.408C565.205 109.986 561.111 112.596 554.031 112.596ZM554.031 89.1223H551.421V95.4512H553.655C556.266 95.4512 557.75 94.3428 557.75 92.108C557.821 90.6062 556.641 89.1223 554.031 89.1223ZM554.031 100.296H551.421V107.751H554.031C556.999 107.751 558.5 106.643 558.5 104.033C558.5 101.423 556.999 100.296 554.031 100.296Z" fill="white"/>
<path d="M593.899 112.596L592.772 93.5919L587.57 112.596H580.848L575.699 93.5919L574.572 112.596H568.547L570.782 84.2773H579.721L585.317 103.657L590.895 84.2773H599.834L602.069 112.596H593.899Z" fill="white"/>
<path d="M627.813 111.846L620.662 112.972L614.315 102.906H612.527V112.596H605.376V84.2773H615.441C622.146 84.2773 626.168 87.263 626.168 93.2165C626.228 94.9514 625.761 96.6638 624.829 98.1284C623.898 99.5931 622.544 100.741 620.948 101.423L627.813 111.846ZM614.762 89.4978H612.527V97.686H614.762C617.747 97.686 619.607 96.2021 619.607 93.5919C619.607 90.9817 617.747 89.4978 614.762 89.4978Z" fill="white"/>
<path d="M2 47.2567V55.1522C4.79889 55.1522 6.88889 55.9222 7.85444 57.45C8.88111 58.6722 9.38222 62.0333 9.38222 67.3867V92.5644C9.38222 97.6611 8.88111 100.973 7.85444 102.501C6.84 103.723 4.79889 104.542 2 104.799V112.731H33.8389V104.787C30.7833 104.787 28.95 104.017 27.9844 102.489C27.0189 100.961 26.4567 97.9544 26.4567 92.5644V67.3867C26.4567 62.2941 26.9659 58.9819 27.9844 57.45C28.9989 55.9222 31.04 55.4089 33.8389 55.1522V47.2567H2ZM64.92 102.794C63.6978 101.572 63.1478 98.9689 63.1478 95.1556V82.4078H74.3556C77.2654 82.4366 80.1018 83.3253 82.5078 84.9622C83.6115 85.9498 84.4814 87.1708 85.0543 88.5365C85.6272 89.9022 85.8888 91.3784 85.82 92.8578C85.8737 94.5222 85.5317 96.1755 84.822 97.682C84.1124 99.1884 83.0553 100.505 81.7378 101.523C79.7048 103.335 77.1222 104.411 74.4044 104.579C73.4006 104.791 72.3741 104.877 71.3489 104.836C68.2811 104.836 66.2522 104.066 64.9689 102.794M63.1478 63.3044C63.1478 59.7356 63.6489 57.45 64.6756 56.4233C65.7022 55.3967 67.9878 54.8956 71.3 54.8956C72.3252 54.8538 73.3517 54.94 74.3556 55.1522C76.5782 55.282 78.7091 56.0833 80.4667 57.45C81.5089 58.3181 82.343 59.4089 82.9078 60.6421C83.4726 61.8752 83.7535 63.2194 83.73 64.5756C83.7775 65.9052 83.5008 67.2264 82.9237 68.4252C82.3467 69.624 81.4866 70.6644 80.4178 71.4567C78.658 72.8194 76.5283 73.6201 74.3067 73.7544C73.5367 73.7544 72.5222 74.0111 71.4956 74.0111H63.1478V63.3044ZM38.9356 47.2567V55.1522C41.9911 55.4089 44.0322 55.9222 45.0467 57.45C46.057 58.7211 46.5663 62.0333 46.5744 67.3867V92.5644C46.5744 97.6652 46.0652 100.977 45.0467 102.501C44.02 104.029 41.9789 104.542 38.9356 104.799V112.731H74.6122C79.5685 112.897 84.5273 112.487 89.3889 111.509C92.26 110.729 94.8876 109.237 97.0278 107.17C98.8969 105.371 100.37 103.202 101.354 100.802C102.353 98.3786 102.871 95.7844 102.882 93.1633C102.968 89.6867 101.893 86.2807 99.8267 83.4833C97.4815 80.6587 94.3963 78.5427 90.9167 77.3722C93.5036 75.8914 95.7585 73.8945 97.5411 71.5056C99.0057 69.2167 99.7311 66.5328 99.6189 63.8178C99.5676 60.976 98.8563 58.1852 97.5411 55.6656C96.1959 53.2468 94.1509 51.2913 91.6745 50.0556C89.4185 48.952 87.0141 48.1821 84.5367 47.77C82.2511 47.5133 78.9389 47.2567 74.8567 47H38.9356V47.2567ZM162.759 47.2567L149.51 87.26L135.748 47.2567H108.492V55.1522C111.548 55.4089 113.589 55.9222 114.603 57.45C115.63 58.6722 116.131 62.0333 116.131 67.3867V92.5644C116.131 97.6611 115.63 100.973 114.603 102.501C113.577 104.029 111.548 104.542 108.492 104.799V112.731H133.719V104.787H133.462C130.407 104.787 128.109 104.017 127.094 102.746C126.068 101.218 125.567 97.8567 125.567 92.8089V62.7911L142.678 112.731H151.6L167.904 62.7911V92.8578C167.904 98.2111 167.395 101.523 166.377 102.794C165.35 104.017 163.064 104.836 160.009 104.836H159.239V112.731H192.874V104.787H192.104C189.049 104.787 186.751 104.017 185.737 102.746C184.722 101.218 183.952 97.8567 183.952 92.8089V67.6311C183.952 62.29 184.466 58.9778 185.737 57.6944C186.751 56.1667 189.049 55.6656 192.104 55.6656H192.874V47.77H162.808L162.759 47.2567ZM221.609 75.5389H220.387V63.5611C220.387 59.9922 220.9 57.9511 221.914 56.68C222.929 55.6656 224.713 55.1522 227.524 55.1522C228.55 55.1105 229.576 55.1967 230.58 55.4089C232.97 55.6726 235.252 56.5482 237.204 57.9511C238.336 58.818 239.248 59.9391 239.866 61.2237C240.483 62.5083 240.79 63.9204 240.761 65.3456C240.811 66.8726 240.456 68.3858 239.733 69.7316C239.01 71.0774 237.943 72.208 236.642 73.0089C234.828 74.032 232.845 74.7232 230.788 75.05C228.507 75.3675 226.209 75.539 223.907 75.5633H221.609M195.881 47.2567V55.1522C198.937 55.4089 200.978 55.9222 201.992 57.45C203.003 58.7211 203.508 62.0333 203.508 67.3867V92.5644C203.508 97.6652 202.999 100.977 201.98 102.501C200.966 104.029 198.924 104.542 195.869 104.799V112.731H227.708V104.787C224.652 104.787 222.819 104.017 221.597 102.489C220.582 100.961 220.069 97.9056 220.069 92.5522V84.4489H225.679L230.262 90.8167L245.564 112.731H265.682V104.787C263.822 104.616 262.01 104.098 260.341 103.259C258.446 102.145 256.865 100.568 255.746 98.6756L243.267 82.4078C248.156 80.88 251.676 78.8511 253.961 75.7833C256.379 72.7532 257.644 68.9637 257.53 65.0889C257.53 59.2344 255.489 54.6389 251.162 51.84C246.836 48.7844 240.468 47.5133 231.802 47.5133H195.881V47.2567Z" fill="white"/>
</svg>
