<svg width="629" height="160" viewBox="0 0 629 160" fill="none" xmlns="http://www.w3.org/2000/svg">
<g clip-path="url(#clip0_361_209)">
<path d="M236.568 40.8633H241.585L249.812 63.0753H244.689L242.961 57.9623H235.051L233.323 63.0753H228.271L236.568 40.8633ZM236.145 54.3982H241.797L240.774 51.4413C240.448 50.526 240.139 49.602 239.857 48.678C239.575 47.7539 239.301 46.8123 239.046 45.8795H238.975C238.719 46.7771 238.429 47.6835 238.129 48.6076C237.82 49.5404 237.503 50.482 237.176 51.4413L236.154 54.3982H236.145Z" fill="white"/>
<path d="M297.972 59.7224C299.057 59.7224 299.974 59.6256 300.723 59.4408C301.473 59.256 302.125 58.992 302.663 58.6663L303.65 62.1953C303.086 62.5209 302.284 62.8201 301.252 63.0753C300.212 63.3305 298.96 63.4625 297.469 63.4625C295.794 63.4625 294.26 63.1985 292.84 62.6705C291.43 62.1425 290.213 61.3768 289.181 60.3824C288.158 59.388 287.365 58.1735 286.801 56.7479C286.236 55.3222 285.954 53.7206 285.954 51.9341C285.954 50.1476 286.227 48.6164 286.783 47.2083C287.338 45.8003 288.114 44.5946 289.111 43.5914C290.107 42.597 291.333 41.8225 292.761 41.2857C294.198 40.7489 295.803 40.4761 297.567 40.4761C299.074 40.4761 300.318 40.6169 301.287 40.8985C302.266 41.1801 303.06 41.4881 303.668 41.8137L302.575 45.3779C301.966 45.0522 301.287 44.7706 300.547 44.5506C299.806 44.3306 298.977 44.2162 298.06 44.2162C297.099 44.2162 296.191 44.357 295.345 44.6386C294.498 44.9202 293.757 45.3691 293.123 45.9939C292.488 46.6187 291.985 47.4195 291.624 48.3876C291.262 49.3644 291.077 50.5436 291.077 51.9341C291.077 53.3245 291.253 54.4334 291.606 55.4102C291.959 56.3871 292.452 57.1879 293.07 57.8215C293.696 58.4551 294.419 58.9304 295.256 59.2472C296.094 59.564 296.993 59.7224 297.954 59.7224H297.972Z" fill="white"/>
<path d="M339.845 40.6699H344.686V53.9584C344.686 55.7889 345.056 57.1793 345.797 58.1386C346.538 59.089 347.684 59.5642 349.236 59.5642C350.787 59.5642 351.872 59.0802 352.56 58.121C353.248 57.1617 353.583 55.9121 353.583 54.3808V40.6699H358.423V54.0288C358.423 57.1353 357.656 59.4498 356.113 60.9723C354.57 62.5035 352.278 63.2604 349.244 63.2604C346.211 63.2604 344.025 62.4947 342.358 60.9723C340.683 59.441 339.854 57.0737 339.854 53.8528V40.6699H339.845Z" fill="white"/>
<path d="M394.574 40.8633H399.415V59.2648H408.382V63.0753H394.574V40.8633Z" fill="white"/>
<path d="M452.301 40.8633C454.021 40.8633 455.59 41.0833 457.001 41.5321C458.412 41.9809 459.628 42.6497 460.642 43.5386C461.656 44.4362 462.441 45.5451 462.988 46.8651C463.543 48.194 463.817 49.734 463.817 51.5029C463.817 53.5269 463.49 55.2606 462.829 56.7039C462.168 58.1471 461.277 59.344 460.149 60.3032C459.02 61.2536 457.697 61.9577 456.172 62.3977C454.655 62.8465 453.042 63.0665 451.349 63.0665H444.533V40.8633H452.301ZM449.374 59.3352H451.032C452.019 59.3352 452.98 59.212 453.906 58.9655C454.832 58.7191 455.652 58.2967 456.357 57.6983C457.063 57.0999 457.627 56.299 458.05 55.3046C458.473 54.3102 458.685 53.0429 458.685 51.5117C458.685 49.2764 458.05 47.5691 456.78 46.3811C455.511 45.193 453.8 44.6034 451.658 44.6034H449.365V59.3352H449.374Z" fill="white"/>
<path d="M508.265 40.8633H513.282L521.508 63.0753H516.385L514.657 57.9623H506.748L505.02 63.0753H499.968L508.265 40.8633ZM507.841 54.3982H513.493L512.47 51.4413C512.144 50.526 511.836 49.602 511.553 48.678C511.271 47.7539 510.998 46.8123 510.742 45.8795H510.672C510.416 46.7771 510.125 47.6835 509.825 48.6076C509.517 49.5404 509.199 50.482 508.873 51.4413L507.85 54.3982H507.841Z" fill="white"/>
<path d="M565.427 40.8633C567.147 40.8633 568.716 41.0833 570.127 41.5321C571.538 41.9809 572.754 42.6497 573.768 43.5386C574.782 44.4362 575.567 45.5451 576.114 46.8651C576.669 48.194 576.943 49.734 576.943 51.5029C576.943 53.5269 576.616 55.2606 575.955 56.7039C575.294 58.1471 574.403 59.344 573.275 60.3032C572.146 61.2624 570.823 61.9577 569.298 62.3977C567.781 62.8465 566.168 63.0665 564.475 63.0665H557.659V40.8633H565.427ZM562.5 59.3352H564.158C565.145 59.3352 566.106 59.212 567.032 58.9655C567.958 58.7191 568.778 58.2967 569.483 57.6983C570.189 57.0999 570.753 56.299 571.176 55.3046C571.599 54.3102 571.811 53.0429 571.811 51.5117C571.811 49.2764 571.176 47.5691 569.906 46.3811C568.637 45.193 566.926 44.6034 564.784 44.6034H562.491V59.3352H562.5Z" fill="white"/>
<path d="M177.986 63.0753H182.827V54.1958H191.336V50.4908H182.827V44.6034H192.112V40.8633H177.986V63.0753Z" fill="white"/>
<path d="M617.934 59.3352V53.3773H626.655V49.6812H617.934V44.6034H627.572V40.8633H613.094V63.0753H627.678V59.3352H617.934Z" fill="white"/>
<path d="M219.683 82.1191H207.939L202.26 100.811C202.058 101.55 201.828 102.369 201.581 103.266L201.546 103.381C201.29 104.322 201.035 105.29 200.77 106.276C200.515 107.262 200.276 108.221 200.065 109.145C199.968 109.576 199.871 109.981 199.792 110.359C199.703 109.937 199.606 109.497 199.501 109.048C199.289 108.15 199.051 107.226 198.786 106.276C198.531 105.334 198.257 104.384 197.984 103.442C197.702 102.501 197.437 101.621 197.182 100.802L191.309 82.1191H179.565L176.646 122.9L176.62 123.296H185.534L186.327 110.051C186.416 108.723 186.486 107.253 186.557 105.642L186.751 100.732C186.812 99.0598 186.865 97.3789 186.909 95.6892C186.927 94.8972 186.945 94.1228 186.954 93.3572C187.244 94.6772 187.588 96.1117 187.976 97.6605C188.62 100.221 189.308 102.694 190.04 105L195.894 123.041L195.982 123.296H203.336L209.138 105.062C209.737 103.143 210.381 100.864 211.042 98.3029C211.51 96.4813 211.959 94.7212 212.365 93.0403L212.4 96.1029C212.488 100.6 212.656 105.141 212.912 109.594L213.705 123.296H222.752L219.701 82.4624L219.675 82.1191H219.683Z" fill="white"/>
<path d="M238.482 82.1191H228.933V123.296H238.482V82.1191Z" fill="white"/>
<path d="M255.913 82.1191H246.364V123.296H272.252V115.622H255.913V82.1191Z" fill="white"/>
<path d="M298.105 82.1191H265.913V89.7842H277.102V123.296H286.66V89.7842H298.105V82.1191Z" fill="white"/>
<path d="M332.73 87.0033C330.94 85.1992 328.78 83.7999 326.293 82.8407C323.816 81.8903 321.091 81.4062 318.182 81.4062C315.272 81.4062 312.539 81.8991 310.043 82.8759C307.539 83.8527 305.344 85.2872 303.518 87.1353C301.693 88.9833 300.238 91.245 299.189 93.8675C298.149 96.49 297.62 99.4821 297.62 102.765C297.62 106.047 298.14 109.171 299.154 111.785C300.177 114.416 301.596 116.66 303.386 118.456C305.176 120.26 307.336 121.65 309.823 122.583C312.3 123.516 315.025 123.991 317.926 123.991C320.827 123.991 323.569 123.498 326.064 122.521C328.568 121.545 330.764 120.119 332.589 118.297C334.414 116.476 335.878 114.231 336.918 111.627C337.959 109.03 338.488 106.047 338.488 102.756C338.488 99.4645 337.968 96.3404 336.954 93.7003C335.931 91.0514 334.502 88.7985 332.721 86.9945L332.73 87.0033ZM322.185 115.745C319.636 116.872 316.594 116.836 314.126 115.745C312.874 115.191 311.763 114.346 310.819 113.211C309.867 112.075 309.1 110.632 308.544 108.907C307.98 107.174 307.698 105.114 307.698 102.765C307.698 100.415 307.971 98.3381 308.518 96.5868C309.056 94.8443 309.796 93.3835 310.705 92.2482C311.604 91.1218 312.688 90.2594 313.914 89.6874C315.148 89.1153 316.497 88.8249 317.935 88.8249C319.372 88.8249 320.747 89.0977 321.999 89.6258C323.243 90.1538 324.354 90.9986 325.306 92.125C326.258 93.2603 327.025 94.7211 327.581 96.4636C328.145 98.2149 328.436 100.336 328.436 102.773C328.436 105.211 328.163 107.191 327.616 108.925C327.078 110.65 326.338 112.093 325.429 113.237C324.53 114.363 323.437 115.208 322.193 115.763L322.185 115.745Z" fill="white"/>
<path d="M369.198 102.994C369.198 105.211 369.286 107.464 369.454 109.708C369.172 109.171 368.837 108.564 368.449 107.886C367.655 106.496 366.773 105.053 365.83 103.601L351.872 82.2863L351.766 82.1191H343.152V123.296H352.128V110.667C352.128 107.842 352.119 105.07 352.093 102.351C352.075 100.16 351.996 97.8805 351.855 95.5484C351.89 95.6276 351.934 95.7068 351.969 95.786C352.331 96.4989 352.754 97.2821 353.23 98.1357C353.706 98.9982 354.209 99.887 354.747 100.811C355.276 101.717 355.831 102.624 356.395 103.495L369.498 123.305H378.104V82.1279H369.198V103.002V102.994Z" fill="white"/>
<path d="M427.842 114.583C426.89 115.155 425.735 115.622 424.403 115.956C423.072 116.291 421.414 116.458 419.475 116.458C417.764 116.458 416.159 116.176 414.687 115.613C413.223 115.059 411.927 114.214 410.834 113.096C409.74 111.987 408.867 110.553 408.25 108.837C407.624 107.112 407.307 105.026 407.307 102.641C407.307 100.257 407.633 98.0477 408.277 96.3228C408.92 94.6067 409.811 93.1811 410.922 92.0898C412.033 90.9986 413.347 90.1978 414.828 89.7049C416.327 89.2033 417.958 88.9569 419.66 88.9569C421.361 88.9569 422.781 89.1593 424.086 89.5553C425.409 89.9514 426.625 90.453 427.719 91.0338L428.116 91.245L430.329 84.0375L430.064 83.8967C428.936 83.2895 427.445 82.7175 425.655 82.1983C423.848 81.679 421.538 81.415 418.769 81.415C415.524 81.415 412.535 81.9167 409.89 82.9111C407.236 83.9055 404.952 85.3576 403.101 87.1969C401.249 89.0449 399.794 91.2978 398.772 93.9027C397.749 96.4988 397.237 99.4381 397.237 102.641C397.237 105.845 397.766 108.925 398.807 111.539C399.847 114.161 401.337 116.432 403.233 118.28C405.129 120.128 407.412 121.553 410.022 122.53C412.623 123.507 415.507 124 418.575 124C421.291 124 423.636 123.762 425.55 123.287C427.463 122.812 428.962 122.257 430.02 121.641L430.267 121.501L428.257 114.337L427.842 114.592V114.583Z" fill="white"/>
<path d="M455.37 82.1191H445.724L430.338 123.296H440.336L443.484 113.985H457.354L460.502 123.296H470.624L455.449 82.3567L455.361 82.1191H455.37ZM449.163 96.6925C449.612 95.3372 450.027 94.0084 450.406 92.7235C450.785 94.0788 451.191 95.4516 451.605 96.8157C452.125 98.5317 452.69 100.239 453.28 101.867L454.973 106.769H445.724L447.417 101.867C448.016 100.116 448.598 98.3909 449.154 96.6925H449.163Z" fill="white"/>
<path d="M515.971 82.1191H504.226L498.548 100.811C498.345 101.55 498.116 102.369 497.869 103.266L497.834 103.381C497.578 104.322 497.323 105.29 497.058 106.276C496.802 107.262 496.564 108.221 496.353 109.145C496.256 109.576 496.159 109.981 496.079 110.359C495.991 109.937 495.894 109.497 495.788 109.048C495.577 108.15 495.339 107.226 495.074 106.276C494.818 105.334 494.545 104.384 494.272 103.442C493.99 102.501 493.725 101.621 493.469 100.802L487.597 82.1191H475.852L472.934 122.9L472.907 123.296H481.822L482.615 110.051C482.703 108.723 482.774 107.253 482.845 105.642L483.039 100.732C483.1 99.0598 483.153 97.3789 483.197 95.6892C483.215 94.8972 483.233 94.1228 483.241 93.3572C483.532 94.6772 483.876 96.1117 484.264 97.6605C484.908 100.221 485.596 102.694 486.327 105L492.182 123.041L492.27 123.296H499.624L505.426 105.062C506.025 103.143 506.669 100.864 507.33 98.3029C507.798 96.4813 508.247 94.7212 508.653 93.0403L508.688 96.1029C508.776 100.6 508.944 105.141 509.199 109.594L509.993 123.296H519.04L515.989 82.4624L515.962 82.1191H515.971Z" fill="white"/>
<path d="M554.547 89.485C553.797 87.9186 552.713 86.5721 551.32 85.4721C549.935 84.3808 548.251 83.536 546.303 82.964C544.363 82.4008 542.176 82.1191 539.796 82.1191H525.212V123.296H534.761V108.599H539.02C541.268 108.599 543.428 108.327 545.421 107.781C547.431 107.235 549.212 106.399 550.72 105.282C552.237 104.164 553.454 102.729 554.335 101.013C555.217 99.2974 555.658 97.2381 555.658 94.8796C555.658 92.8643 555.279 91.0515 554.529 89.485H554.547ZM534.778 89.529H538.72C540.818 89.529 542.564 90.0042 543.913 90.9371C545.236 91.8611 545.879 93.2691 545.879 95.258C545.879 96.3933 545.677 97.3349 545.28 98.0653C544.883 98.7958 544.328 99.403 543.631 99.8606C542.926 100.327 542.088 100.653 541.127 100.837C540.148 101.022 539.099 101.119 538.014 101.119H534.787V89.5378L534.778 89.529Z" fill="white"/>
<path d="M590.301 87.0033C588.511 85.1992 586.351 83.7999 583.864 82.8407C581.387 81.8903 578.662 81.4062 575.752 81.4062C572.843 81.4062 570.109 81.8991 567.614 82.8759C565.11 83.8527 562.914 85.2872 561.089 87.1353C559.264 88.9833 557.809 91.245 556.76 93.8675C555.719 96.49 555.19 99.4821 555.19 102.765C555.19 106.047 555.711 109.171 556.725 111.785C557.747 114.416 559.167 116.66 560.957 118.456C562.747 120.26 564.907 121.65 567.394 122.583C569.871 123.516 572.596 123.991 575.497 123.991C578.398 123.991 581.14 123.498 583.635 122.521C586.139 121.545 588.335 120.119 590.16 118.297C591.985 116.476 593.449 114.231 594.489 111.627C595.53 109.03 596.059 106.047 596.059 102.756C596.059 99.4645 595.538 96.3404 594.524 93.7003C593.502 91.0514 592.073 88.7985 590.292 86.9945L590.301 87.0033ZM579.755 115.745C577.207 116.872 574.165 116.836 571.696 115.745C570.444 115.191 569.333 114.346 568.39 113.211C567.438 112.075 566.671 110.632 566.115 108.907C565.551 107.174 565.269 105.114 565.269 102.765C565.269 100.415 565.542 98.3381 566.089 96.5868C566.627 94.8443 567.367 93.3835 568.275 92.2482C569.175 91.1218 570.259 90.2594 571.485 89.6874C572.719 89.1153 574.068 88.8249 575.506 88.8249C576.943 88.8249 578.318 89.0977 579.57 89.6258C580.814 90.1538 581.925 90.9986 582.877 92.125C583.829 93.2603 584.596 94.7211 585.152 96.4636C585.716 98.2149 586.007 100.336 586.007 102.773C586.007 105.211 585.734 107.191 585.187 108.925C584.649 110.65 583.908 112.093 583 113.237C582.101 114.363 581.008 115.208 579.764 115.763L579.755 115.745Z" fill="white"/>
<path d="M626.161 103.803C624.301 101.797 621.708 100.23 618.446 99.1477L614.584 97.9244C612.45 97.2556 610.881 96.5604 609.937 95.8652C609.047 95.2051 608.606 94.2547 608.606 92.9523C608.606 91.6498 609.108 90.7258 610.158 89.9778C611.224 89.2121 612.768 88.8249 614.734 88.8249C616.233 88.8249 617.802 89.0449 619.398 89.4849C620.994 89.925 622.678 90.5762 624.415 91.421L624.803 91.6146L627.007 84.3543L626.734 84.2135C625.129 83.3951 623.287 82.7087 621.25 82.1983C619.213 81.679 616.85 81.415 614.214 81.415C611.789 81.415 609.593 81.723 607.698 82.3303C605.793 82.9463 604.171 83.8087 602.874 84.9C601.57 86 600.573 87.3289 599.912 88.8513C599.251 90.365 598.916 92.0458 598.916 93.8411C598.916 95.5044 599.171 96.9916 599.683 98.2501C600.185 99.5085 600.908 100.617 601.816 101.55C602.716 102.474 603.818 103.293 605.088 103.988C606.34 104.683 607.75 105.29 609.267 105.81L612.688 106.971C614.072 107.394 615.21 107.825 616.065 108.265C616.912 108.696 617.591 109.136 618.084 109.558C618.552 109.972 618.878 110.395 619.045 110.826C619.222 111.275 619.31 111.732 619.31 112.199C619.31 113.58 618.79 114.627 617.723 115.393C616.638 116.176 614.981 116.572 612.794 116.572C610.907 116.572 609.082 116.326 607.363 115.851C605.634 115.367 603.836 114.671 602.019 113.791L601.631 113.598L599.418 120.858L599.7 120.999C603.765 122.988 608.297 123.991 613.173 123.991C615.774 123.991 618.084 123.657 620.042 123.005C621.999 122.354 623.675 121.439 624.988 120.304C626.311 119.16 627.316 117.796 627.977 116.256C628.639 114.715 628.974 113.052 628.974 111.292C628.974 108.344 628.021 105.818 626.143 103.785L626.161 103.803Z" fill="white"/>
<path d="M76.79 66.4811C84.9467 66.4811 91.559 59.8815 91.559 51.7405C91.559 43.5996 84.9467 37 76.79 37C68.6333 37 62.021 43.5996 62.021 51.7405C62.021 59.8815 68.6333 66.4811 76.79 66.4811Z" fill="white"/>
<path d="M74.8497 122.68L23.1979 69.8955C22.6865 69.3763 21.9811 69.0771 21.2493 69.0771H2.84757C1.34862 69.0771 0.131836 67.8626 0.131836 66.3666V49.3292C0.131836 47.8331 1.34862 46.6187 2.84757 46.6187H30.7367C31.4685 46.6187 32.1739 46.9091 32.6853 47.4371L74.8497 90.5323C75.9166 91.6235 77.6712 91.6235 78.7381 90.5323L120.902 47.4371C121.414 46.9179 122.119 46.6187 122.851 46.6187H150.74C152.239 46.6187 153.456 47.8331 153.456 49.3292V66.3754C153.456 67.8714 152.239 69.0859 150.74 69.0859H132.33C131.598 69.0859 130.892 69.3763 130.381 69.9043L78.7293 122.689C77.6624 123.78 75.9077 123.78 74.8409 122.689L74.8497 122.68Z" fill="white"/>
<path d="M19.7948 76.8916H2.71573C1.21587 76.8916 0 78.1051 0 79.6021V120.55C0 122.047 1.21587 123.261 2.71573 123.261H19.7948C21.2947 123.261 22.5106 122.047 22.5106 120.55V79.6021C22.5106 78.1051 21.2947 76.8916 19.7948 76.8916Z" fill="white"/>
<path d="M150.529 76.8916H133.45C131.95 76.8916 130.734 78.1051 130.734 79.6021V120.55C130.734 122.047 131.95 123.261 133.45 123.261H150.529C152.029 123.261 153.245 122.047 153.245 120.55V79.6021C153.245 78.1051 152.029 76.8916 150.529 76.8916Z" fill="white"/>
</g>
<defs>
<clipPath id="clip0_361_209">
<rect width="629" height="87" fill="white" transform="translate(0 37)"/>
</clipPath>
</defs>
</svg>
