<svg width="629" height="160" viewBox="0 0 629 160" fill="none" xmlns="http://www.w3.org/2000/svg">
<path d="M534.236 0C524.376 0 517.996 0.386667 512.969 1.16C500.789 2.9 491.123 25.52 496.729 29.7733C498.276 30.9333 500.983 30.74 504.849 29.9667C510.843 28.8067 521.476 27.26 536.169 27.26C557.436 27.26 571.356 31.5133 571.356 50.6533V65.7333H538.489C501.176 65.7333 477.783 77.72 477.783 112.133C477.783 144.807 499.629 159.5 538.296 159.5C582.376 159.5 601.709 144.033 601.709 110.2V50.46C601.709 11.9867 574.449 0 534.236 0ZM571.163 108.653C571.163 129.533 556.856 132.627 537.523 132.627C522.249 132.627 508.329 129.533 508.329 111.36C508.329 95.7 518.189 89.5133 538.489 89.5133H571.356V108.653H571.163Z" fill="white"/>
<path d="M151.823 98.4072C151.823 136.881 172.509 159.114 218.329 159.114H218.716C264.343 158.921 285.223 136.881 285.223 98.4072V26.8739C285.223 14.8872 275.363 5.02719 263.376 5.02719H258.349C255.836 5.02719 253.709 7.15386 253.709 9.66719V98.4072C253.709 118.127 247.329 129.147 218.716 129.147C190.103 129.147 183.723 118.127 183.723 98.4072V26.6805C183.723 16.8205 176.956 8.50719 167.869 5.80053C163.809 4.64053 156.849 4.83386 156.849 4.83386C154.336 4.83386 152.209 6.96053 152.209 9.47386V98.4072H151.823Z" fill="white"/>
<path d="M449.169 61.0939C449.169 22.6205 428.482 0.387207 382.662 0.387207H382.276C336.649 0.58054 315.769 22.6205 315.769 61.0939V137.267C315.769 149.254 325.629 159.114 337.616 159.114H342.642C345.156 159.114 347.282 156.987 347.282 154.474V61.0939C347.282 41.3739 353.662 30.3539 382.276 30.3539C410.889 30.3539 417.269 41.3739 417.269 61.0939V137.267C417.269 147.127 424.036 155.441 433.122 158.147C437.182 159.307 444.142 159.114 444.142 159.114C446.656 159.114 448.782 156.987 448.782 154.474V61.0939H449.169Z" fill="white"/>
<path d="M47.6158 159.5H33.3092C31.1825 159.5 29.0558 158.34 27.8958 156.407C26.7358 154.473 26.7358 152.153 27.7025 150.22L62.8892 81.3935L27.7025 14.1135C26.7358 12.1802 26.7358 9.86016 27.8958 7.92683C29.0558 5.9935 30.9892 4.8335 33.3092 4.8335H47.6158C61.5358 4.8335 71.5891 10.4402 78.1625 22.0402L111.996 79.8468C112.576 80.8135 112.576 81.9735 111.996 82.9402L78.7425 140.747C71.2025 153.507 61.3425 159.5 47.6158 159.5ZM33.1158 11.0202L69.0758 80.0402C69.4625 81.0068 69.4625 81.9735 69.0758 82.9402L32.9225 153.313H33.1158H47.4225C59.0225 153.313 66.7558 148.673 73.1358 137.653L105.616 81.3935L72.7491 25.1335C67.1425 15.4668 59.2158 11.0202 47.4225 11.0202H33.1158Z" fill="white"/>
</svg>
