<svg width="629" height="160" viewBox="0 0 629 160" fill="none" xmlns="http://www.w3.org/2000/svg">
<path d="M553.273 106.972H542.976C541.26 106.972 540.116 105.065 540.879 103.539L566.621 53.0091L540.879 3.43224C540.116 1.9068 541.26 0 542.976 0H553.273C562.807 0 569.1 3.8136 573.295 11.2501L597.702 52.8184L573.676 94.3867C569.1 102.395 563.189 106.972 553.273 106.972Z" fill="white"/>
<path d="M325.982 115.361V102.967V97.2468C325.982 80.0856 332.275 72.6491 352.296 72.6491C372.318 72.6491 378.229 80.0856 378.229 97.4375V115.361C378.229 132.713 372.89 139.959 352.296 139.959C331.703 139.959 325.982 132.523 325.982 115.361ZM304.817 91.7171V115.743C304.817 145.298 322.359 159.79 352.106 159.79C383.758 159.79 399.394 145.298 399.394 115.743V98.0095C399.394 68.0727 384.903 53.009 356.11 53.009C341.618 53.009 331.512 57.5853 325.982 66.3566V27.6486C325.982 21.1654 321.406 15.6357 315.495 13.7289C312.253 12.7755 308.058 13.1569 308.058 13.1569C306.342 13.1569 304.817 14.4916 304.817 16.2078V91.7171Z" fill="white"/>
<path d="M280.029 71.6963C280.029 64.6411 275.071 58.5394 268.588 56.6326C267.253 56.2512 265.728 56.0605 264.202 56.0605H260.579C258.672 56.0605 257.147 57.586 257.147 59.4928V143.964C257.147 151.019 262.105 157.121 268.588 159.028C269.923 159.409 271.448 159.6 272.973 159.6H276.596C278.503 159.6 280.029 158.074 280.029 156.168V71.6963Z" fill="white"/>
<path d="M31.572 118.794C31.572 144.726 45.4917 159.599 76.1912 159.599H76.3819C107.081 159.599 121.001 144.535 121.001 118.794V70.7421C121.001 62.5429 114.327 56.0598 106.319 56.0598H102.886C101.17 56.0598 99.6448 57.5852 99.6448 59.3013V118.984C99.6448 132.141 95.2592 139.578 76.0005 139.578C56.7418 139.578 52.3562 132.141 52.3562 118.984V70.7421C52.3562 64.0683 47.7798 58.5386 41.6781 56.6318C39.0086 55.8691 34.2416 56.0598 34.2416 56.0598C32.5254 56.0598 31 57.5852 31 59.3013V118.794H31.572Z" fill="white"/>
<path d="M232.359 93.8143C232.359 67.8818 218.439 53.0088 187.74 53.0088H187.549C156.849 53.0088 142.93 67.8818 142.93 93.8143V145.107C142.93 153.307 149.603 159.79 157.612 159.79H161.044C162.76 159.79 164.286 158.264 164.286 156.548V93.8143C164.286 80.6574 168.671 73.2209 187.93 73.2209C207.189 73.2209 211.575 80.6574 211.575 93.8143V145.107C211.575 151.781 216.151 157.311 222.253 159.218C224.922 159.98 229.689 159.79 229.689 159.79C231.405 159.79 232.931 158.264 232.931 156.548V93.8143H232.359Z" fill="white"/>
<path d="M515.518 98.0095C515.518 68.0727 501.027 53.009 472.234 53.009C457.742 53.009 447.636 57.5853 442.106 66.3566V27.6486C442.106 21.1654 437.53 15.6357 431.619 13.7289C428.377 12.7755 424.182 13.1569 424.182 13.1569C422.466 13.1569 420.941 14.4916 420.941 16.2078V144.917C420.941 153.116 427.615 159.599 435.623 159.599H438.865C440.581 159.599 442.106 158.074 442.106 156.358V97.2468C442.106 80.0856 448.399 72.6491 468.42 72.6491C488.442 72.6491 494.353 80.0856 494.353 97.4375V144.726C494.353 152.925 501.027 159.409 509.035 159.409H512.467C514.183 159.409 515.709 157.883 515.709 156.167L515.518 98.0095Z" fill="white"/>
</svg>
