<svg width="629" height="160" viewBox="0 0 629 160" fill="none" xmlns="http://www.w3.org/2000/svg">
<path d="M213.692 116.556C211.942 117.081 207.216 118.131 201.791 118.306C189.015 118.131 184.989 113.406 184.989 102.38V90.8289C184.989 79.803 189.015 75.0776 201.791 74.9026C207.216 75.0776 211.767 76.1277 213.692 76.6528C215.267 77.1778 216.492 77.1778 217.192 76.8278C219.467 74.7276 216.142 64.4018 210.892 63.3517C205.641 62.1266 202.316 62.3016 202.316 62.3016C181.314 62.3016 171.338 72.4524 171.338 91.0039V102.555C171.338 121.106 181.489 131.257 202.316 131.257C202.316 131.257 205.641 131.432 210.892 130.207C216.142 129.157 219.467 118.831 217.192 116.731C216.492 116.031 215.267 116.031 213.692 116.556Z" fill="white"/>
<path d="M451.536 87.1546V102.206C451.536 121.457 462.912 130.908 482.164 130.908C502.64 130.908 512.791 121.457 512.791 102.206V91.1799C512.791 71.7534 503.34 61.9526 484.789 61.9526C475.338 61.9526 468.863 64.9278 465.187 70.7033V44.9762C465.187 40.7759 462.212 37.1006 458.362 35.8755C456.261 35.1755 453.636 35.5255 453.636 35.5255C452.586 35.5255 451.536 36.4006 451.536 37.6257V87.1546ZM465.362 102.031V93.9802V90.8299C465.362 79.629 469.388 74.9036 482.514 74.9036C495.465 74.9036 499.315 79.804 499.315 91.0049V102.031C499.315 113.407 495.815 117.957 482.514 117.957C469.038 117.957 465.362 113.232 465.362 102.031Z" fill="white"/>
<path d="M158.912 73.6786C158.912 68.9533 155.762 65.103 151.387 63.8779C150.512 63.5278 149.462 63.5278 148.587 63.5278H146.311C145.086 63.5278 144.036 64.5779 144.036 65.803V120.757C144.036 125.483 147.186 129.333 151.562 130.558C152.437 130.908 153.487 130.908 154.362 130.908H156.637C157.862 130.908 158.912 129.858 158.912 128.633V73.6786Z" fill="white"/>
<path d="M363.154 73.6786C363.154 68.9533 360.004 65.103 355.628 63.8779C354.753 63.5278 353.703 63.5278 352.828 63.5278H350.553C349.328 63.5278 348.278 64.5779 348.278 65.803V120.757C348.278 125.483 351.428 129.333 355.803 130.558C356.679 130.908 357.729 130.908 358.604 130.908H360.879C362.104 130.908 363.154 129.858 363.154 128.633V73.6786Z" fill="white"/>
<path d="M0.175014 104.481C0.175014 121.282 9.27574 131.083 29.2273 131.083H29.4023C49.3539 131.083 58.4547 121.282 58.4547 104.481V73.1536C58.4547 67.9032 54.0793 63.5278 48.8289 63.5278H46.7287C45.6786 63.5278 44.6286 64.4029 44.6286 65.628V104.481C44.6286 113.057 41.8283 117.957 29.2273 117.957C16.6263 117.957 13.8261 113.232 13.8261 104.481V73.1536C13.8261 68.7783 10.8509 65.278 7.00056 64.0529C5.25042 63.5278 2.10017 63.7028 2.10017 63.7028C1.05008 63.7028 0 64.5779 0 65.803L0.175014 104.481Z" fill="white"/>
<path d="M228.218 104.481C228.218 121.282 237.319 131.083 257.27 131.083H257.445C277.397 131.083 286.498 121.282 286.498 104.481V73.1536C286.498 67.9032 282.122 63.5278 276.872 63.5278H274.772C273.722 63.5278 272.672 64.4029 272.672 65.628V104.481C272.672 113.057 269.871 117.957 257.27 117.957C244.669 117.957 241.869 113.232 241.869 104.481V73.1536C241.869 68.7783 238.894 65.278 235.044 64.0529C233.293 63.5278 230.143 63.7028 230.143 63.7028C229.093 63.7028 228.043 64.5779 228.043 65.803L228.218 104.481Z" fill="white"/>
<path d="M129.685 88.7296C129.685 71.9282 120.584 62.1274 100.633 62.1274H100.458C80.506 62.1274 71.4053 71.9282 71.4053 88.7296V121.457C71.4053 126.708 75.7806 131.083 81.031 131.083H83.1312C84.1813 131.083 85.2314 130.208 85.2314 128.983V88.7296C85.2314 80.1539 88.0316 75.2535 100.633 75.2535C113.234 75.2535 116.034 79.9789 116.034 88.7296V121.457C116.034 125.833 119.009 129.333 122.859 130.558C124.61 131.083 127.76 130.908 127.76 130.908C128.81 130.908 129.86 130.033 129.86 128.808V88.7296H129.685Z" fill="white"/>
<path d="M546.569 62.1279C542.369 62.1279 539.568 62.3029 537.293 62.653C532.043 63.353 527.843 73.1538 530.293 75.079C530.993 75.604 532.043 75.429 533.793 75.079C536.418 74.5539 540.969 73.8539 547.269 73.8539C556.37 73.8539 562.495 75.779 562.495 84.0047V90.4802H548.319C532.218 90.4802 521.892 95.7306 521.892 110.607C521.892 124.783 531.343 131.083 548.144 131.083C567.221 131.083 575.621 124.433 575.621 109.732V83.8297C575.796 67.2033 563.895 62.1279 546.569 62.1279ZM562.495 109.032C562.495 118.132 556.37 119.357 547.969 119.357C541.319 119.357 535.368 117.957 535.368 110.257C535.368 103.431 539.568 100.806 548.494 100.806H562.67V109.032H562.495Z" fill="white"/>
<path d="M600.998 95.2054H594.522C593.472 95.2054 592.772 93.9803 593.297 93.1052L609.574 61.2527L593.297 30.1002C592.772 29.0501 593.472 28 594.522 28H600.998C606.948 28 610.974 30.4502 613.599 35.1756L629 61.4277L613.949 87.6798C610.974 92.2301 607.298 95.2054 600.998 95.2054Z" fill="white"/>
<path d="M438.585 73.6786C438.585 68.9533 435.435 65.103 431.06 63.8779C430.184 63.5278 429.134 63.5278 428.259 63.5278H425.984C424.759 63.5278 423.709 64.5779 423.709 65.803V120.757C423.709 125.483 426.859 129.333 431.235 130.558C432.11 130.908 433.16 130.908 434.035 130.908H436.31C437.535 130.908 438.585 129.858 438.585 128.633V73.6786Z" fill="white"/>
<path d="M414.258 117.432C413.558 116.907 412.332 117.082 410.757 117.607C407.082 118.657 403.057 117.957 403.057 117.957C392.731 117.082 391.156 109.731 391.156 104.656V76.6536H408.307C409.532 76.6536 410.407 75.7786 410.407 74.5535C410.407 74.5535 410.582 72.1033 410.057 70.3531C408.832 66.3278 405.157 63.5276 400.957 63.5276H391.331V56.527C391.331 52.3267 388.356 48.6514 384.505 47.4263C382.405 46.7262 379.78 47.0763 379.78 47.0763C378.73 47.0763 377.68 47.9513 377.68 49.1764V104.831C377.68 119.882 384.855 131.083 400.607 131.083C404.632 131.083 406.382 130.908 408.132 130.208C412.682 128.458 416.533 119.532 414.258 117.432Z" fill="white"/>
<path d="M329.026 63.0025C329.026 63.0025 326.401 62.1274 323.776 62.1274C319.05 62.1274 314.675 64.0526 311 67.0278C309.25 64.2276 306.274 62.3025 302.774 62.3025H300.674C299.624 62.3025 298.574 63.1775 298.574 64.4026V88.5545C298.574 88.5545 298.574 88.5545 298.574 88.7296V121.457C298.574 126.708 302.949 131.083 308.199 131.083H310.3C311.35 131.083 312.4 130.208 312.4 128.983V90.8297V87.6795C312.575 79.6288 315.375 74.9035 323.951 74.9035C326.926 74.9035 330.776 75.9535 332.001 76.3036C333.577 76.8286 334.977 77.1786 335.502 76.4786C336.377 74.9035 333.401 64.4026 329.026 63.0025Z" fill="white"/>
</svg>
