<svg width="629" height="160" viewBox="0 0 629 160" fill="none" xmlns="http://www.w3.org/2000/svg">
<path d="M47.8774 137.052V124.067C55.6644 124.058 63.2077 121.35 69.2219 116.404C75.2362 111.458 79.3493 104.579 80.8604 96.94H47.8774V83.9546H94.4562V90.4473C94.4493 102.801 89.5405 114.647 80.8075 123.385C72.0746 132.123 60.2312 137.038 47.8774 137.052Z" fill="white"/>
<path d="M9.0898 50.7629L0 41.4783C12.7829 28.9517 29.9798 21.9554 47.8773 22.0002V34.9856C33.3778 34.9465 19.4451 40.6138 9.0898 50.7629Z" fill="white"/>
<path d="M14.2838 90.4728H1.29834C1.31209 78.1235 6.22389 66.284 14.9561 57.5518C23.6883 48.8196 35.5278 43.9078 47.877 43.894V56.8795C38.9718 56.8932 30.4352 60.4369 24.1382 66.7339C17.8412 73.0309 14.2975 81.5675 14.2838 90.4728Z" fill="white"/>
<path d="M128.504 36.3628H126.634V137.701H128.504V36.3628Z" fill="white"/>
<path d="M240.633 96.3029C240.761 102.622 239.785 108.914 237.75 114.898C236.034 119.883 233.246 124.431 229.583 128.221C226.033 131.812 221.718 134.555 216.961 136.246C211.689 138.095 206.133 139 200.547 138.921C195.008 138.994 189.5 138.088 184.276 136.246C179.53 134.555 175.216 131.837 171.642 128.286C167.994 124.563 165.206 120.087 163.474 115.171C161.459 109.393 160.483 103.304 160.591 97.1859V41.3486H171.408V96.5367C171.408 106.977 174.005 114.989 179.199 120.573C184.393 126.156 191.6 128.948 200.82 128.948C209.702 128.948 216.749 126.291 221.96 120.975C227.172 115.66 229.769 107.743 229.751 97.2249V41.3876H240.594L240.633 96.3029Z" fill="white"/>
<path d="M346.633 41.2446H357.203V137.35H348.555L286.498 58.5412V137.35H275.928V41.2446H286.082L346.633 118.274V41.2446Z" fill="white"/>
<path d="M405.808 41.2446H394.965V137.35H405.808V41.2446Z" fill="white"/>
<path d="M441.504 41.2446H514.677V60.4631H462.645V80.9281H508.496V100.147H462.645V137.35H441.504V41.2446Z" fill="white"/>
<path d="M536.921 89.5771V89.3044C536.921 62.035 558.204 39.5962 587.305 39.5962C604.601 39.5962 615.041 44.2709 625.066 52.7764L611.743 68.8394C604.328 62.6713 597.745 59.1003 586.616 59.1003C571.242 59.1003 559.022 72.683 559.022 88.9668V89.2395C559.022 106.809 571.112 119.716 588.136 119.716C595.212 119.929 602.175 117.912 608.042 113.951V100.29H586.759V82.0196H628.494V123.755C617.106 133.633 602.523 139.049 587.447 139C557.516 139 536.921 117.989 536.921 89.5771Z" fill="white"/>
</svg>
