<svg width="629" height="160" viewBox="0 0 629 160" fill="none" xmlns="http://www.w3.org/2000/svg">
<path d="M12.3698 79.567C12.9541 79.6059 13.5402 79.5275 14.0937 79.3362C14.8485 79.0557 15.5062 78.5631 15.9878 77.9178C16.4695 77.2724 16.7544 76.5017 16.8086 75.6983C17.6007 64.423 21.6436 53.6189 28.4479 44.5934C35.2523 35.5678 44.5265 28.7077 55.1483 24.8429C65.7702 20.9782 77.2844 20.2746 88.2978 22.8173C99.3112 25.3599 109.352 31.0399 117.204 39.1698C117.769 39.7475 118.487 40.1506 119.274 40.3312C120.061 40.5117 120.884 40.4619 121.643 40.1878C122.184 39.9808 122.678 39.6669 123.096 39.2648C123.887 38.4919 124.341 37.4378 124.358 36.3319C124.376 35.2261 123.956 34.1579 123.191 33.36C114.215 24.0845 102.746 17.6062 90.1685 14.7074C77.5911 11.8087 64.4434 12.6136 52.3135 17.0249C40.1835 21.4361 29.5903 29.2651 21.8132 39.5661C14.0361 49.8671 9.40788 62.1996 8.48752 75.0739C8.445 75.6243 8.51191 76.1777 8.68439 76.7021C8.85687 77.2265 9.1315 77.7116 9.49244 78.1293C9.85338 78.5471 10.2935 78.8892 10.7873 79.1359C11.2812 79.3827 11.819 79.5292 12.3698 79.567ZM53.0113 18.9576C64.7756 14.6896 77.5234 13.9155 89.7177 16.7287C101.912 19.5418 113.032 25.8221 121.738 34.8124C121.932 35.0054 122.086 35.2349 122.191 35.4877C122.297 35.7404 122.351 36.0115 122.351 36.2852C122.351 36.559 122.297 36.83 122.191 37.0828C122.086 37.3356 121.932 37.565 121.738 37.758C121.527 37.9661 121.272 38.1239 120.992 38.2196C120.614 38.3577 120.204 38.3838 119.811 38.2948C119.419 38.2057 119.06 38.0052 118.779 37.7173C110.648 29.2811 100.245 23.3842 88.8305 20.7414C77.4159 18.0985 65.4797 18.823 54.4686 22.8272C43.4575 26.8314 33.8441 33.9433 26.7935 43.301C19.7429 52.6587 15.5577 63.8606 14.7453 75.549C14.7166 75.9502 14.5734 76.3348 14.3329 76.6572C14.0923 76.9796 13.7643 77.2262 13.3878 77.3679C13.1089 77.4645 12.8139 77.506 12.5191 77.4901C11.9666 77.4485 11.4532 77.1891 11.0917 76.7692C10.7303 76.3492 10.5504 75.8029 10.5915 75.2503C11.4809 62.7759 15.9585 50.8248 23.4848 40.837C31.0112 30.8491 41.2652 23.2509 53.0113 18.9576Z" fill="white"/>
<path d="M137.946 78.4136C137.397 78.3869 136.848 78.47 136.331 78.6579C135.56 78.9458 134.891 79.4549 134.408 80.1214C133.925 80.7878 133.649 81.582 133.616 82.4044C133.106 93.9582 129.183 105.102 122.342 114.426C115.5 123.751 106.049 130.838 95.1806 134.793C84.3127 138.747 72.5163 139.391 61.2825 136.643C50.0487 133.895 39.8816 127.878 32.0663 119.354C31.7056 118.914 31.259 118.552 30.7538 118.291C30.2486 118.03 29.6954 117.874 29.1281 117.834C28.5607 117.794 27.9911 117.87 27.4542 118.058C26.9173 118.245 26.4243 118.541 26.0053 118.925C25.5864 119.31 25.2504 119.776 25.0178 120.295C24.7853 120.814 24.661 121.375 24.6528 121.944C24.6445 122.513 24.7524 123.077 24.9698 123.603C25.1872 124.128 25.5095 124.604 25.9171 125.001C34.8498 134.734 46.4668 141.602 59.3007 144.738C72.1346 147.873 85.6097 147.134 98.0242 142.616C110.439 138.097 121.236 130.001 129.051 119.349C136.867 108.698 141.351 95.9692 141.937 82.7709C141.985 81.6641 141.591 80.5835 140.843 79.7665C140.095 78.9495 139.053 78.4629 137.946 78.4136ZM97.3045 140.652C85.2807 145.05 72.2214 145.776 59.7842 142.738C47.3471 139.7 36.0931 133.035 27.451 123.589C27.078 123.181 26.8815 122.643 26.9044 122.091C26.9273 121.539 27.1677 121.019 27.5731 120.643C27.7796 120.456 28.0189 120.309 28.279 120.209C28.6678 120.07 29.0887 120.049 29.4894 120.148C29.89 120.247 30.2527 120.462 30.5324 120.765C38.6289 129.584 49.1565 135.805 60.7862 138.645C72.4158 141.485 84.6261 140.816 95.8757 136.722C107.125 132.628 116.91 125.292 123.994 115.642C131.078 105.992 135.144 94.4588 135.679 82.4994C135.694 82.0878 135.831 81.6899 136.073 81.3563C136.315 81.0227 136.65 80.7686 137.037 80.6262C137.297 80.5308 137.574 80.4892 137.851 80.504C138.401 80.5322 138.917 80.776 139.288 81.1826C139.659 81.5893 139.855 82.1259 139.833 82.6759C139.286 95.4659 134.952 107.805 127.38 118.127C119.808 128.45 109.34 136.29 97.3045 140.652Z" fill="white"/>
<path d="M31.3878 65.8703C31.1484 66.6167 31.1236 67.4153 31.3163 68.1751C31.5089 68.9348 31.9113 69.6251 32.4774 70.1672C33.0435 70.7093 33.7507 71.0813 34.5181 71.2408C35.2855 71.4003 36.0823 71.3409 36.8175 71.0693C37.4249 70.8468 37.972 70.4854 38.415 70.0141C38.8581 69.5427 39.1849 68.9744 39.3695 68.3544C41.1117 62.8745 44.0879 57.8673 48.0692 53.7182C52.0504 49.5692 56.9306 46.3889 62.334 44.4221C67.7374 42.4553 73.52 41.7545 79.2368 42.3735C84.9536 42.9926 90.4522 44.9151 95.3093 47.993C95.8446 48.34 96.4539 48.5564 97.0882 48.6248C97.7224 48.6932 98.3639 48.6116 98.9608 48.3866C99.8328 48.0805 100.575 47.487 101.065 46.7034C101.356 46.2358 101.552 45.7154 101.641 45.172C101.73 44.6285 101.711 44.0728 101.585 43.5368C101.459 43.0007 101.228 42.4948 100.906 42.0482C100.584 41.6016 100.176 41.2231 99.7074 40.9343C93.7694 37.1824 87.05 34.8422 80.0659 34.0936C73.0819 33.3451 66.0192 34.2082 59.4209 36.6165C52.8226 39.0248 46.8645 42.9142 42.0047 47.9856C37.1449 53.0571 33.5128 59.1755 31.3878 65.8703ZM60.1654 38.5859C66.4702 36.2715 73.2241 35.4435 79.9013 36.1663C86.5784 36.8891 92.9987 39.1433 98.6622 42.7533C99.1303 43.0518 99.4614 43.5232 99.5835 44.0647C99.7055 44.6063 99.6086 45.1742 99.3137 45.6446C99.1674 45.8762 98.9766 46.0766 98.7524 46.2341C98.5283 46.3917 98.2751 46.5033 98.0077 46.5626C97.7402 46.6219 97.4636 46.6277 97.1938 46.5796C96.9241 46.5316 96.6665 46.4306 96.436 46.2826C91.3092 43.034 85.5054 41.0048 79.4713 40.3512C73.4372 39.6976 67.3335 40.437 61.63 42.5126C55.9265 44.5881 50.7752 47.9445 46.5724 52.3233C42.3697 56.7022 39.2275 61.9869 37.3877 67.7707C37.2993 68.0827 37.1373 68.3689 36.9153 68.6051C36.6932 68.8414 36.4176 69.0208 36.1117 69.1282C35.6733 69.288 35.1926 69.288 34.7542 69.1282C34.2275 68.9599 33.7888 68.5897 33.5344 68.0986C33.28 67.6076 33.2305 67.0358 33.3968 66.5083C35.4115 60.1093 38.8748 54.2611 43.5175 49.4184C48.1601 44.5756 53.857 40.8687 60.1654 38.5859Z" fill="white"/>
<path d="M116.201 100.404C116.639 99.4212 116.682 98.3073 116.32 97.294C115.958 96.2806 115.22 95.4458 114.258 94.9632C113.296 94.4805 112.185 94.3873 111.157 94.7029C110.128 95.0184 109.26 95.7184 108.735 96.6573C104.451 105.243 97.038 111.858 88.0224 115.141C79.0069 118.424 69.0756 118.125 60.2744 114.304C59.2954 113.884 58.1928 113.855 57.193 114.222C56.6582 114.418 56.1684 114.719 55.7532 115.109C55.338 115.499 55.0058 115.968 54.7768 116.489C54.358 117.5 54.3523 118.635 54.7609 119.65C55.1695 120.666 55.9598 121.48 56.9622 121.919C67.7154 126.584 79.8465 126.953 90.8636 122.952C101.881 118.95 110.947 110.882 116.201 100.404ZM90.165 121.023C79.6476 124.862 68.0569 124.512 57.7903 120.046C57.2879 119.828 56.8919 119.42 56.6886 118.912C56.4852 118.403 56.4908 117.835 56.7043 117.331C56.8135 117.068 56.976 116.832 57.1817 116.635C57.3873 116.439 57.6316 116.288 57.8989 116.191C58.396 115.994 58.9492 115.994 59.4463 116.191C68.7346 120.223 79.2149 120.542 88.7315 117.083C98.248 113.624 106.077 106.649 110.608 97.5939C110.843 97.1124 111.257 96.7421 111.762 96.5622C112.16 96.412 112.595 96.3869 113.008 96.4904C113.42 96.5938 113.792 96.8208 114.072 97.1411C114.353 97.4613 114.529 97.8595 114.577 98.2825C114.625 98.7054 114.542 99.1329 114.341 99.5079C109.333 109.51 100.68 117.21 90.165 121.023Z" fill="white"/>
<path d="M163.778 39.3057H160.398V120.141H163.778V39.3057Z" fill="white"/>
<path d="M234.08 88.4723C234.08 94.3726 232.899 98.7073 230.537 101.476C228.175 104.246 223.894 105.63 217.695 105.63C214.792 105.757 211.897 105.247 209.212 104.137C207.31 103.32 205.647 102.033 204.379 100.397C203.111 98.7609 202.28 96.8297 201.963 94.7843C201.593 92.7007 201.407 90.5885 201.406 88.4723V39.2925H184.018V88.4723C184.018 99.2503 186.954 107.223 192.827 112.39C198.7 117.558 206.99 120.141 217.695 120.141C228.247 120.141 236.514 117.539 242.496 112.336C248.478 107.132 251.468 99.1779 251.468 88.4723V39.2925H234.08V88.4723Z" fill="white"/>
<path d="M312.091 92.3541H311.874L278.875 39.3057H261.595V118.376H277.87V65.4362H278.101L310.992 118.376H328.38V39.3057H312.091V92.3541Z" fill="white"/>
<path d="M355.896 39.3057H338.507V118.376H355.896V39.3057Z" fill="white"/>
<path d="M416.518 72.1963H383.397V53.9116H421.609V39.3057H366.008V118.376H383.397V85.7027H416.518V72.1963Z" fill="white"/>
<path d="M441.387 39.2925L411.523 118.363H429.021L435.224 100.716H464.789L470.775 118.363H488.816L459.21 39.2925H441.387ZM439.717 87.8071L450.02 58.7852H450.237L460.215 87.8071H439.717Z" fill="white"/>
<path d="M535.05 100.757C532.063 104.015 527.909 105.639 522.588 105.63C519.147 105.724 515.737 104.944 512.679 103.363C510.008 101.914 507.726 99.842 506.028 97.3226C504.3 94.7412 503.045 91.873 502.322 88.8522C501.542 85.6807 501.15 82.4262 501.154 79.1601C501.148 75.7686 501.54 72.3881 502.322 69.088C503.029 65.9943 504.284 63.0521 506.028 60.4004C507.713 57.8551 509.997 55.7623 512.679 54.3056C515.731 52.704 519.142 51.9096 522.588 51.9979C526.744 52.0035 530.771 53.4417 533.991 56.0702C535.525 57.3002 536.838 58.783 537.873 60.4547C538.902 62.1094 539.581 63.9573 539.868 65.8845H556.701C556.283 61.5987 554.999 57.4424 552.927 53.6676C551.02 50.2209 548.445 47.189 545.352 44.7492C542.227 42.3431 538.703 40.5052 534.941 39.3195C525.512 36.4341 515.373 36.914 506.258 40.6769C501.588 42.7039 497.418 45.7295 494.041 49.541C490.656 53.4122 488.059 57.9083 486.399 62.7759C484.572 68.0628 483.654 73.6209 483.684 79.2144C483.659 84.7012 484.578 90.1515 486.399 95.3272C488.062 100.129 490.659 104.553 494.041 108.345C497.437 112.091 501.605 115.055 506.258 117.033C511.41 119.206 516.957 120.283 522.548 120.195C527.109 120.25 531.644 119.501 535.945 117.983C539.901 116.564 543.53 114.362 546.615 111.508C549.7 108.623 552.186 105.159 553.931 101.313C555.839 97.0784 557 92.5459 557.366 87.9156H540.534C540.11 92.6683 538.19 97.1641 535.05 100.757Z" fill="white"/>
<path d="M626.161 83.9788C624.417 81.2835 622.139 78.9737 619.469 77.1917C617.063 75.5686 614.427 74.3149 611.65 73.4723C609.03 72.6986 606.98 72.1149 605.514 71.8705C600.564 70.6036 596.555 69.5674 593.487 68.762C591.023 68.1624 588.616 67.3494 586.293 66.3322C584.896 65.7763 583.686 64.8348 582.804 63.6173C582.172 62.4683 581.867 61.1677 581.922 59.8572C581.86 58.3744 582.248 56.9075 583.035 55.6492C583.773 54.5543 584.736 53.6289 585.859 52.9343C587.02 52.18 588.314 51.6548 589.673 51.3869C591.056 51.0903 592.467 50.9402 593.881 50.9389C595.867 50.9262 597.85 51.1127 599.799 51.4955C601.506 51.8149 603.14 52.4453 604.618 53.3551C606.046 54.2607 607.211 55.5243 607.998 57.0202C608.921 58.8412 609.431 60.8436 609.491 62.8843V65.8707H626.337V62.8572C626.457 58.8049 625.561 54.7871 623.731 51.1697C622.04 48.0167 619.632 45.3057 616.699 43.2558C613.629 41.1429 610.189 39.6236 606.559 38.7763C602.66 37.8504 598.663 37.3947 594.655 37.4189C591.064 37.4231 587.489 37.9071 584.026 38.8578C580.62 39.754 577.402 41.2527 574.524 43.283C571.745 45.2537 569.429 47.806 567.737 50.7624C565.939 53.9909 565.039 57.6425 565.131 61.3368C565.015 64.3437 565.629 67.3339 566.919 70.0522C568.21 72.7705 570.139 75.1362 572.542 76.9473C574.842 78.6849 577.379 80.0837 580.076 81.1011C582.9 82.181 585.788 83.0876 588.723 83.8159C591.601 84.6304 594.442 85.3679 597.247 86.0285C599.811 86.6215 602.329 87.3972 604.781 88.3498C606.768 89.0983 608.59 90.228 610.143 91.6755C610.828 92.3541 611.364 93.1681 611.717 94.0657C612.07 94.9632 612.232 95.9244 612.193 96.888C612.262 98.66 611.715 100.401 610.645 101.815C609.605 103.116 608.275 104.158 606.763 104.856C605.189 105.607 603.509 106.111 601.781 106.349C600.132 106.6 598.467 106.732 596.799 106.743C594.561 106.745 592.331 106.467 590.162 105.915C588.155 105.419 586.259 104.553 584.569 103.363C582.953 102.192 581.64 100.652 580.741 98.8699C579.721 96.7567 579.227 94.428 579.302 92.0827V87.8747H562.47V92.0827C562.306 96.4514 563.24 100.792 565.185 104.707C566.955 108.169 569.518 111.164 572.664 113.449C575.931 115.805 579.617 117.519 583.524 118.498C587.665 119.567 591.925 120.106 596.202 120.1C601.016 120.181 605.815 119.545 610.442 118.213C614.179 117.145 617.674 115.361 620.731 112.96C623.381 110.804 625.487 108.056 626.88 104.938C628.301 101.772 629.019 98.3354 628.984 94.8654C629.139 91.0374 628.156 87.2492 626.161 83.9788Z" fill="white"/>
<path d="M36.7093 116.45C37.6271 116.716 38.6015 116.716 39.5192 116.45L38.9898 115.092C38.2512 115.068 37.5333 114.842 36.913 114.441C36.2023 113.96 35.6048 113.33 35.1619 112.595C34.7139 111.834 34.4153 111.319 33.8723 111.454C33.3293 111.59 33.5737 112.513 33.7501 113.015C33.9266 113.518 35.1076 116.816 35.1076 116.816C35.1076 116.816 35.3791 117.861 36.0442 117.617C36.7093 117.373 36.37 116.87 36.3836 116.748C36.3971 116.626 36.5193 116.436 36.7093 116.45Z" fill="white"/>
<path d="M65.9749 100.73C65.2283 100.961 65.7306 102.577 65.4048 103.445C65.1208 104.291 64.5738 105.023 63.8438 105.536L64.3596 107.043L68.3097 105.577L66.6808 101.097C66.6808 101.097 66.45 100.54 65.9749 100.73Z" fill="white"/>
<path d="M126.123 84.7385L129.041 83.6661C129.14 83.6294 129.23 83.5712 129.304 83.4957C129.379 83.4203 129.435 83.3294 129.47 83.2296C129.505 83.1298 129.518 83.0235 129.507 82.9183C129.496 82.8131 129.462 82.7116 129.408 82.6209C128.973 81.7929 128.349 82.458 127.969 82.0644C127.589 81.6707 124.969 78.6165 123.897 77.4084C124.546 76.7665 124.984 75.9414 125.151 75.0437C125.319 74.1461 125.208 73.2187 124.833 72.3859C122.933 67.2141 117.462 70.0918 117.462 70.0918L117.761 71.0284C118.223 70.947 119.499 70.5805 119.987 71.8836C120.299 72.6981 121.222 75.3179 121.575 76.2545C121.928 77.1912 120.761 78.1685 120.408 78.3178L120.761 79.3088C120.761 79.3088 124.833 84.0191 125.118 84.3449C125.648 84.9285 126.123 84.7385 126.123 84.7385Z" fill="white"/>
<path d="M11.5831 88.4992C11.5088 88.1888 11.5134 87.8647 11.5964 87.5565C11.6794 87.2483 11.8381 86.9657 12.0582 86.7345C12.1832 86.6145 12.2617 86.454 12.2797 86.2816C12.2976 86.1092 12.2539 85.936 12.1563 85.7927C12.0586 85.6495 11.9133 85.5455 11.7463 85.4992C11.5792 85.453 11.4011 85.4674 11.2437 85.54L8.9225 86.3816C7.97229 86.7345 8.12161 87.739 8.9225 87.8884C9.23376 87.9117 9.53047 88.0295 9.77302 88.226C10.0156 88.4225 10.1924 88.6883 10.2799 88.9879L13.5378 97.9334C13.7769 98.5852 13.7919 99.2981 13.5805 99.9594C13.3691 100.621 12.9433 101.193 12.3704 101.585L12.8455 103.024C13.3342 102.82 16.0762 100.838 15.0717 98.042L11.5831 88.4992Z" fill="white"/>
<path d="M9.79119 100.635L5.9225 89.857C5.85944 89.7029 5.83513 89.5357 5.8517 89.37C5.86826 89.2044 5.9252 89.0453 6.01752 88.9068C6.5062 88.6488 6.35688 87.2914 5.12162 87.7394L0.628517 89.314C0.628517 89.314 0.153416 89.5176 0.0448214 89.8162C0.00755825 89.9248 -0.006712 90.04 0.00291718 90.1544C0.0125464 90.2688 0.0458644 90.38 0.100755 90.4808C0.155646 90.5817 0.230909 90.67 0.321765 90.7402C0.412621 90.8104 0.517084 90.8609 0.628517 90.8886C0.940727 90.8886 1.21221 90.8886 1.4294 91.4995L5.17592 101.843C5.46615 102.533 5.96523 103.115 6.6031 103.507C7.24097 103.899 7.98558 104.081 8.73239 104.029C9.92387 104.034 11.1017 103.775 12.1803 103.268L11.7052 101.83C11.299 101.87 10.8908 101.775 10.5445 101.559C10.1982 101.343 9.93325 101.018 9.79119 100.635Z" fill="white"/>
<path d="M21.6546 97.7982C21.2085 97.5828 20.8424 97.231 20.6094 96.7937L18.2203 90.183L15.9941 88.1333L19.3063 97.2145C19.3812 97.5135 19.3833 97.8261 19.3124 98.1261C19.2416 98.426 19.0998 98.7046 18.899 98.9385C18.7495 99.0547 18.6488 99.2226 18.6166 99.4093C18.5844 99.5959 18.6231 99.7879 18.725 99.9475C18.8269 100.107 18.9847 100.223 19.1676 100.272C19.3504 100.322 19.5451 100.301 19.7135 100.214L22.3062 99.305C22.4893 99.243 22.6405 99.1113 22.7269 98.9384C22.8134 98.7656 22.828 98.5655 22.7677 98.3819C22.6456 97.8797 22.2112 97.9068 21.6546 97.7982Z" fill="white"/>
<path d="M24.8452 80.6133L22.2525 81.5771C22.2525 81.5771 21.5059 81.8214 21.791 82.4459C22.076 83.0703 22.3475 82.9074 22.8362 83.0839C23.0782 83.1541 23.3002 83.2805 23.4841 83.4526C23.6681 83.6248 23.8089 83.838 23.895 84.0748L25.2524 87.9435L27.4786 90.0068L25.2524 83.654C25.2524 83.654 24.9809 82.5409 25.6461 81.9979C25.8297 81.8917 25.9636 81.7169 26.0183 81.512C26.073 81.3071 26.0441 81.0888 25.9379 80.9052C25.8317 80.7216 25.6569 80.5877 25.452 80.5329C25.2471 80.4782 25.0288 80.5071 24.8452 80.6133Z" fill="white"/>
<path d="M29.9216 96.5493L28.0755 91.3639L18.9264 82.7578L14.1754 84.441C13.9303 84.5324 13.708 84.676 13.5239 84.8618C13.4748 84.9732 13.4509 85.0941 13.4539 85.2158C13.4568 85.3375 13.4866 85.457 13.541 85.5659C13.5955 85.6748 13.6732 85.7703 13.7688 85.8457C13.8644 85.9211 13.9754 85.9745 14.094 86.0021C14.5602 86.0146 15.0091 86.1818 15.37 86.4772L27.071 97.5403L29.9216 96.5493Z" fill="white"/>
<path d="M28.4966 81.7259L32.5689 93.1284C32.8268 93.8071 32.5689 93.8478 32.3381 94.1193C32.2235 94.3099 32.1863 94.5372 32.2343 94.7544C32.2823 94.9716 32.4118 95.1621 32.596 95.2867C32.8811 95.5039 33.3562 95.2867 33.3562 95.2867L37.8493 93.6442C39.2067 93.2234 38.5687 92.0289 37.8493 92.0696C37.6819 92.0531 37.5231 91.9877 37.3927 91.8815C37.2624 91.7752 37.1662 91.6329 37.1163 91.4723L33.044 80.0699C33.044 80.0699 32.7725 79.3776 33.1254 79.174C33.2056 79.1196 33.2744 79.05 33.3277 78.969C33.381 78.8881 33.4178 78.7975 33.4361 78.7023C33.4544 78.6071 33.4537 78.5093 33.4342 78.4144C33.4147 78.3195 33.3766 78.2293 33.3223 78.1491C33.2679 78.0689 33.1982 78.0002 33.1173 77.9469C33.0364 77.8936 32.9458 77.8567 32.8506 77.8384C32.7554 77.8202 32.6576 77.8208 32.5627 77.8403C32.4678 77.8599 32.3776 77.8979 32.2974 77.9523L27.7636 79.5269C27.7636 79.5269 27.2749 79.7305 27.1663 80.0156C27.0577 80.3006 27.1663 81.0472 27.75 81.088C28.0758 81.1965 28.2794 81.1015 28.4966 81.7259Z" fill="white"/>
<path d="M81.2736 60.7802C80.4047 60.5739 79.4972 60.5973 78.6401 60.8481L79.1152 62.2055C79.8226 62.1885 80.5218 62.3591 81.1417 62.7001C81.7617 63.041 82.2802 63.5402 82.6446 64.1467C83.1061 64.8525 83.4047 65.3684 84.002 65.2462C84.5993 65.124 84.3006 64.1874 84.1242 63.6851C83.9477 63.1829 82.9296 60.4409 82.9296 60.4409C82.9296 60.4409 82.7124 59.3957 82.0337 59.6943C81.355 59.9929 81.6672 60.3866 81.6265 60.563C81.5858 60.7395 81.5179 60.8617 81.2736 60.7802Z" fill="white"/>
<path d="M80.4315 77.6402C81.3847 77.8429 82.3698 77.8429 83.3229 77.6402L82.8478 76.2013C82.0763 76.2301 81.3101 76.0619 80.6216 75.7126C79.922 75.2229 79.3306 74.5945 78.8841 73.8665C78.4225 73.0928 78.1239 72.6448 77.5266 72.767C76.9294 72.8892 77.2144 73.8258 77.3909 74.3281C77.5674 74.8303 78.7483 78.0746 78.7483 78.0746C78.7483 78.0746 79.0334 79.1198 79.7121 78.889C80.3908 78.6583 80.0243 78.1289 80.0379 78.0067C80.0515 77.8845 80.1872 77.5452 80.4315 77.6402Z" fill="white"/>
<path d="M78.3684 62.436L77.8933 61.0786C77.262 61.321 76.6854 61.6871 76.1975 62.1554C75.7096 62.6237 75.3202 63.1848 75.0521 63.8056C74.7841 64.4265 74.6427 65.0947 74.6364 65.7709C74.6302 66.4472 74.7591 67.1179 75.0156 67.7436C75.1958 68.5179 75.5549 69.2392 76.0641 69.8497C76.5732 70.4602 77.2183 70.943 77.9476 71.2594C79.2982 71.6928 80.6903 71.984 82.1014 72.1281C83.0244 72.3182 84.0968 72.4811 84.4904 73.4856C84.6497 73.9327 84.6396 74.4228 84.462 74.863C84.2844 75.3032 83.9516 75.6631 83.5267 75.8746L84.0696 77.2321C84.7416 76.978 85.3565 76.5931 85.8787 76.0997C86.4008 75.6062 86.8199 75.0141 87.1115 74.3576C87.4032 73.701 87.5616 72.9931 87.5777 72.2749C87.5938 71.5567 87.4672 70.8424 87.2053 70.1734C87.0117 69.3362 86.5934 68.5677 85.9954 67.9506C85.3974 67.3334 84.6424 66.8911 83.8117 66.6712C82.3776 66.2425 80.9114 65.9293 79.4272 65.7346C79.0407 65.7052 78.672 65.5599 78.3693 65.3178C78.0666 65.0756 77.844 64.7478 77.7304 64.3772C77.6302 64.0269 77.6374 63.6547 77.7511 63.3086C77.8649 62.9625 78.0799 62.6585 78.3684 62.436Z" fill="white"/>
<path d="M89.8519 57.1566L85.3588 58.7856C85.3588 58.7856 84.8294 58.9213 84.7208 59.2064C84.6122 59.4914 84.7208 60.238 85.3181 60.2787C85.6167 60.3737 85.8882 60.2787 86.1054 60.9031L90.1777 72.3056C90.4492 72.9843 90.1777 73.0793 90.0013 73.3101C89.8665 73.498 89.811 73.7313 89.8465 73.9598C89.8821 74.1883 90.0059 74.3936 90.1913 74.5318C90.3102 74.5959 90.4431 74.6295 90.5782 74.6295C90.7132 74.6295 90.8462 74.5959 90.965 74.5318L95.4581 72.8893C96.8156 72.4549 96.1776 71.2604 95.4581 71.369C95.2958 71.3321 95.1472 71.2501 95.0295 71.1324C94.9118 71.0147 94.8298 70.8661 94.793 70.7038L90.585 59.3285C90.585 59.3285 90.3135 58.6498 90.7478 58.3919C91.1822 58.134 91.0736 56.7223 89.8519 57.1566Z" fill="white"/>
<path d="M49.2514 71.79C49.2514 71.79 48.722 71.9257 48.6134 72.2243C48.5757 72.3366 48.5609 72.4552 48.57 72.5733C48.5791 72.6913 48.6118 72.8064 48.6663 72.9115C48.7207 73.0166 48.7958 73.1097 48.887 73.1852C48.9782 73.2607 49.0837 73.3171 49.1971 73.351C49.5093 73.351 49.7808 73.351 49.998 73.9754L54.1382 85.3779C54.3554 86.0023 54.1382 86.0973 53.921 86.3145C53.5409 86.7081 53.921 87.4004 54.1789 87.5497C54.4071 87.6316 54.6566 87.6316 54.8848 87.5497L59.4322 85.9344L53.7445 70.1475L49.2514 71.79Z" fill="white"/>
<path d="M54.437 69.916L54.9528 71.4092C55.8917 71.315 56.8373 71.5041 57.6677 71.9522C58.4822 72.4409 59.1337 74.0019 59.9482 73.7168C60.4233 73.5268 60.2604 72.9703 60.2604 72.9703L58.6315 68.4229L54.437 69.916Z" fill="white"/>
<path d="M56.9214 76.9474L57.5594 78.5763C57.5594 78.5763 58.3874 78.2234 59.2969 79.703C59.7177 80.2731 59.9213 80.5989 60.3964 80.3953C60.5451 80.3456 60.6682 80.2394 60.7393 80.0998C60.8104 79.9601 60.8238 79.7981 60.7765 79.6487L58.7539 74.0425C58.7276 73.9816 58.6893 73.9268 58.6411 73.8812C58.5929 73.8357 58.536 73.8004 58.4738 73.7775C58.4116 73.7547 58.3454 73.7447 58.2792 73.7483C58.213 73.7518 58.1482 73.7688 58.0888 73.7981C57.6815 73.9339 57.6137 74.3547 57.7087 74.9112C58.0073 76.6216 56.9214 76.9474 56.9214 76.9474Z" fill="white"/>
<path d="M64.1969 84.1833L62.568 79.6359C62.55 79.5628 62.5165 79.4944 62.47 79.4353C62.4234 79.3762 62.3648 79.3276 62.298 79.293C62.2312 79.2583 62.1578 79.2382 62.0826 79.2342C62.0074 79.2301 61.9323 79.2421 61.8621 79.2694C61.0612 79.4866 61.5499 81.1155 61.2241 81.9843C60.8766 82.8439 60.2872 83.5842 59.5273 84.1154L60.111 85.6222L64.1969 84.1833Z" fill="white"/>
<path d="M97.4134 54.4136L92.9203 56.0696C92.9203 56.0696 92.4452 56.2054 92.3366 56.4904C92.228 56.7755 92.3366 57.5085 92.9338 57.5764C93.2325 57.6578 93.4361 57.5764 93.7211 58.1872L97.7934 69.5897C98.0785 70.2684 97.7934 70.3091 97.5763 70.5806C97.3591 70.8521 97.5763 71.6801 97.8206 71.8159C98.0704 71.9072 98.3445 71.9072 98.5943 71.8159L103.087 70.2277L97.4134 54.4136Z" fill="white"/>
<path d="M102.246 54.1838C100.937 53.6666 99.4815 53.6666 98.1733 54.1838L98.4991 54.9304C98.9742 54.8489 100.929 54.9304 101.431 56.2878C101.933 57.6452 104.377 64.4324 105.028 66.3056C105.531 67.5545 103.97 68.9255 103.549 69.0205L103.875 69.8214C104.62 69.5923 105.3 69.1881 105.857 68.6426C106.414 68.0971 106.833 67.4261 107.078 66.6857C107.864 64.4917 107.864 62.0926 107.078 59.8986C106.72 58.6596 106.105 57.5101 105.272 56.5253C104.439 55.5405 103.408 54.7426 102.246 54.1838Z" fill="white"/>
<path d="M122.322 62.9937C122.548 63.0857 122.802 63.0857 123.028 62.9937L127.521 61.3512L121.888 45.605L117.395 47.2475C117.395 47.2475 116.865 47.3832 116.757 47.6683C116.648 47.9533 116.757 48.6864 117.34 48.7406C117.653 48.8357 117.924 48.7406 118.141 49.3651L122.214 60.7675C122.499 61.4462 122.214 61.4869 122.051 61.772C121.984 61.8688 121.938 61.9782 121.916 62.0934C121.893 62.2087 121.895 62.3273 121.921 62.4419C121.946 62.5565 121.995 62.6647 122.064 62.7596C122.133 62.8545 122.221 62.9342 122.322 62.9937Z" fill="white"/>
<path d="M122.892 46.1206C123.422 46.0528 125.458 46.1206 125.892 47.4102C126.462 48.9712 128.824 55.6362 129.476 57.4959C129.924 58.7447 128.417 60.1158 127.956 60.2108L128.268 61.0252C129.019 60.8031 129.704 60.3997 130.263 59.8506C130.821 59.3014 131.236 58.6233 131.471 57.876C132.307 55.6908 132.307 53.2741 131.471 51.0888C131.144 49.8373 130.55 48.6714 129.73 47.6709C128.91 46.6705 127.883 45.8591 126.72 45.2926C125.419 44.7616 123.966 44.7374 122.648 45.2247L122.892 46.1206Z" fill="white"/>
<path d="M107.879 50.6411L108.083 52.528L112.956 60.754L110.879 61.5006L111.083 62.9666L113.798 62.0028L114.639 63.4689C115.047 64.1069 114.843 64.1476 114.639 64.3648C114.558 64.4519 114.498 64.5563 114.463 64.6701C114.429 64.7839 114.42 64.9041 114.438 65.0217C114.457 65.1393 114.501 65.2512 114.569 65.349C114.637 65.4468 114.726 65.528 114.829 65.5865C115.115 65.8036 115.59 65.5865 115.59 65.5865L120.096 63.9575C121.318 63.5096 120.802 62.3286 120.096 62.3693C119.947 62.3279 119.809 62.2524 119.694 62.1488C119.578 62.0452 119.488 61.9162 119.431 61.7721L111.762 49.2837L107.879 50.6411Z" fill="white"/>
<path d="M108.327 67.5144C108.45 67.8944 108.802 68.0981 109.345 67.908L111.938 66.9307C112.121 66.8714 112.273 66.743 112.361 66.5729C112.45 66.4029 112.469 66.2048 112.413 66.0212C112.182 65.4511 111.843 65.6004 111.287 65.4918C111.11 65.4103 110.744 65.261 110.608 64.4601L109.576 56.3155L108.219 54.0215C108.219 54.0215 109.373 64.976 109.373 65.3968C109.369 65.5766 109.324 65.7533 109.242 65.9133C109.16 66.0733 109.042 66.2123 108.897 66.3198C108.517 66.7406 108.164 66.9307 108.327 67.5144Z" fill="white"/>
<path d="M47.7445 90.1007L47.5409 88.1596L40.7537 77.3001C40.428 76.6078 40.7537 76.5807 40.9845 76.2956C41.0466 76.2027 41.0892 76.0983 41.1098 75.9885C41.1305 75.8787 41.1287 75.7659 41.1046 75.6569C41.0805 75.5478 41.0346 75.4448 40.9696 75.3539C40.9047 75.263 40.822 75.1863 40.7266 75.1282C40.4958 74.9925 40.0072 75.1282 40.0072 75.1282L35.4733 76.7028C34.2381 77.1915 34.8218 78.3317 35.5955 78.291C35.7526 78.3187 35.899 78.3891 36.0187 78.4944C36.1384 78.5998 36.2268 78.736 36.2742 78.8883L43.8758 91.4445L47.7445 90.1007Z" fill="white"/>
<path d="M46.6588 74.3825C46.971 74.0567 47.5275 73.8124 47.2968 73.2423C47.2082 73.0568 47.0517 72.9125 46.8596 72.8392C46.6676 72.766 46.4547 72.7693 46.2651 72.8486L43.6724 73.826C43.5866 73.8523 43.5068 73.8953 43.4377 73.9527C43.3686 74.01 43.3115 74.0805 43.2699 74.16C43.2282 74.2396 43.2027 74.3266 43.1949 74.416C43.1872 74.5055 43.1972 74.5956 43.2245 74.6812C43.3874 75.2377 43.7946 75.0884 44.2697 75.2649C44.5276 75.3463 44.8127 75.4956 45.0027 76.2965L45.9936 84.3325L47.4461 86.8166L46.3466 76.6494C46.3201 76.2517 46.3201 75.8526 46.3466 75.4549C46.3161 75.0713 46.4272 74.6898 46.6588 74.3825Z" fill="white"/>
<path d="M78.0294 78.2639C77.5271 77.4359 76.9163 78.0331 76.5226 77.7074C76.129 77.3816 73.5227 74.2459 72.4503 73.0514C73.0993 72.4063 73.5364 71.5789 73.7037 70.6793C73.871 69.7798 73.7606 68.8506 73.387 68.0153C71.5137 62.857 66.084 65.7212 66.084 65.7212L66.4505 66.6579C66.8441 66.5764 68.1744 66.2235 68.6767 67.5266C68.921 68.3411 69.8984 70.9473 70.197 71.884C70.4956 72.8206 69.4368 73.798 69.0296 73.9473L69.3825 74.8839C69.3825 74.8839 73.4548 79.6485 73.7399 79.9743C73.8348 80.1368 73.9807 80.2635 74.155 80.3347C74.3292 80.4058 74.5221 80.4175 74.7037 80.3679L77.6222 79.3634C77.8665 79.2141 78.3009 78.7119 78.0294 78.2639Z" fill="white"/>
<path d="M70.6179 80.1779C70.466 80.1384 70.3254 80.0637 70.2075 79.96C70.0897 79.8563 69.9978 79.7263 69.9392 79.5807L65.1067 66.0063L60.6543 67.7031C60.6543 67.7031 60.1114 67.8932 60.0163 68.1239C59.9213 68.3547 60.0163 69.1556 60.6 69.1963C60.9122 69.1963 61.1837 69.1963 61.4009 69.8207L65.4732 81.2096C65.7447 81.9019 65.4732 81.9426 65.2425 82.2277C65.1319 82.417 65.097 82.6412 65.1449 82.8552C65.1927 83.0692 65.3197 83.2572 65.5004 83.3815C65.6154 83.4447 65.7418 83.4845 65.8723 83.4985C66.0028 83.5125 66.1347 83.5004 66.2605 83.4629L70.7808 81.8612C72.0296 81.3318 71.5138 80.1372 70.6179 80.1779Z" fill="white"/>
<path d="M129.992 44.1658C130.304 44.2609 130.575 44.1658 130.793 44.7903L134.946 56.1927C135.15 56.8714 134.946 56.8986 134.716 57.1972C134.335 57.5773 134.716 58.2831 134.96 58.4189C135.191 58.5118 135.448 58.5118 135.679 58.4189L140.24 56.7764L134.539 41.0845L130.046 42.727C130.046 42.727 129.53 42.8491 129.408 43.1478C129.286 43.4464 129.435 44.1115 129.992 44.1658Z" fill="white"/>
<path d="M138.408 42.8218C139.222 43.3241 139.874 44.8308 140.675 44.6C141.218 44.41 141.014 43.7856 141.014 43.7856L139.385 39.2925L135.231 40.7857L135.761 42.2788C136.677 42.2059 137.595 42.3942 138.408 42.8218Z" fill="white"/>
<path d="M138.951 44.6144C138.476 44.818 138.408 45.1709 138.503 45.7818C138.801 47.4921 137.729 47.7636 137.729 47.7636L138.353 49.4469C138.353 49.4469 139.181 49.0396 140.105 50.5056C140.498 51.1436 140.715 51.4694 141.19 51.2658C141.339 51.2161 141.462 51.11 141.533 50.9703C141.604 50.8307 141.618 50.6686 141.571 50.5192L139.534 44.913C139.491 44.7998 139.408 44.7065 139.3 44.6513C139.192 44.5961 139.068 44.583 138.951 44.6144Z" fill="white"/>
<path d="M142.67 50.0836C141.91 50.3687 142.358 51.9705 142.019 52.7985C141.704 53.6573 141.136 54.4005 140.39 54.9297L140.919 56.4364L145.059 54.9432L143.43 50.4637C143.43 50.4637 143.213 49.88 142.67 50.0836Z" fill="white"/>
<path d="M37.2922 99.5759C36.4573 99.3446 35.5752 99.3446 34.7402 99.5759L35.2289 100.933C35.8432 100.961 36.4446 101.118 36.9936 101.395C37.6608 101.751 38.2191 102.281 38.6089 102.929C39.0569 103.689 39.4234 104.205 39.9664 104.069C40.5093 103.933 40.1971 103.01 39.9664 102.508C39.7356 102.006 38.7718 99.2637 38.7718 99.2637C38.7718 99.2637 38.5546 98.2321 37.8759 98.4629C37.1972 98.6936 37.5773 99.1551 37.5501 99.3452C37.523 99.5352 37.4822 99.6438 37.2922 99.5759Z" fill="white"/>
<path d="M39.7359 114.806L40.211 116.164C40.8672 115.898 41.4637 115.504 41.9652 115.004C42.4668 114.505 42.8633 113.91 43.1315 113.254C43.3996 112.599 43.534 111.897 43.5266 111.189C43.5193 110.481 43.3704 109.782 43.0887 109.132C42.0707 106.268 40.7947 105.902 39.7766 105.508C38.3848 105.067 36.9655 104.718 35.5278 104.463C35.1521 104.42 34.7969 104.268 34.5053 104.027C34.2138 103.787 33.9984 103.466 33.8853 103.105C33.766 102.747 33.7649 102.359 33.8822 102C33.9995 101.641 34.229 101.329 34.5369 101.11L34.0482 99.7524C33.4244 99.9956 32.8565 100.363 32.379 100.832C31.9015 101.302 31.5243 101.863 31.2704 102.482C31.0165 103.102 30.8912 103.767 30.902 104.436C30.9128 105.105 31.0596 105.766 31.3334 106.377C31.499 107.156 31.8442 107.885 32.3414 108.507C32.8386 109.13 33.4742 109.627 34.1975 109.96C35.5193 110.403 36.8844 110.703 38.2698 110.856C39.1929 111.128 40.1838 111.277 40.5775 112.404C40.769 112.836 40.7886 113.325 40.6322 113.772C40.4759 114.218 40.1554 114.588 39.7359 114.806Z" fill="white"/>
<path d="M75.2465 103.146L74.9885 101.191L68.3778 90.3318C68.0521 89.6259 68.3778 89.5445 68.6086 89.3137C68.7058 89.119 68.7332 88.8968 68.6863 88.6844C68.6393 88.4719 68.5209 88.2819 68.3507 88.1463C68.2422 88.0881 68.1209 88.0576 67.9978 88.0576C67.8746 88.0576 67.7534 88.0881 67.6448 88.1463L63.3689 89.6531C62.1472 90.0739 62.7173 91.2684 63.5047 91.1598C63.939 91.2684 64.1562 91.825 64.1562 91.825L71.5135 104.435L75.2465 103.146Z" fill="white"/>
<path d="M74.5273 86.3281C74.4051 85.9481 74.0522 85.7987 73.5771 85.9345L71.1201 86.8575C71.1201 86.8575 70.4414 87.1019 70.6586 87.7127C70.8758 88.3236 71.2287 88.1335 71.7174 88.2964C71.8939 88.2964 72.2468 88.5272 72.3825 89.3145L73.5092 97.3234L74.8666 99.7939L73.6992 89.7353C73.6992 89.7353 73.6992 88.8937 73.6314 88.5272C73.6349 88.1563 73.7431 87.794 73.9436 87.482C74.3508 87.0883 74.758 86.9526 74.5273 86.3281Z" fill="white"/>
<path d="M91.4816 97.0241C91.5888 97.0789 91.7074 97.1074 91.8278 97.1074C91.9481 97.1074 92.0668 97.0789 92.1739 97.0241L96.3955 95.4359L90.7758 79.7847L86.4456 81.2643C86.4456 81.2643 85.9705 81.4 85.8619 81.6851C85.8239 81.7982 85.809 81.9178 85.8179 82.0368C85.8269 82.1558 85.8595 82.2718 85.9139 82.378C85.9682 82.4842 86.0433 82.5785 86.1346 82.6553C86.2259 82.7321 86.3316 82.7899 86.4456 82.8253C86.7578 82.8253 86.9614 82.7574 87.2464 83.4497L91.3187 94.8386C91.5902 95.463 91.3187 95.558 91.1559 95.8431C90.993 96.1282 91.2373 96.8747 91.4816 97.0241Z" fill="white"/>
<path d="M96.8296 94.4312L97.074 95.2321C97.795 95.0219 98.452 94.635 98.9854 94.1063C99.5188 93.5776 99.9116 92.9241 100.128 92.205C100.875 89.9977 100.837 87.6001 100.02 85.4178C99.668 84.1818 99.0741 83.028 98.2724 82.0236C97.4708 81.0192 96.4774 80.1842 95.35 79.5673C94.1161 79.0419 92.7291 79.0031 91.4678 79.4587L91.7121 80.2596C92.2279 80.1917 94.1419 80.2596 94.6306 81.617C95.1464 83.1781 97.5762 89.8431 98.2414 91.6484C98.6622 92.9652 97.3047 94.2819 96.8296 94.4312Z" fill="white"/>
<path d="M105.151 74.3952L105.422 75.1418C105.929 75.144 106.423 75.2977 106.842 75.5831C107.26 75.8686 107.584 76.2727 107.771 76.7436C108.341 78.3589 110.825 85.1461 111.531 87.0872C111.705 87.5564 111.707 88.0724 111.535 88.5426C111.364 89.0128 111.03 89.4065 110.594 89.6528L110.906 90.5215C111.536 90.263 112.097 89.8627 112.547 89.3518C112.997 88.8409 113.323 88.2332 113.499 87.5759C114.246 85.3289 114.194 82.8926 113.35 80.6801C112.997 79.4053 112.392 78.2141 111.572 77.1766C110.751 76.1392 109.731 75.2765 108.572 74.6396C108.054 74.3525 107.479 74.1819 106.888 74.1397C106.297 74.0975 105.705 74.1847 105.151 74.3952Z" fill="white"/>
<path d="M105.884 90.3045C106.446 90.6806 107.083 90.929 107.752 91.0322C108.42 91.1354 109.103 91.0909 109.752 90.9018L109.44 90.0873C108.957 90.1571 108.464 90.0608 108.042 89.8143C107.621 89.5677 107.295 89.1854 107.119 88.7299C106.386 86.8566 103.929 80.0016 103.359 78.3863C103.235 77.9002 103.247 77.3891 103.396 76.9099C103.545 76.4306 103.823 76.002 104.2 75.6714L103.929 74.9248C103.368 75.1176 102.852 75.423 102.414 75.8221C101.975 76.2212 101.622 76.7058 101.377 77.246C100.892 78.4703 100.655 79.779 100.681 81.0958C100.706 82.4125 100.994 83.711 101.526 84.9155C102.333 87.1498 103.868 89.0478 105.884 90.3045Z" fill="white"/>
<path d="M58.767 108.806C58.993 108.9 59.2468 108.9 59.4728 108.806L63.7487 107.34L58.862 93.7657C58.862 93.7657 58.5905 93.0734 58.957 92.8019C59.0908 92.6753 59.174 92.5044 59.1913 92.321C59.2085 92.1376 59.1585 91.9542 59.0507 91.8048C58.9428 91.6555 58.7844 91.5504 58.6049 91.5091C58.4254 91.4678 58.237 91.4931 58.0747 91.5803L53.8666 93.0599C53.8666 93.0599 53.3915 93.1956 53.2829 93.4942C53.2095 93.7211 53.2282 93.9677 53.3348 94.181C53.4414 94.3942 53.6275 94.5571 53.8531 94.6345C54.111 94.6345 54.3689 94.6345 54.5861 95.2317L58.7398 106.648C58.957 107.326 58.7398 107.354 58.5362 107.584C58.4186 107.781 58.3771 108.014 58.4197 108.239C58.4622 108.464 58.5857 108.666 58.767 108.806Z" fill="white"/>
<path d="M51.2881 111.507C51.5053 111.711 51.994 111.507 51.994 111.507L56.5821 109.878C57.8174 109.39 57.288 108.25 56.46 108.304C56.164 108.194 55.9212 107.976 55.7812 107.693L48.1796 95.1367L44.3652 96.4942L44.4874 98.4353L49.3877 106.702L47.2837 107.408L47.4873 108.874L50.2022 107.91L51.1117 109.376C51.451 110.014 51.261 110.055 51.1117 110.286C51.0368 110.375 50.9817 110.479 50.9498 110.591C50.9179 110.703 50.9101 110.821 50.9267 110.936C50.9434 111.051 50.9842 111.162 51.0465 111.26C51.1087 111.359 51.1911 111.443 51.2881 111.507Z" fill="white"/>
<path d="M44.7042 113.382C44.8807 113.816 45.1929 113.911 45.7359 113.721L48.3286 112.812C48.3286 112.812 49.0616 112.567 48.7765 111.956C48.4915 111.345 48.2064 111.522 47.7177 111.373C47.4734 111.291 47.1748 111.128 47.0526 110.341L46.0074 102.196L44.6499 99.9023C44.6499 99.9023 45.7359 110.843 45.7359 111.264C45.7444 111.439 45.7121 111.613 45.6414 111.774C45.5707 111.934 45.4636 112.075 45.3287 112.187C44.9486 112.621 44.4735 112.825 44.7042 113.382Z" fill="white"/>
<path d="M117.666 87.8213L122.159 86.1788C123.517 85.7037 122.879 84.5635 122.159 84.6042C121.994 84.5769 121.839 84.5077 121.708 84.4031C121.577 84.2985 121.475 84.1621 121.413 84.0069L116.539 70.4326L112.046 72.0751C112.046 72.0751 111.571 72.2244 111.449 72.5095C111.327 72.7945 111.449 73.5276 112.046 73.5819C112.358 73.6769 112.63 73.5819 112.834 74.2606L116.906 85.663C117.177 86.3553 116.906 86.3824 116.675 86.6675C116.564 86.859 116.528 87.0853 116.576 87.3015C116.624 87.5178 116.751 87.7082 116.933 87.8349C117.173 87.9055 117.429 87.9008 117.666 87.8213Z" fill="white"/>
<path d="M83.2692 98.6797C83.2012 98.7759 83.1535 98.8849 83.1289 99.0001C83.1044 99.1153 83.1035 99.2342 83.1264 99.3498C83.1492 99.4653 83.1953 99.575 83.2619 99.6721C83.3284 99.7693 83.4141 99.8519 83.5135 99.915C83.7986 100.119 84.2873 99.915 84.2873 99.915L88.7804 98.2725C90.0021 97.8517 89.4998 96.6571 88.7804 96.7657C88.6173 96.7145 88.4674 96.6285 88.3408 96.5137C88.2143 96.3988 88.1141 96.2579 88.0474 96.1006L80.4457 83.5308L76.6313 84.8882L76.8214 86.8429L81.6946 95.0554L79.6448 95.7612L79.7942 97.2816L82.509 96.3314L83.4185 97.7974C83.6357 98.4082 83.5 98.4625 83.2692 98.6797Z" fill="white"/>
<path d="M76.9432 101.789C77.0789 102.169 77.4318 102.319 77.9205 102.115L80.4996 101.151C80.4996 101.151 81.2462 100.921 81.029 100.296C80.8118 99.6718 80.391 99.8754 79.9024 99.7125C79.7123 99.7125 79.3594 99.536 79.2508 98.6808L78.2056 90.5362L76.8481 88.2422C76.8481 88.2422 77.9884 99.251 78.002 99.6175C77.9722 99.976 77.8013 100.308 77.5269 100.541C77.2011 100.961 76.7803 101.165 76.9432 101.789Z" fill="white"/>
<path d="M32.5417 54.4817C32.2555 54.4862 31.9769 54.3901 31.7543 54.2102L26.569 51.061L25.4287 52.9342L30.139 55.7984C30.5582 56.069 31.0159 56.275 31.4964 56.4092C31.8577 56.4973 32.2347 56.4973 32.596 56.4092C32.9276 56.3208 33.2283 56.1422 33.4647 55.8934C33.7581 55.6042 34.0094 55.2752 34.2113 54.9161C34.4347 54.5692 34.6126 54.1951 34.7407 53.803C34.835 53.4748 34.835 53.1267 34.7407 52.7985C34.6537 52.4385 34.4762 52.1067 34.2249 51.8347C33.8891 51.465 33.4947 51.1531 33.0575 50.9116L28.3879 48.061L27.2477 49.9343L32.4466 53.0835C32.786 53.3007 32.9896 53.4908 33.0439 53.6672C33.0755 53.7522 33.0858 53.8437 33.074 53.9336C33.0621 54.0235 33.0285 54.1091 32.976 54.1831C32.9321 54.2634 32.8699 54.3323 32.7945 54.3842C32.719 54.4361 32.6324 54.4695 32.5417 54.4817Z" fill="white"/>
<path d="M35.2023 39.9174L33.4512 41.6278L39.3696 47.6276L40.822 46.1887L37.1841 42.4829L37.1977 42.4694L41.8808 45.1571L43.6048 43.4603L37.6999 37.4604L36.2339 38.8993L39.8718 42.6051L39.8583 42.6187L35.2023 39.9174Z" fill="white"/>
<path d="M45.906 31.5097L44.0469 32.6841L48.5415 39.7994L50.4007 38.625L45.906 31.5097Z" fill="white"/>
<path d="M57.5325 26.1118L52.8765 27.8901L55.8764 35.7496L57.9261 34.9759L56.6908 31.7316L59.1342 30.795L58.5234 29.1932L56.08 30.1298L55.5642 28.786L58.1704 27.7815L57.5325 26.1118Z" fill="white"/>
<path d="M69.233 30.6317L69.6538 31.9891L71.9615 31.6769L68.7987 23.6816L66.0838 24.0617L65.2422 32.6814L67.4412 32.3692V30.876L69.233 30.6317ZM67.6313 25.582L68.7172 29.0299L67.5091 29.2064L67.6313 25.582Z" fill="white"/>
<path d="M81.4094 26.7358L83.527 26.9529V26.4236C83.5826 26.0546 83.5826 25.6794 83.527 25.3105C83.4715 24.9905 83.3412 24.6882 83.1469 24.4281C82.939 24.1646 82.6746 23.9512 82.3731 23.8037C81.9839 23.6389 81.5721 23.5336 81.1515 23.4915C80.6663 23.4312 80.1743 23.4588 79.699 23.5729C79.3046 23.6806 78.9536 23.9083 78.6945 24.2245C78.3856 24.6252 78.1678 25.0884 78.0565 25.5819C77.8864 26.2321 77.7683 26.8948 77.7036 27.5638C77.6293 28.2353 77.5976 28.9108 77.6086 29.5864C77.6232 30.0549 77.7293 30.516 77.9208 30.9438C78.0981 31.3114 78.3948 31.6081 78.7624 31.7854C79.2272 32.0043 79.7292 32.1333 80.242 32.1655C80.5847 32.2062 80.9309 32.2062 81.2736 32.1655C81.6084 32.1285 81.9295 32.0121 82.2103 31.8261C82.5062 31.6138 82.748 31.3348 82.9161 31.0117C83.1296 30.5872 83.263 30.1271 83.3098 29.6542L83.3776 29.0298L81.2601 28.8126C81.2601 29.2063 81.1786 29.5456 81.1243 29.8036C81.1041 29.9652 81.0677 30.1243 81.0157 30.2787C80.9723 30.4038 80.8918 30.5127 80.785 30.5909C80.6844 30.6554 80.5632 30.6796 80.4456 30.6587C80.3027 30.6553 80.1666 30.5969 80.0655 30.4958C79.9574 30.3552 79.8958 30.1844 79.889 30.0072C79.8614 29.7092 79.8614 29.4093 79.889 29.1113C79.889 28.7448 79.889 28.2697 80.0112 27.7538C80.1334 27.238 80.1198 26.7222 80.1741 26.3964C80.2152 26.0979 80.2787 25.803 80.3641 25.5141C80.415 25.348 80.5086 25.1982 80.6356 25.0797C80.7589 25.0089 80.9019 24.9803 81.0429 24.9982C81.1358 25.0029 81.2257 25.0333 81.3024 25.086C81.3791 25.1387 81.4396 25.2117 81.4772 25.2969C81.5473 25.6235 81.5473 25.9612 81.4772 26.2878L81.4094 26.7358Z" fill="white"/>
<path d="M91.4408 31.9482L89.4454 31.2423L89.3368 31.5138C89.1961 31.8674 89.1314 32.2467 89.1467 32.6269C89.1597 32.9352 89.2533 33.2348 89.4182 33.4957C89.5974 33.7619 89.8339 33.9846 90.1105 34.1472C90.4584 34.3563 90.8269 34.5292 91.21 34.6631C91.9322 34.9817 92.7417 35.044 93.5041 34.8395C93.8378 34.7016 94.1344 34.4872 94.3702 34.2137C94.6059 33.9402 94.7742 33.6153 94.8615 33.2649C95.029 32.8666 95.0853 32.4303 95.0244 32.0025C94.9769 31.6618 94.8514 31.3367 94.6579 31.0523C94.4749 30.7756 94.2558 30.5245 94.0064 30.3057C93.762 30.0885 93.5313 29.8849 93.3276 29.6813C93.1327 29.5056 92.9676 29.2992 92.839 29.0704C92.7887 28.9596 92.7627 28.8392 92.7627 28.7175C92.7627 28.5958 92.7887 28.4754 92.839 28.3646C92.8984 28.1887 93.0125 28.0365 93.1647 27.9302C93.2518 27.8814 93.35 27.8558 93.4498 27.8558C93.5496 27.8558 93.6478 27.8814 93.7349 27.9302C93.8255 27.9589 93.9065 28.0122 93.9687 28.0841C94.031 28.1559 94.0722 28.2436 94.0878 28.3374C94.1167 28.5625 94.0887 28.7911 94.0064 29.0026V29.179L95.9475 29.8713C96.0879 29.5455 96.1604 29.1945 96.1604 28.8397C96.1604 28.4849 96.0879 28.1338 95.9475 27.808C95.7604 27.4768 95.5092 27.1862 95.2085 26.9531C94.9079 26.7201 94.5638 26.5492 94.1964 26.4506C93.8523 26.3072 93.4832 26.2334 93.1105 26.2334C92.7377 26.2334 92.3686 26.3072 92.0245 26.4506C91.6977 26.6096 91.4079 26.8356 91.174 27.1139C90.9402 27.3922 90.7675 27.7166 90.6671 28.0659C90.504 28.4464 90.4432 28.8628 90.4906 29.274C90.5398 29.6037 90.6602 29.9187 90.8435 30.1971C91.0222 30.4569 91.2319 30.6939 91.468 30.903L92.1331 31.5138C92.3231 31.6822 92.4796 31.8848 92.5946 32.1111C92.6417 32.2228 92.6659 32.3428 92.6659 32.464C92.6659 32.5852 92.6417 32.7052 92.5946 32.8169C92.5278 33.0148 92.3994 33.1861 92.2281 33.3056C92.1382 33.3532 92.038 33.378 91.9363 33.378C91.8345 33.378 91.7344 33.3532 91.6444 33.3056C91.5531 33.2755 91.4694 33.2259 91.3991 33.1603C91.3288 33.0946 91.2736 33.0146 91.2372 32.9255C91.1413 32.6719 91.1413 32.3919 91.2372 32.1382L91.4408 31.9482Z" fill="white"/>
<path d="M74.0114 131.557C74.1805 131.455 74.3281 131.322 74.4457 131.163C74.5656 130.994 74.6573 130.806 74.7172 130.607C74.7853 130.4 74.8263 130.186 74.8394 129.969C74.8697 129.69 74.8432 129.408 74.7616 129.14C74.6799 128.871 74.5448 128.622 74.3643 128.408C74.1403 128.188 73.875 128.015 73.5838 127.899C73.2926 127.782 72.9811 127.725 72.6675 127.729L69.3689 127.525L68.7988 135.928L72.0974 136.132C72.4944 136.169 72.8948 136.132 73.2784 136.023C73.5826 135.936 73.8618 135.778 74.0928 135.561C74.3136 135.35 74.4811 135.09 74.5815 134.801C74.6948 134.482 74.7634 134.148 74.7851 133.81C74.8121 133.594 74.8121 133.375 74.7851 133.159C74.7371 132.943 74.6546 132.737 74.5408 132.548C74.422 132.367 74.27 132.21 74.0928 132.086C73.886 131.946 73.6486 131.858 73.4005 131.828C73.6199 131.779 73.8274 131.686 74.0114 131.557ZM72.2874 134.272C72.2146 134.344 72.1276 134.401 72.0318 134.439C71.9361 134.476 71.8336 134.493 71.7309 134.489H71.12L71.2558 132.439H71.8666C71.9683 132.446 72.0672 132.475 72.1564 132.524C72.2455 132.573 72.3227 132.642 72.3824 132.724C72.5265 132.961 72.5946 133.236 72.5776 133.513C72.5606 133.79 72.4594 134.054 72.2874 134.272ZM72.4096 130.729C72.3466 130.807 72.2651 130.867 72.1726 130.905C72.0801 130.943 71.9796 130.957 71.8802 130.946H71.3508L71.5137 129.236H72.0431C72.1438 129.238 72.2424 129.265 72.33 129.315C72.4177 129.365 72.4916 129.436 72.5453 129.521C72.6471 129.713 72.6941 129.929 72.6811 130.145C72.6534 130.363 72.5585 130.567 72.4096 130.729Z" fill="white"/>
<path d="M85.5087 135.263L87.8028 134.883L84.3956 126.915L81.6808 127.376L81.0156 136.009L83.2825 135.629V134.136L85.0879 133.851L85.5087 135.263ZM83.2961 132.466V128.842L84.4771 132.263L83.2961 132.466Z" fill="white"/>
<path d="M97.2777 131.692L99.3003 130.864L96.1103 123.073L94.0742 123.914L95.2551 126.765L94.0063 127.281L92.8389 124.417L90.8027 125.258L94.0063 133.036L96.0288 132.208L94.7121 129.005L95.961 128.489L97.2777 131.692Z" fill="white"/>
<path d="M102.564 119.225L100.729 120.438L105.371 127.458L107.205 126.245L102.564 119.225Z" fill="white"/>
<path d="M115.426 119.327L117.096 117.685L109.739 113.083L107.771 115.024L112.236 122.463L113.879 120.861L112.997 119.653L114.245 118.431L115.426 119.327ZM112.019 118.282L109.942 115.323L112.874 117.454L112.019 118.282Z" fill="white"/>
</svg>
