<svg width="629" height="160" viewBox="0 0 629 160" fill="none" xmlns="http://www.w3.org/2000/svg">
<path d="M256.567 126.938C256.067 127.104 255.4 127.271 254.899 127.438C254.399 127.605 253.732 127.605 253.231 127.605C252.397 127.605 251.563 127.438 250.896 127.271C250.229 126.938 249.395 126.604 248.894 126.103C247.56 124.769 247.06 123.268 247.06 121.6C247.06 120.432 247.226 119.431 247.727 118.764C248.227 117.93 248.728 117.263 249.228 116.929C249.728 116.429 250.229 116.262 250.562 116.095C251.063 115.928 251.397 115.762 251.563 115.762C251.897 115.762 252.064 115.595 252.397 115.595C252.731 115.595 252.898 115.595 253.231 115.595C253.565 115.595 254.065 115.595 254.399 115.762C254.899 115.762 255.233 115.928 255.733 116.095L256.567 116.429V117.93C255.567 117.263 254.566 116.929 253.398 116.929C252.564 116.929 251.897 117.096 251.23 117.43C250.562 117.763 249.895 118.264 249.395 118.931C249.061 119.431 248.894 119.765 248.728 120.265C248.561 120.766 248.561 121.266 248.561 121.767C248.561 122.601 248.728 123.435 249.228 124.269C249.728 125.103 250.229 125.603 251.063 126.103C251.897 126.437 252.731 126.771 253.398 126.771C254.232 126.771 255.066 126.604 255.733 126.103L256.567 125.603V126.938Z" fill="white"/>
<path d="M271.247 127.605H264.908V115.762H271.247V117.097H266.243V120.6H271.247V121.767H266.243V126.271H271.247V127.605Z" fill="white"/>
<path d="M289.428 127.773H289.095L280.421 118.265V127.439H279.086V115.429H279.42L287.927 124.937V115.763H289.262V127.773H289.428Z" fill="white"/>
<path d="M304.107 116.93H300.77V127.439H299.269V116.93H295.933V115.762H304.107V116.93Z" fill="white"/>
<path d="M320.621 127.605H318.786L314.282 121.6V127.605H312.781V115.762H317.118C317.952 115.762 318.619 116.096 319.119 116.763C319.62 117.43 319.953 118.097 319.953 118.932C319.953 119.432 319.953 119.766 319.787 120.099C319.62 120.433 319.453 120.766 318.953 121.1C318.619 121.434 318.119 121.6 317.618 121.767H316.117L320.621 127.605ZM317.451 117.097C317.285 117.097 317.118 116.93 316.951 116.93C316.784 116.93 316.617 116.93 316.45 116.93H314.282V120.933H316.951C317.451 120.933 317.785 120.766 318.119 120.433C318.452 120.099 318.619 119.599 318.619 119.098C318.619 118.598 318.452 118.264 318.285 117.931C318.119 117.597 317.785 117.263 317.451 117.097Z" fill="white"/>
<path d="M338.469 121.601C338.469 123.269 337.802 124.77 336.634 126.105C335.467 127.272 333.965 127.94 332.131 127.94C330.296 127.94 328.794 127.272 327.627 126.105C326.292 124.937 325.792 123.436 325.792 121.768C325.792 120.1 326.459 118.599 327.627 117.264C328.794 116.096 330.296 115.429 332.131 115.429C333.965 115.429 335.467 116.096 336.634 117.264C337.802 118.432 338.469 119.766 338.469 121.601ZM336.968 121.601C336.968 120.267 336.468 119.099 335.467 118.098C334.466 117.097 333.298 116.764 331.964 116.764C330.629 116.764 329.462 117.264 328.461 118.265C327.46 119.266 327.126 120.433 327.126 121.768C327.126 123.102 327.627 124.27 328.628 125.104C329.629 126.105 330.796 126.438 332.131 126.438C333.465 126.438 334.633 125.938 335.634 124.937C336.468 124.103 336.968 122.935 336.968 121.601Z" fill="white"/>
<path d="M368.495 115.762V123.768C368.495 124.435 368.328 125.103 367.994 125.77C367.661 126.437 367.16 126.938 366.493 127.271C365.659 127.605 364.658 127.938 363.824 127.938C362.824 127.938 361.989 127.772 361.322 127.271C360.655 126.938 360.155 126.437 359.821 125.77C359.654 125.269 359.487 124.769 359.321 124.435C359.321 124.102 359.154 123.935 359.154 123.601V115.595H360.488V123.601C360.488 124.102 360.655 124.602 360.989 125.103C361.155 125.603 361.656 125.937 361.99 126.103C362.657 126.27 363.157 126.437 363.824 126.437C364.325 126.437 364.825 126.437 365.159 126.27C365.492 126.103 365.826 125.937 366.16 125.603C366.493 125.269 366.66 124.936 366.827 124.602C366.994 124.269 366.994 123.935 366.994 123.601V123.435V115.595H368.495V115.762Z" fill="white"/>
<path d="M385.008 127.773H384.674L376 118.265V127.439H374.666V115.429H375L383.507 124.937V115.763H384.841V127.773H385.008Z" fill="white"/>
<path d="M396.184 127.605H394.85V115.762H396.184V127.605Z" fill="white"/>
<path d="M416.368 115.762L411.53 127.939H411.03L406.192 115.762H407.86L411.363 125.437L414.866 115.762H416.368Z" fill="white"/>
<path d="M430.546 127.605H424.041V115.762H430.379V117.097H425.375V120.6H430.379V121.767H425.375V126.271H430.379V127.605H430.546Z" fill="white"/>
<path d="M447.894 127.605H446.059L441.555 121.6V127.605H440.054V115.762H444.391C445.225 115.762 445.892 116.096 446.393 116.763C446.893 117.43 447.227 118.097 447.227 118.932C447.227 119.432 447.227 119.766 447.06 120.099C446.893 120.433 446.726 120.766 446.226 121.1C445.892 121.434 445.392 121.6 444.892 121.767H443.39L447.894 127.605ZM444.725 117.097C444.558 117.097 444.391 116.93 444.224 116.93C444.058 116.93 443.891 116.93 443.891 116.93H441.722V120.933H444.391C444.892 120.933 445.225 120.766 445.559 120.433C445.892 120.099 446.059 119.599 446.059 119.098C446.059 118.598 445.892 118.264 445.726 117.931C445.392 117.597 445.058 117.263 444.725 117.097Z" fill="white"/>
<path d="M462.572 117.763L461.238 118.43C461.071 117.93 460.904 117.596 460.404 117.263C459.903 116.929 459.403 116.762 458.903 116.762C458.569 116.762 458.235 116.762 457.902 116.929C457.568 117.096 457.401 117.263 457.235 117.763C457.068 118.097 457.068 118.264 457.068 118.597C457.068 119.264 457.401 119.765 458.069 120.265L461.071 121.433C461.571 121.767 462.072 122.1 462.405 122.601C462.739 123.101 462.906 123.601 462.906 124.269C462.906 124.769 462.739 125.269 462.572 125.77C462.406 126.27 462.072 126.604 461.571 126.938C460.904 127.438 460.07 127.772 459.069 127.772C458.235 127.772 457.568 127.605 456.734 127.104C456.4 126.771 456.067 126.604 455.9 126.103C455.733 125.77 455.566 125.269 455.4 124.769L456.734 124.102C456.734 124.769 456.901 125.269 457.401 125.77C457.902 126.27 458.402 126.437 459.069 126.437C459.403 126.437 459.57 126.437 459.903 126.27C460.07 126.27 460.404 126.103 460.571 125.937C460.737 125.77 461.071 125.436 461.071 125.269C461.238 124.936 461.238 124.602 461.238 124.269C461.238 123.768 461.071 123.435 460.904 123.101C460.737 122.934 460.571 122.767 460.404 122.601C460.237 122.601 460.07 122.434 459.57 122.267L457.568 121.6C456.901 121.266 456.4 120.933 456.067 120.432C455.733 119.932 455.566 119.431 455.566 118.764C455.566 118.597 455.566 118.264 455.733 117.93C455.733 117.596 456.067 117.096 456.567 116.596C457.068 116.095 457.401 115.928 457.902 115.762C458.402 115.595 458.903 115.595 459.236 115.595C459.403 115.595 459.57 115.595 459.57 115.595C459.737 115.595 459.903 115.595 460.237 115.762C460.571 115.762 461.071 116.095 461.571 116.429C462.239 116.762 462.406 117.263 462.572 117.763Z" fill="white"/>
<path d="M475.75 127.605H474.416V115.762H475.75V127.605Z" fill="white"/>
<path d="M495.099 116.93H491.763V127.439H490.262V116.93H486.926V115.762H495.099V116.93Z" fill="white"/>
<path d="M512.281 127.605H510.613L509.112 123.936H504.441L502.94 127.605H501.438L506.609 115.428H506.943L512.281 127.605ZM508.611 122.768L506.609 117.764L504.775 122.768H508.611ZM509.779 112.593L507.777 114.928H506.776L508.111 112.593H509.779Z" fill="white"/>
<path d="M527.46 127.605H525.625L521.122 121.6V127.605H519.62V115.762H523.957C524.791 115.762 525.459 116.096 525.959 116.763C526.459 117.43 526.793 118.097 526.793 118.932C526.793 119.432 526.793 119.766 526.626 120.099C526.459 120.433 526.293 120.766 525.792 121.1C525.459 121.434 524.958 121.6 524.458 121.767H522.956L527.46 127.605ZM524.291 117.097C524.124 117.097 523.957 116.93 523.791 116.93C523.624 116.93 523.457 116.93 523.29 116.93H521.122V120.933H523.791C524.291 120.933 524.625 120.766 524.958 120.433C525.292 120.099 525.459 119.599 525.459 119.098C525.459 118.598 525.292 118.264 525.125 117.931C524.958 117.597 524.625 117.263 524.291 117.097Z" fill="white"/>
<path d="M539.47 127.605H538.136V115.762H539.47V127.605Z" fill="white"/>
<path d="M561.156 121.601C561.156 123.269 560.488 124.77 559.321 126.105C558.153 127.272 556.652 127.94 554.817 127.94C552.982 127.94 551.481 127.272 550.313 126.105C548.979 124.937 548.478 123.436 548.478 121.768C548.478 120.1 549.146 118.599 550.313 117.264C551.481 116.096 552.982 115.429 554.817 115.429C556.652 115.429 558.153 116.096 559.321 117.264C560.655 118.432 561.156 119.766 561.156 121.601ZM559.821 121.601C559.821 120.267 559.321 119.099 558.32 118.098C557.319 117.097 556.151 116.764 554.817 116.764C553.482 116.764 552.315 117.264 551.314 118.265C550.313 119.266 549.98 120.433 549.98 121.768C549.98 123.102 550.48 124.27 551.481 125.104C552.482 126.105 553.649 126.438 554.984 126.438C556.318 126.438 557.486 125.938 558.487 124.937C559.321 124.103 559.821 122.935 559.821 121.601Z" fill="white"/>
<path d="M256.067 59.0474C256.067 45.3693 256.067 42.8672 255.9 40.0315C255.733 37.029 255.066 35.5278 252.064 34.8606C251.397 34.6937 249.895 34.5269 248.561 34.5269C247.56 34.5269 247.06 34.3601 247.06 33.6929C247.06 33.0257 247.727 32.8589 249.061 32.8589C253.732 32.8589 259.403 33.1925 262.072 33.1925C264.241 33.1925 269.912 32.8589 273.081 32.8589C274.416 32.8589 275.083 33.0257 275.083 33.6929C275.083 34.3601 274.583 34.5269 273.582 34.5269C272.581 34.5269 272.08 34.5269 270.913 34.8606C268.578 35.361 267.743 36.8622 267.577 40.0315C267.41 42.8672 267.41 45.3693 267.41 59.0474V71.5578C267.41 84.5687 270.079 90.0733 274.416 93.5762C278.419 96.9123 282.589 97.2459 285.592 97.2459C289.595 97.2459 294.432 96.0783 297.935 92.4086C302.94 87.5712 303.106 79.3977 303.106 70.2234V59.0474C303.106 45.3693 303.106 42.8672 302.94 40.0315C302.773 37.029 302.105 35.5278 299.103 34.8606C298.436 34.6937 296.935 34.5269 295.934 34.5269C294.933 34.5269 294.432 34.3601 294.432 33.6929C294.432 33.0257 295.1 32.8589 296.267 32.8589C300.771 32.8589 306.442 33.1925 306.609 33.1925C307.61 33.1925 313.281 32.8589 316.784 32.8589C318.119 32.8589 318.619 33.0257 318.619 33.6929C318.619 34.3601 318.119 34.5269 316.951 34.5269C315.95 34.5269 315.45 34.5269 314.282 34.8606C311.78 35.361 311.113 36.8622 310.946 40.0315C310.779 42.8672 310.779 45.3693 310.779 59.0474V68.5553C310.779 78.5637 309.779 89.0724 302.272 95.5779C295.934 101.082 289.428 102.083 283.59 102.083C278.919 102.083 270.246 101.75 263.74 95.9115C259.236 91.7413 255.733 85.2359 255.733 72.2251V59.0474H256.067Z" fill="white"/>
<path d="M335.634 90.2417C335.801 96.0799 336.802 97.9147 338.303 98.4152C339.637 98.9156 341.139 98.9156 342.473 98.9156C343.307 98.9156 343.808 99.2492 343.808 99.7496C343.808 100.417 343.14 100.584 341.973 100.584C336.802 100.584 333.132 100.25 331.798 100.25C331.13 100.25 327.294 100.584 323.29 100.584C322.29 100.584 321.456 100.417 321.456 99.7496C321.456 99.2492 321.956 98.9156 322.79 98.9156C323.791 98.9156 325.292 98.7488 326.293 98.582C328.295 98.0815 328.628 95.9131 328.628 89.4076L329.295 44.3701C329.295 42.8688 329.796 41.7012 330.63 41.7012C331.631 41.7012 332.632 42.8688 333.966 44.2033C334.967 45.2041 346.81 57.2141 358.153 68.3901C363.491 73.7279 373.999 84.4035 375.167 85.4043H375.501L374.667 51.5427C374.5 46.8722 373.833 45.5377 371.998 44.8705C370.83 44.3701 368.995 44.3701 367.828 44.3701C366.827 44.3701 366.66 44.0365 366.66 43.536C366.66 42.8688 367.494 42.8688 368.662 42.8688C372.832 42.8688 377.002 43.0356 378.67 43.0356C379.504 43.0356 382.506 42.8688 386.343 42.8688C387.344 42.8688 388.178 43.0356 388.178 43.536C388.178 44.0365 387.677 44.3701 386.843 44.3701C386.009 44.3701 385.342 44.3701 384.508 44.7037C382.34 45.3709 381.672 46.7053 381.672 51.0423L380.838 99.0824C380.838 100.75 380.171 101.418 379.671 101.418C378.336 101.418 377.336 100.584 376.501 99.7496C371.497 95.2458 361.823 85.7379 353.482 77.898C344.975 69.7246 336.635 60.3834 335.134 59.049H334.8L335.634 90.2417Z" fill="white"/>
<path d="M406.026 65.22C406.026 53.7104 406.026 51.542 405.859 49.0399C405.692 46.371 404.858 45.5369 403.19 45.0365C402.356 44.7029 401.355 44.7029 400.355 44.7029C399.521 44.7029 399.187 44.5361 399.187 43.8689C399.187 43.3685 399.854 43.2017 401.022 43.2017C404.024 43.2017 409.362 43.3685 411.531 43.3685C413.532 43.3685 418.536 43.2017 421.706 43.2017C422.707 43.2017 423.374 43.3685 423.374 43.8689C423.374 44.5361 422.873 44.7029 422.039 44.7029C421.205 44.7029 420.538 44.7029 419.704 45.0365C417.536 45.3701 416.868 46.5378 416.702 49.2067C416.535 51.542 416.535 53.7104 416.535 65.3868V78.8981C416.535 86.2376 416.535 92.2426 416.868 95.5787C417.202 97.5804 417.702 98.748 420.038 99.0816C421.039 99.2484 422.873 99.4152 424.041 99.4152C424.875 99.4152 425.209 99.9156 425.209 100.249C425.209 100.75 424.541 101.083 423.707 101.083C418.536 101.083 413.199 100.75 411.03 100.75C409.195 100.75 403.858 101.083 400.688 101.083C399.687 101.083 399.187 100.75 399.187 100.249C399.187 99.9156 399.521 99.4152 400.355 99.4152C401.522 99.4152 402.356 99.2484 403.19 99.0816C404.858 98.748 405.192 97.5804 405.526 95.4119C405.859 92.2426 405.859 86.2376 405.859 78.8981V65.22H406.026Z" fill="white"/>
<path d="M455.4 74.7293C455.4 83.2364 455.4 90.0755 455.9 93.7452C456.234 96.2473 456.735 98.249 459.403 98.5826C460.738 98.7494 462.573 98.9162 463.907 98.9162C465.075 98.9162 465.408 99.2498 465.408 99.5834C465.408 100.251 464.741 100.417 463.407 100.417C457.735 100.417 452.064 100.084 449.729 100.084C447.393 100.084 441.722 100.417 438.386 100.417C437.051 100.417 436.551 100.251 436.551 99.5834C436.551 99.083 436.885 98.9162 437.885 98.9162C439.22 98.9162 440.388 98.7494 441.055 98.5826C442.89 98.249 443.223 96.2473 443.724 93.7452C444.224 89.9087 444.224 83.2364 444.224 74.7293V59.0496C444.224 45.3715 444.224 42.8694 444.057 40.0337C443.89 37.0312 443.223 35.53 440.221 34.8627C439.554 34.6959 438.052 34.5291 436.718 34.5291C435.884 34.5291 435.217 34.3623 435.217 33.8619C435.217 33.1947 435.884 33.0279 437.218 33.0279C439.553 33.0279 442.056 33.0279 444.391 33.0279C446.726 33.1947 448.728 33.1947 450.062 33.1947C453.398 33.1947 471.58 33.1947 473.749 33.0279C475.417 32.8611 476.584 32.8611 477.418 32.6943C477.919 32.5275 478.419 32.1938 478.92 32.1938C479.253 32.1938 479.587 32.5275 479.587 33.0279C479.587 33.6951 479.086 34.6959 478.92 37.0312C478.753 37.8652 478.586 43.203 478.419 44.2039C478.419 44.8711 478.086 45.3715 477.585 45.3715C476.918 45.3715 476.751 44.8711 476.751 43.8703C476.751 43.203 476.751 41.7018 476.251 40.5341C475.584 39.1997 473.749 37.8652 470.413 37.8652L456.568 37.5316C456.067 37.5316 455.734 37.8652 455.734 38.6993V61.0513C455.734 61.5517 455.9 61.8853 456.401 61.8853L467.911 61.7185C469.412 61.7185 470.746 61.7185 471.914 61.5517C473.582 61.3849 474.916 61.0513 475.75 59.8836C476.251 59.3832 476.418 59.0496 476.918 59.0496C477.252 59.0496 477.418 59.3832 477.418 59.8836C477.418 60.384 476.918 62.7193 476.751 65.3882C476.584 67.2231 476.418 71.2264 476.418 71.8936C476.418 72.7277 476.418 73.5617 475.584 73.5617C475.083 73.5617 474.916 72.8945 474.916 72.2272C474.916 71.56 474.75 70.5592 474.416 69.3915C473.916 68.0571 472.581 66.5559 469.912 66.2222C467.744 65.8886 458.236 65.8886 456.735 65.8886C456.234 65.8886 456.067 66.0554 456.067 66.7227V74.7293H455.4Z" fill="white"/>
<path d="M554.149 94.7452C554.149 97.0805 553.983 97.4141 552.982 97.9145C547.144 100.917 538.47 101.918 531.464 101.918C509.612 101.918 490.096 91.5759 490.096 66.8886C490.096 52.5433 497.602 42.5349 505.609 37.6976C514.116 32.5266 522.123 31.8594 529.629 31.8594C535.801 31.8594 543.641 32.8602 545.475 33.3606C547.31 33.6942 550.48 34.1947 552.481 34.3615C553.482 34.5283 553.816 34.8619 553.816 35.3623C553.816 36.3631 553.149 38.8652 553.149 50.0412C553.149 51.5425 552.815 51.8761 552.148 51.8761C551.48 51.8761 551.314 51.3757 551.314 50.7084C550.98 48.7068 550.646 45.7043 548.311 43.2022C545.642 40.3665 538.47 36.1963 528.294 36.1963C523.457 36.1963 516.785 36.5299 510.613 41.7009C505.609 45.8711 502.44 52.5433 502.44 63.5525C502.44 82.7351 514.783 97.2473 533.632 97.2473C535.968 97.2473 539.137 97.2473 541.305 96.2464C542.64 95.5792 542.973 94.4116 542.973 92.9103V84.57C542.973 80.0663 542.973 76.7301 542.807 74.0613C542.64 71.0587 541.973 69.5575 538.97 68.8903C538.303 68.7235 536.802 68.5567 535.467 68.5567C534.633 68.5567 534.133 68.3899 534.133 67.8894C534.133 67.2222 534.8 67.0554 535.968 67.0554C540.638 67.0554 546.309 67.389 548.978 67.389C551.814 67.389 556.485 67.0554 559.487 67.0554C560.655 67.0554 561.322 67.2222 561.322 67.8894C561.322 68.3899 560.822 68.5567 560.154 68.5567C559.487 68.5567 558.82 68.7235 557.819 68.8903C555.484 69.3907 554.483 70.8919 554.483 74.0613C554.316 76.7301 554.316 80.3999 554.316 84.7368V94.7452H554.149Z" fill="white"/>
<path d="M148.978 0C148.311 0 147.644 0 147.143 0C145.642 0.333612 143.807 0.667223 142.139 1.00083H141.972C127.96 4.67056 116.784 13.5113 110.112 26.5221C102.94 40.5338 101.772 58.0484 107.11 73.895C116.284 48.8741 139.47 34.0284 169.328 34.0284C192.181 34.0284 213.532 43.0359 225.041 57.3812C214.032 19.6831 179.003 0 148.978 0Z" fill="white"/>
<path d="M227.71 85.0717C219.036 74.8966 196.017 64.0542 173.498 64.0542C160.321 64.0542 149.145 67.8907 141.305 75.0634C143.64 77.0651 151.813 84.4045 153.148 94.9133C153.982 101.419 151.98 108.091 147.31 114.263C152.481 115.764 157.985 116.598 163.823 116.598C186.009 116.598 208.694 105.422 227.71 85.0717Z" fill="white"/>
<path d="M82.4227 33.1943C68.7446 53.211 66.743 78.2319 68.5778 90.5755L68.7446 90.7423C84.2576 113.762 101.105 125.271 118.786 125.271C133.632 125.271 143.64 116.597 143.807 116.43C144.308 115.763 144.641 115.43 144.975 114.929C126.459 107.423 112.781 93.7448 106.276 76.0634C100.104 59.3828 101.105 40.7006 108.778 25.8549C114.95 14.0116 124.958 5.33774 137.469 0.833984C112.948 4.50371 94.5996 15.3461 82.4227 33.1943Z" fill="white"/>
<path d="M163.824 117.932C157.652 117.932 151.647 117.098 146.142 115.43C145.809 116.097 145.308 116.598 144.641 117.265L144.474 117.432C143.974 117.766 133.965 126.606 118.619 126.606C101.272 126.606 84.591 115.597 69.4116 94.0791C69.4116 94.2459 69.4116 94.4127 69.5784 94.5795V94.7463C75.083 121.435 90.596 141.118 116.117 153.462C125.792 158.133 139.47 159.801 149.145 159.801C152.981 159.801 156.484 159.467 159.487 159.133H159.82C181.505 155.63 219.036 142.786 226.876 95.2467V94.9131C227.21 92.411 227.544 89.7421 227.877 87.0732C208.695 106.923 186.009 117.932 163.824 117.932Z" fill="white"/>
</svg>
