<svg width="629" height="160" viewBox="0 0 629 160" fill="none" xmlns="http://www.w3.org/2000/svg">
<path d="M302.295 123.392V66.2163H320.963V124.517H302.295V123.392ZM302.295 46.1912H320.963V59.7529H302.295V46.1912ZM366.467 46.2778C370.581 46.2383 374.686 46.6691 378.701 47.5618C381.939 48.2487 385.021 49.5304 387.791 51.3418C390.364 53.0673 392.419 55.4614 393.735 58.2669C394.935 60.9975 395.578 63.9407 395.625 66.9232C395.745 69.5309 395.251 72.1305 394.182 74.512C393.091 76.8767 391.442 78.9412 389.378 80.5282C387.755 81.8193 385.987 82.9183 384.112 83.8031C382.326 84.6142 380.459 85.2333 378.543 85.6498L398.149 124.603H377.663L357.464 83.1684C360.206 83.3395 362.959 83.2137 365.674 82.7932C368.487 82.3078 371.121 81.083 373.306 79.2441C374.819 77.87 375.948 76.1244 376.581 74.1802C377.418 71.6564 377.799 69.0036 377.706 66.3461C377.774 63.9499 377.321 61.5675 376.379 59.3633C375.452 57.4112 373.939 55.7971 372.05 54.7466C369.165 53.0442 364.433 53.0875 358.849 53.1452H356.382V124.517H338.146V46.2778H366.467ZM407.686 66.2163H426.283V124.517H407.686V66.2163ZM407.686 46.1912H426.283V59.7529H407.686V46.1912ZM506.931 73.6031V110.119C506.931 115.269 508.633 116.466 511.259 116.466C512.672 116.415 514.08 116.265 515.472 116.019L516.41 115.875L517.434 115.731V124.676L516.669 124.791H516.511L515.991 124.878C511.09 125.841 506.092 126.213 501.102 125.989C499.287 126.089 497.473 125.768 495.801 125.053C494.129 124.337 492.646 123.245 491.465 121.862C489.113 118.977 488.118 114.865 488.118 110.234V73.6031H465.77V110.119C465.77 113.985 466.693 115.63 468.223 116.178C469.752 116.726 472.45 116.308 475.306 115.875L476.345 115.731V124.676L475.581 124.791H475.407C474.152 124.993 475.018 124.791 474.657 124.921C469.933 125.856 465.113 126.214 460.302 125.989C454.892 125.989 451.559 124.257 449.568 121.401C447.577 118.544 447 114.692 447 110.234V73.6031H435.458V66.173H446.885V45.8594H465.64V66.1874H488.32V45.8594H506.931C506.931 52.5104 506.931 59.5076 506.931 66.1586H523.768V73.6031H506.931ZM546.649 84.5245V88.6074H560.312V84.5245C560.48 81.5863 560.063 78.644 559.086 75.8681C558.578 74.8122 557.783 73.921 556.791 73.2972C555.8 72.6734 554.652 72.3425 553.481 72.3425C552.309 72.3425 551.161 72.6734 550.17 73.2972C549.178 73.921 548.383 74.8122 547.876 75.8681C546.898 78.644 546.481 81.5863 546.649 84.5245ZM576.326 122.18C569.856 124.922 562.879 126.264 555.854 126.118C548.857 126.118 541.614 125.512 535.656 121.444C533.936 120.286 532.496 118.758 531.443 116.971C530.335 115.131 529.476 113.152 528.889 111.085C528.207 108.671 527.724 106.206 527.447 103.713C526.35 95.0564 526.538 85.4046 529.611 77.2676C533.145 67.9187 541.556 64.8601 550.617 64.4417C551.627 64.4417 552.709 64.4417 553.863 64.4417C555.017 64.4417 556.085 64.4417 557.123 64.5283C564.496 65.0044 572.676 67.4138 576.47 74.5264C580.034 81.1341 579.269 90.3243 579.269 97.4946H546.649C546.649 102.01 546.447 107.118 548.51 111.201C550.848 115.832 556.301 116.971 560.86 116.741C566.492 116.519 571.908 114.513 576.326 111.013V122.18ZM589.859 123.392V70.2848C592.125 68.8109 594.581 67.651 597.159 66.8367C600.113 65.9109 603.139 65.2305 606.205 64.8024C609.666 64.3124 613.155 64.0521 616.65 64.0234C620.778 63.9891 624.904 64.2301 629 64.7447V75.2045C625.48 72.925 618.901 72.7807 614.76 73.026C612.538 73.0923 610.355 73.6282 608.355 74.5986V124.517H589.801V123.392H589.859ZM286.958 123.392C286.958 107.017 286.958 91.4785 286.958 75.1035C281.058 64.2109 266.674 63.5617 256.127 63.7492C249.474 63.8849 242.862 64.8247 236.434 66.5481C233.529 67.245 230.75 68.3888 228.196 69.9385H228.095L227.691 70.2127V124.517H246.317V74.5986C249.681 73.0149 253.378 72.2676 257.094 72.42C263.197 72.5066 268.535 75.3055 268.289 83.8897V124.517H286.915V123.392H286.958ZM212.615 45.8306V101.318V104.362V104.477V104.622C210.523 110.566 205.3 115.586 199.01 119.265C192.113 123.334 184.316 125.629 176.316 125.945C168.315 125.626 160.519 123.331 153.622 119.265C147.331 115.586 142.08 110.609 140.017 104.622V104.477V104.319V101.275V45.8306H160.821V101.477C160.814 103.636 161.185 105.779 161.917 107.81C162.554 109.573 163.588 111.165 164.939 112.463C166.29 113.762 167.922 114.732 169.708 115.298C171.821 115.971 174.026 116.307 176.243 116.293C178.465 116.307 180.676 115.971 182.793 115.298C184.567 114.702 186.184 113.716 187.526 112.412C188.886 111.108 189.927 109.509 190.57 107.738C191.309 105.709 191.68 103.564 191.666 101.404V45.8306H212.615Z" fill="white"/>
<path d="M0 18H35.0727C46.1961 18 55.6604 20.2074 61.6622 24.5788C68.4863 29.5274 70.8668 36.4236 71.1553 44.4163C71.3283 47.6779 70.733 50.9345 69.4174 53.924C68.1019 56.9135 66.1027 59.5523 63.581 61.6281C59.3202 65.2158 54.1902 67.6191 48.7065 68.5964L73.6657 120.535H50.1204L25.3776 67.3701C29.7058 67.5 38.1601 67.5433 44.4649 61.7724C48.5045 58.0645 50.6542 52.3802 50.582 43.6661C50.582 35.9187 48.4179 30.5517 42.7769 27.0459C38.189 24.247 30.8167 24.7231 22.1747 24.7664H21.0061V94.277C20.8538 102.869 23.6038 111.261 28.8113 118.096C36.8617 128.47 50.0338 133.966 63.076 133.678C69.5854 133.556 75.9883 132.004 81.8315 129.133C85.781 127.211 89.3839 124.647 92.4933 121.545L93.4166 120.506H82.3076L56.9445 69.1303C70.1743 66.9662 79.754 56.4054 79.2202 42.8149C78.5854 27.3777 69.5972 20.7989 54.3908 18H64.0427C73.6224 18 82.5673 19.5437 88.872 24.6798C94.1524 29.008 96.8936 32.6004 97.7592 41.9926C98.4517 49.538 96.4319 56.4198 91.4256 61.3107C88.2097 64.6223 84.1073 66.9365 79.6097 67.9761L100.688 108.632L100.904 108.055C102.465 103.705 103.246 99.1145 103.213 94.4934V18.0289H124.219V104.463C119.083 115.456 109.95 127.546 98.4229 133.692C87.2501 139.567 74.7212 142.38 62.1094 141.844C47.8455 142.059 33.8214 138.162 21.713 130.619C12.5229 124.747 5.15054 114.028 0.0721363 104.809L0 18Z" fill="white"/>
</svg>
