<svg width="629" height="160" viewBox="0 0 629 160" fill="none" xmlns="http://www.w3.org/2000/svg">
<path d="M158.832 74.4587C158.832 69.8182 155.668 65.8105 151.45 64.5449C150.606 64.334 149.551 64.123 148.496 64.123H146.176C144.911 64.123 143.856 65.1777 143.856 66.4433V121.497C143.856 126.137 147.02 130.145 151.239 131.41C152.082 131.621 153.137 131.832 154.192 131.832H156.512C157.777 131.832 158.832 130.778 158.832 129.512V74.4587Z" fill="white"/>
<path d="M381.998 74.4587C381.998 69.8182 378.834 65.8105 374.615 64.5449C373.771 64.334 372.717 64.123 371.662 64.123H369.342C368.076 64.123 367.021 65.1777 367.021 66.4433V121.497C367.021 126.137 370.185 130.145 374.404 131.41C375.248 131.621 376.303 131.832 377.357 131.832H379.677C380.943 131.832 381.998 130.778 381.998 129.512V74.4587Z" fill="white"/>
<path d="M0 105.255C0 122.129 9.07008 131.832 29.1086 131.832H29.3196C49.3581 131.832 58.4282 122.129 58.4282 105.255V73.8259C58.4282 68.5526 54.2095 64.123 48.9362 64.123H46.8269C45.7723 64.123 44.7176 64.9668 44.7176 66.2324V105.255C44.7176 113.903 41.9755 118.754 29.3196 118.754C16.6636 118.754 13.9215 113.903 13.9215 105.255V73.8259C13.9215 69.3963 10.9685 65.8105 6.96076 64.7558C5.2733 64.334 2.10932 64.334 2.10932 64.334C1.05466 64.334 0 65.1777 0 66.4433V105.255Z" fill="white"/>
<path d="M130.356 88.803C130.356 71.9285 121.286 62.2256 101.247 62.2256H101.036C80.9978 62.2256 71.9277 71.9285 71.9277 88.803V122.13C71.9277 127.404 76.1464 131.833 81.4197 131.833H83.529C84.5837 131.833 85.6383 130.989 85.6383 129.724V88.803C85.6383 80.1548 88.3804 75.3034 101.036 75.3034C113.692 75.3034 116.434 80.1548 116.434 88.803V122.13C116.434 126.56 119.387 130.146 123.395 131.2C125.083 131.622 128.247 131.622 128.247 131.622C129.301 131.622 130.356 130.778 130.356 129.513V88.803Z" fill="white"/>
<path d="M171.277 80.5767C171.277 91.1233 176.55 95.131 184.776 98.9278L199.541 105.467C206.291 108.42 208.401 110.107 208.401 113.482C208.401 117.912 204.604 119.177 195.745 119.177C195.112 119.177 191.737 119.177 191.737 119.177C181.401 118.755 173.175 115.591 173.175 115.591C172.964 115.591 172.12 115.17 171.277 115.802C168.956 118.123 172.331 129.302 177.605 130.568C177.605 130.568 180.979 131.2 183.511 131.411C183.511 131.411 193.214 132.044 194.268 132.044C213.674 132.044 221.9 126.138 221.9 113.271C221.9 102.514 216.416 98.084 207.135 94.2873L191.526 87.3265C186.886 85.2172 184.987 83.7407 184.987 80.5767C184.987 76.7799 187.94 75.0924 197.01 75.0924C202.705 75.0924 207.768 75.7252 211.354 76.7799C212.408 76.9908 216.205 78.6783 217.471 77.8346C219.791 75.7252 216.838 65.1786 211.565 63.7021C210.299 63.4912 203.76 62.2256 197.432 62.2256C179.081 62.2256 171.277 68.1317 171.277 80.5767Z" fill="white"/>
<path d="M467.426 80.5768C467.426 91.1234 472.699 95.1311 480.926 98.9278L495.691 105.467C502.441 108.42 504.55 110.107 504.55 113.482C504.55 117.912 500.753 119.177 491.894 119.177C491.261 119.177 487.886 119.177 487.886 119.177C477.551 118.755 469.324 115.591 469.324 115.591C469.113 115.591 468.27 115.17 467.426 115.802C465.106 118.123 468.481 129.302 473.754 130.568C473.754 130.568 477.129 131.2 479.66 131.411C479.66 131.411 489.363 132.044 490.418 132.044C509.823 132.044 518.05 126.138 518.05 113.271C518.05 102.514 512.565 98.0841 503.284 94.2874L487.465 87.5375C482.824 85.4282 480.926 83.9517 480.926 80.7877C480.926 76.9909 483.879 75.3035 492.949 75.3035C498.644 75.3035 503.706 75.9363 507.292 76.9909C508.347 77.2019 512.144 78.8893 513.409 78.0456C515.729 75.9363 512.776 65.3897 507.503 63.9131C506.238 63.7022 499.699 62.4366 493.371 62.4366C475.231 62.2257 467.426 68.1318 467.426 80.5768Z" fill="white"/>
<path d="M231.814 102.935V91.3342C231.814 72.5613 242.15 62.2256 263.454 62.2256C285.18 62.2256 294.672 71.9285 294.672 91.3342V102.935C294.672 121.708 284.337 132.044 263.454 132.044C241.306 131.833 231.814 122.13 231.814 102.935ZM280.54 91.3342C280.54 79.9439 276.743 75.3034 263.454 75.3034C250.166 75.3034 245.947 80.1548 245.947 91.3342V102.935C245.947 114.115 249.744 118.966 263.454 118.966C276.743 118.966 280.54 114.326 280.54 102.935V91.3342Z" fill="white"/>
<path d="M349.092 117.279C347.194 117.912 342.553 118.755 337.069 118.966C324.202 118.966 319.984 113.904 319.984 102.725V91.1233C319.984 79.9439 323.991 75.0924 337.069 74.8815C342.553 75.0924 347.194 76.1471 349.092 76.569C350.78 76.9908 351.834 77.2018 352.678 76.7799C354.998 74.6706 351.623 64.124 346.35 63.0693C341.077 61.8037 337.491 62.0146 337.491 62.0146C316.187 62.0146 305.851 72.3503 305.851 91.1233V102.935C305.851 121.708 316.187 132.044 337.491 132.044C337.491 132.044 340.866 132.255 346.35 130.989C351.623 129.935 355.209 119.388 352.678 117.279C352.045 116.857 350.78 116.857 349.092 117.279Z" fill="white"/>
<path d="M436.63 131.832C434.31 132.043 431.989 132.043 429.458 132.043C406.467 132.043 395.709 123.605 395.709 103.145V91.3327C395.709 71.7161 405.834 62.0132 426.083 62.0132C445.067 62.0132 455.192 71.5051 455.192 89.8562C455.192 91.9655 454.981 93.8639 454.981 95.7623C454.348 100.825 453.083 101.879 448.02 101.879H409.841V104.832C409.841 114.746 415.537 118.543 429.458 118.543C431.778 118.543 433.888 118.543 436.208 118.121C436.208 118.121 443.169 117.699 448.231 116.434C449.919 116.012 450.973 115.801 451.817 116.223C454.137 118.332 450.762 128.879 445.489 129.933C440.005 131.832 436.63 131.832 436.63 131.832ZM409.841 90.9109H441.903V87.536C441.903 78.6768 436.63 74.2472 425.661 74.2472C415.115 74.2472 409.841 78.6768 409.841 87.536V90.9109Z" fill="white"/>
<path d="M571.414 117.279C569.516 117.912 564.875 118.755 559.391 118.966C546.524 118.966 542.306 113.904 542.306 102.725V91.1233C542.306 79.9439 546.313 75.0924 559.391 74.8815C564.875 75.0924 569.516 76.1471 571.414 76.569C573.102 76.9908 574.156 77.2018 575 76.7799C577.32 74.6706 573.946 64.124 568.672 63.0693C563.399 61.8037 559.813 62.0146 559.813 62.0146C538.509 62.0146 528.173 72.3503 528.173 91.1233V102.935C528.173 121.708 538.509 132.044 559.813 132.044C559.813 132.044 563.188 132.255 568.672 130.989C573.946 129.935 577.531 119.388 575 117.279C574.156 116.857 573.102 116.857 571.414 117.279Z" fill="white"/>
<path d="M599.681 98.0841H592.931C591.876 98.0841 591.032 96.8185 591.454 95.7638L608.54 62.2257L591.454 29.3203C590.822 28.2656 591.665 27 592.72 27H599.47C605.798 27 610.016 29.5312 612.758 34.5936L629 62.2257L613.391 90.0687C610.227 95.1311 606.22 98.0841 599.681 98.0841Z" fill="white"/>
</svg>
