<svg width="629" height="160" viewBox="0 0 629 160" fill="none" xmlns="http://www.w3.org/2000/svg">
<path d="M100 84.3466V93L105 80C103.366 81.4444 101.69 82.8359 100 84.3466Z" fill="white"/>
<path d="M84 83.1067V80L82 85L84 83.1067Z" fill="white"/>
<path d="M64.238 118.25C63.7078 118.212 63.1945 118.049 62.7413 117.773C62.2881 117.497 61.9083 117.118 61.6341 116.665C60.8802 115.491 60.5001 114.118 60.5435 112.725C60.5522 111.996 60.639 111.27 60.8025 110.559C60.9759 109.668 61.2267 108.794 61.5523 107.946L66.0375 96.1257C64.8105 97.4797 63.6245 98.8337 62.4793 99.8762C61.3342 100.919 60.1481 101.975 59.112 102.801V89.0039C63.9926 83.8588 68.096 79.3366 71.3816 75.6538C73.365 73.61 75.137 71.3737 76.6711 68.9787L80.0657 59.7582H84.1555V54.3424C84.1555 53.9362 83.8011 53.1779 83.8011 52.7718C83.7734 50.8359 84.0305 48.9065 84.5645 47.0445C85.2806 45.5355 86.4921 44.3132 88 43.5783V24H48.2875V43.5513C49.8205 44.6131 51.0283 46.075 51.7775 47.7756C52.2736 49.9209 52.5297 52.1141 52.541 54.3153V104.927C52.5175 106.866 51.8354 108.741 50.6051 110.248C49.8008 111.412 47.4696 112.211 45.152 112.211C40.4895 112.211 38.1583 109.503 38.1583 104.927V52.7447C38.1204 50.6755 38.3962 48.6124 38.9763 46.6248C39.6869 45.3246 40.7619 44.257 42.071 43.5513V24H0.408985L0 43.5513C1.62497 44.3169 2.87942 45.6893 3.49001 47.3694C4.02316 49.2501 4.28029 51.1973 4.25345 53.1509V99.1857C4.23043 104.489 4.8762 109.775 6.17568 114.919C7.10799 118.842 9.12398 122.429 11.9969 125.277C14.8367 128.291 18.2219 130.748 21.9761 132.52C24.3157 133.601 26.7784 134.397 29.3106 134.89C32.1201 135.436 34.9613 135.807 37.8175 136H43.9932C53.2499 136 60.5844 134.89 65.9421 132.52C73.3447 129.108 78.3479 124.139 80.6928 118.412C82.9836 112.549 84.1533 106.314 84.1419 100.025L80.5156 103.952C71.7905 113.565 66.3783 118.25 64.238 118.25Z" fill="white"/>
<path d="M180.018 43.5931C178.768 38.722 176.09 34.33 172.324 30.9748C169.173 28.0491 165.272 26.0425 161.049 25.1749C155.685 24.3334 150.259 23.9426 144.828 24.0068H96.0683V43.5931C96.8225 43.9834 97.4866 44.5256 98.0184 45.1851C98.5501 45.8445 98.9378 46.6069 99.1568 47.4235C99.1568 48.9855 99.5668 51.3081 99.5668 53.5765V68.4224C101.289 66.9419 102.874 65.7059 104.281 64.5785C109.625 60.5037 113.779 58.4527 116.69 58.4527C117.991 58.4293 119.248 58.9174 120.189 59.811C120.655 60.2154 121.029 60.7142 121.286 61.2741C121.543 61.8339 121.677 62.4419 121.678 63.0572C121.4 65.1511 120.825 67.1953 119.97 69.1287C119.574 70.2154 119.259 71.0439 119.027 71.6687L110.253 95.6966C109.98 96.5795 109.625 97.4895 109.229 98.5082C108.832 99.527 108.614 100.03 108.614 100.097C108.581 100.531 108.642 100.966 108.791 101.374C108.873 101.687 109.051 101.809 109.229 101.809C110.021 101.809 116.43 95.7645 120.161 92.885V105.843C117.676 108.968 114.743 111.714 111.456 113.993C106.782 116.859 102.847 118.271 99.7581 118.271C98.4339 118.305 97.1282 117.956 96 117.266V134H137.804V114.74C137.049 114.36 136.387 113.82 135.866 113.158C135.344 112.496 134.974 111.729 134.784 110.909C134.784 109.741 134.018 107.419 134.018 104.756C134.018 104.349 134.374 103.249 134.374 102.434H147.561C159.177 102.434 167.65 99.7171 173.075 95.1261C176.008 92.4149 178.147 88.9651 179.266 85.1428C180.68 80.5117 181.596 75.7447 181.999 70.9217V60.8568C182.028 55.0446 181.362 49.2496 180.018 43.5931ZM147.22 66.6838C147.255 69.1404 147.003 71.5927 146.468 73.9914C146.299 75.4535 145.616 76.8097 144.541 77.8217C143.195 78.8268 141.551 79.3573 139.867 79.3294C139.233 79.5017 138.59 79.6377 137.94 79.7369C137.175 79.7369 135.945 79.3294 134.442 79.3294V47.0703H136.765C143.776 47.0703 147.22 51.3081 147.22 58.9688V66.6838Z" fill="white"/>
<path d="M109.111 100.937C109.096 100.665 109.096 100.393 109.111 100.121C109.095 100.059 109.095 99.9933 109.111 99.9308C109.111 99.7949 109.22 99.591 109.343 99.292L109.713 98.3542L109.809 98.1231C110.164 97.2125 110.479 96.3834 110.725 95.5679L119.483 71.6057C119.634 71.1843 119.839 70.5999 120.099 69.8931L120.414 69.0368C120.592 68.5747 120.742 68.1805 120.852 67.8407C120.961 67.501 121.112 67.1204 121.235 66.767C121.686 65.6064 121.976 64.3901 122.097 63.1516C122.094 62.6111 121.973 62.0776 121.741 61.5886C121.741 61.5886 121.741 61.4526 121.645 61.3711C121.401 60.9653 121.102 60.5949 120.756 60.2702C120.325 59.8665 119.825 59.5441 119.278 59.3187C118.742 59.1095 118.171 59.0034 117.595 59.0061C115.807 59.1134 114.067 59.6198 112.504 60.4876C112.176 60.6507 111.834 60.8274 111.492 61.0313C109.376 62.232 107.359 63.5954 105.457 65.1088C104.718 65.6661 103.925 66.2913 103.117 66.9709C102.31 67.6505 101.407 68.33 100.49 69.1727C95.7644 73.2412 89.9259 78.7821 82.9745 85.7954C82.8833 85.8795 82.7636 85.9262 82.6392 85.9262C82.5148 85.9262 82.3951 85.8795 82.3039 85.7954C82.236 85.7329 82.189 85.6511 82.1694 85.5611C82.1498 85.4711 82.1586 85.3774 82.1945 85.2925L91.5817 60.4604H80.744L77.4461 69.4174C77.38 69.5836 77.2975 69.743 77.1998 69.8931C77.104 70.0698 76.9672 70.2601 76.8167 70.4911C76.0093 71.6328 74.422 73.5765 72.0547 76.254C70.3989 78.1297 68.5379 80.1956 66.5127 82.4111C64.4875 84.6265 62.2843 86.8556 59.8486 89.3836V102.092C60.1497 101.847 60.4507 101.589 60.7517 101.317C61.3402 100.814 61.9149 100.298 62.4896 99.7813C63.0643 99.2512 63.6391 98.6668 64.2411 98.0416C64.8432 97.4163 65.4316 96.6824 66.0474 96.0436C66.1385 95.9595 66.2583 95.9128 66.3827 95.9128C66.5071 95.9128 66.6268 95.9595 66.7179 96.0436C66.7952 96.1085 66.8491 96.1968 66.8713 96.2949C66.8935 96.393 66.8829 96.4957 66.8411 96.5872L62.3391 108.439C62.2707 108.616 62.2296 108.738 62.2022 108.833L62.0654 109.214C61.8783 109.788 61.7275 110.374 61.6138 110.967C61.5454 111.348 61.4633 111.715 61.4359 112.068C61.4102 112.385 61.4102 112.703 61.4359 113.02C61.3913 113.717 61.4466 114.417 61.6001 115.099C61.6183 115.197 61.6458 115.292 61.6823 115.385C61.8398 115.867 62.0656 116.325 62.3528 116.744C62.4419 116.867 62.5378 116.985 62.6401 117.097C62.7334 117.208 62.8339 117.312 62.9412 117.41C63.3726 117.844 63.9556 118.097 64.5696 118.117C65.1642 118.044 65.7324 117.83 66.2253 117.491C66.7474 117.177 67.2501 116.832 67.7305 116.458C72.3441 112.653 76.6285 108.47 80.5387 103.954C84.9176 99.1425 89.1459 94.6889 93.2237 90.5933C97.3015 86.4977 101.229 82.769 105.006 79.4073C105.05 79.3621 105.103 79.3262 105.162 79.3017C105.221 79.2771 105.284 79.2645 105.348 79.2645C105.411 79.2645 105.474 79.2771 105.533 79.3017C105.592 79.3262 105.645 79.3621 105.69 79.4073C105.749 79.4727 105.788 79.5534 105.803 79.6401C105.817 79.7267 105.806 79.8157 105.772 79.8966L97.3973 102.867C96.9047 104.226 96.4942 105.354 96.1795 106.333C95.8818 107.175 95.6305 108.032 95.4268 108.901C95.4268 109.078 95.3311 109.255 95.29 109.431C95.249 109.608 95.29 109.771 95.1805 109.962C95.0135 110.785 94.9265 111.622 94.9205 112.462C94.9057 113.211 95.0406 113.954 95.3174 114.651L95.4542 114.95C95.7045 115.464 96.0531 115.926 96.4805 116.309C96.617 116.434 96.7634 116.547 96.9184 116.649C97.0789 116.766 97.2481 116.87 97.4247 116.961C98.4163 117.474 99.5231 117.726 100.64 117.695C102.389 117.648 104.117 117.299 105.745 116.662C106.059 116.553 106.388 116.431 106.702 116.295C108.571 115.511 110.374 114.579 112.094 113.509C113.722 112.33 115.289 111.068 116.787 109.73C118.177 108.488 119.45 107.124 120.592 105.653V93.8281M114.995 97.3076C116.952 95.6222 119.1 93.7602 120.769 92.4961C120.854 92.4266 120.961 92.3883 121.071 92.3874C121.199 92.3874 121.322 92.437 121.414 92.5259C121.506 92.6147 121.56 92.7357 121.563 92.8631V105.857C121.56 105.962 121.522 106.062 121.454 106.142C120.234 107.724 118.859 109.18 117.349 110.492C115.831 111.857 114.242 113.141 112.586 114.338C110.839 115.436 109.009 116.399 107.113 117.219L106.114 117.6C104.366 118.274 102.515 118.642 100.64 118.687C99.3773 118.705 98.1301 118.406 97.0142 117.818C96.8102 117.708 96.6136 117.586 96.4258 117.451C96.2434 117.326 96.0696 117.19 95.9058 117.043C95.3885 116.582 94.9697 116.023 94.6742 115.398C94.6041 115.281 94.5446 115.159 94.4963 115.031C94.1868 114.225 94.0381 113.366 94.0584 112.503C94.0637 111.59 94.1599 110.679 94.3458 109.785C94.3765 109.592 94.4177 109.402 94.469 109.214L94.5921 108.67C94.7915 107.784 95.0382 106.908 95.3311 106.047C95.6595 105.001 96.07 103.832 96.5489 102.54L104.253 81.3509C100.955 84.3547 97.5068 87.6439 93.949 91.2185C89.8985 95.2779 85.6839 99.7224 81.305 104.552C77.3455 109.111 73.011 113.334 68.3463 117.179C67.8477 117.562 67.3268 117.916 66.7864 118.239C66.1452 118.666 65.4067 118.928 64.638 119C63.7822 118.976 62.9686 118.626 62.3664 118.021L61.997 117.641L61.6549 117.233C61.312 116.735 61.0446 116.19 60.8612 115.616C60.8612 115.521 60.8612 115.412 60.7654 115.276C60.5567 114.537 60.4553 113.773 60.4644 113.006C60.4453 112.648 60.4453 112.29 60.4644 111.932C60.4644 111.579 60.5875 111.185 60.6696 110.763C60.8053 110.121 60.9883 109.49 61.217 108.874L61.3538 108.466C61.3538 108.303 61.4633 108.167 61.4907 108.072L65.1032 98.558L64.9664 98.694C64.3643 99.3328 63.7759 99.9308 63.1875 100.488L61.4223 102.051C60.8475 102.54 60.3002 103.016 59.7665 103.41C59.6817 103.48 59.5754 103.518 59.4655 103.519C59.4032 103.519 59.3415 103.507 59.2842 103.483C59.2268 103.459 59.1749 103.423 59.1315 103.379C59.0882 103.335 59.0542 103.282 59.0316 103.224C59.0091 103.167 58.9984 103.105 59.0002 103.043V89.2205C58.9975 89.096 59.0414 88.9749 59.1234 88.8807C61.5773 86.2983 63.8306 83.8835 65.8832 81.6363C67.9495 79.3665 69.7831 77.3142 71.3568 75.4929C73.6831 72.7745 75.2567 70.9261 76.0367 69.798C76.2009 69.5669 76.3241 69.3902 76.4062 69.2543C76.4883 69.1184 76.543 69.0096 76.5704 68.9417L79.964 59.7129C79.9907 59.6222 80.044 59.5414 80.1171 59.4808C80.1902 59.4203 80.2798 59.3828 80.3745 59.3731H92.2248C92.2787 59.3599 92.3351 59.3599 92.389 59.3731C92.4496 59.3927 92.5054 59.4245 92.5531 59.4665C92.6008 59.5084 92.6393 59.5597 92.6663 59.617C92.6932 59.6743 92.708 59.7366 92.7098 59.7998C92.7115 59.8631 92.7001 59.926 92.6764 59.9847L83.8502 83.4033C90.1448 77.0423 95.4268 72.0814 99.8468 68.3029C100.777 67.5145 101.639 66.767 102.488 66.0874C103.336 65.4078 104.13 64.7282 104.882 64.1982C106.826 62.6898 108.88 61.3269 111.027 60.1206L112.08 59.577C113.762 58.6489 115.633 58.11 117.554 58.0003C118.252 57.9924 118.945 58.1218 119.593 58.3809C120.248 58.6488 120.846 59.036 121.358 59.5226C121.784 59.9164 122.145 60.3752 122.425 60.8818L122.576 61.1536C122.858 61.7728 123.002 62.4449 123 63.1244C122.88 64.4654 122.572 65.783 122.083 67.0388C121.974 67.3786 121.837 67.7456 121.7 68.1398C121.563 68.5339 121.385 68.9689 121.248 69.3494L120.934 70.2057C120.701 70.8581 120.496 71.3882 120.318 71.8911L111.588 95.8533C111.341 96.696 111.013 97.5387 110.657 98.4629L110.561 98.6804C110.424 99.0337 110.301 99.3735 110.192 99.6454C110.113 99.7995 110.045 99.9584 109.987 100.121C109.971 100.352 109.971 100.583 109.987 100.814C109.989 100.936 110.017 101.057 110.069 101.168C110.069 101.168 110.069 101.168 110.069 101.263V101.358C111.764 100.085 113.39 98.724 114.94 97.2804M120.537 93.8009C119.032 94.997 117.225 96.5193 115.556 98.0008C112.942 100.257 110.643 102.241 110.014 102.241H109.932C109.817 102.224 109.706 102.187 109.603 102.133C109.557 102.115 109.515 102.087 109.48 102.051C109.306 101.907 109.181 101.712 109.124 101.494L120.537 93.8009Z" fill="white"/>
<path d="M479.955 136.565V102.752H487.298V108.585H487.434C488.259 106.75 489.514 105.142 491.092 103.897C492.801 102.728 494.83 102.119 496.899 102.153V110.63C496.682 110.602 496.463 110.602 496.246 110.63H495.471C494.519 110.635 493.581 110.868 492.738 111.311C491.877 111.785 491.074 112.356 490.344 113.015C489.713 113.546 489.147 114.149 488.658 114.814C488.357 115.156 488.147 115.568 488.046 116.013V136.565H479.955ZM465.213 136.565L464.696 133.648C463.17 134.71 461.528 135.593 459.801 136.279C458.002 136.936 456.098 137.255 454.184 137.219C452.819 137.249 451.462 136.994 450.2 136.469C449.11 136.025 448.134 135.34 447.344 134.466C446.59 133.634 446.008 132.662 445.631 131.604C445.226 130.533 445.023 129.396 445.032 128.251C444.969 126.475 445.375 124.713 446.208 123.143C447.041 121.573 448.273 120.252 449.778 119.311C452.933 117.199 457.802 115.768 464.384 114.977V112.129C464.417 111.556 464.311 110.983 464.074 110.461C463.837 109.939 463.477 109.482 463.024 109.131C461.992 108.402 460.749 108.034 459.488 108.081C457.872 107.997 456.273 108.442 454.932 109.349C453.843 110.165 452.884 111.144 452.09 112.252L446.895 108.286C447.451 107.328 448.174 106.478 449.03 105.778C449.979 104.997 451.015 104.329 452.117 103.788C453.265 103.202 454.473 102.745 455.721 102.425C456.952 102.117 458.221 101.988 459.488 102.044C461.459 102.04 463.421 102.301 465.322 102.821C466.855 103.229 468.259 104.021 469.402 105.124C470.521 106.301 471.322 107.746 471.727 109.321C472.271 111.402 472.522 113.549 472.475 115.7V131.754C472.472 132.601 472.518 133.447 472.611 134.289C472.688 135.084 472.862 135.866 473.128 136.619L465.213 136.565ZM464.384 120.388C463.024 120.633 461.664 120.919 460.304 121.219C459.056 121.5 457.839 121.906 456.673 122.432C455.667 122.869 454.77 123.526 454.048 124.354C453.363 125.172 453.004 126.216 453.042 127.284C453.011 127.82 453.093 128.357 453.283 128.859C453.473 129.362 453.766 129.819 454.144 130.2C454.9 130.901 455.902 131.273 456.931 131.236C457.618 131.236 458.299 131.116 458.944 130.882C459.639 130.646 460.313 130.35 460.957 129.996C461.605 129.663 462.224 129.276 462.806 128.837C463.405 128.401 463.894 128.006 464.343 127.665L464.384 120.388ZM439.701 102.752V136.565H432.304V132.926C430.747 133.99 429.13 134.964 427.462 135.842C425.755 136.752 423.848 137.221 421.914 137.205C418.528 137.205 416.025 136.197 414.38 134.153C412.629 131.769 411.759 128.849 411.919 125.894V102.725H419.969V124.735C419.804 126.377 420.166 128.029 421.003 129.451C421.389 129.888 421.871 130.23 422.412 130.45C422.952 130.67 423.535 130.762 424.117 130.718C425.723 130.766 427.309 130.35 428.686 129.519C429.776 128.872 430.77 128.073 431.637 127.147V102.752H439.701ZM407.064 107.563C406.112 107.563 405.16 107.563 404.208 107.659C403.381 107.682 402.575 107.922 401.869 108.354C402.417 109.143 402.852 110.005 403.161 110.916C403.528 112.013 403.703 113.166 403.678 114.323C403.701 115.825 403.429 117.316 402.875 118.711C402.336 120.054 401.493 121.253 400.414 122.214C399.271 123.249 397.922 124.03 396.456 124.504C394.667 125.07 392.798 125.342 390.922 125.308C389.419 125.286 387.918 125.396 386.434 125.635C385.224 125.853 384.625 126.439 384.625 127.393C384.625 128.347 385.169 128.906 386.271 129.205C387.606 129.552 388.973 129.762 390.35 129.832L395.654 130.159C397.468 130.252 399.262 130.591 400.985 131.168C402.543 131.688 403.946 132.593 405.065 133.798C406.254 135.245 406.847 137.093 406.724 138.963C406.709 140.228 406.382 141.468 405.772 142.575C405.072 143.852 404.097 144.955 402.916 145.805C401.44 146.853 399.792 147.632 398.048 148.108C395.776 148.733 393.426 149.026 391.071 148.98C387.34 149.128 383.623 148.439 380.192 146.963C378.981 146.487 377.943 145.653 377.215 144.573C376.486 143.492 376.102 142.216 376.112 140.912C376.09 139.975 376.275 139.043 376.656 138.187C376.995 137.446 377.481 136.783 378.084 136.238C378.653 135.728 379.313 135.331 380.029 135.066C380.725 134.807 381.462 134.673 382.205 134.67V134.48C381.751 134.181 381.274 133.921 380.777 133.703C380.202 133.423 379.651 133.094 379.131 132.722C378.582 132.33 378.119 131.829 377.771 131.25C377.38 130.572 377.192 129.796 377.227 129.015C377.214 128.213 377.426 127.425 377.839 126.739C378.244 126.078 378.733 125.473 379.294 124.94C379.813 124.423 380.388 123.965 381.008 123.577C381.473 123.292 381.965 123.055 382.477 122.868C381.131 121.779 379.941 120.508 378.941 119.093C377.917 117.556 377.403 115.734 377.472 113.887C377.476 112.406 377.762 110.94 378.315 109.567C378.888 108.143 379.755 106.856 380.858 105.792C382.029 104.627 383.415 103.701 384.938 103.066C386.783 102.365 388.745 102.027 390.718 102.071C392.235 102.082 393.739 102.354 395.165 102.875C396.578 103.35 397.889 104.09 399.027 105.056C399.814 104.004 400.878 103.192 402.1 102.712C403.65 102.154 405.3 101.936 406.941 102.071L407.064 107.563ZM396.184 113.683C396.196 112.946 396.059 112.215 395.78 111.534C395.502 110.852 395.089 110.234 394.566 109.717C394.065 109.19 393.461 108.773 392.792 108.491C392.123 108.21 391.403 108.07 390.677 108.081C389.9 108.051 389.125 108.181 388.4 108.462C387.675 108.743 387.015 109.17 386.461 109.717C385.416 110.771 384.83 112.197 384.83 113.683C384.83 115.168 385.416 116.594 386.461 117.648C387.016 118.193 387.676 118.618 388.401 118.897C389.127 119.176 389.901 119.303 390.677 119.27C391.402 119.284 392.122 119.147 392.791 118.867C393.46 118.588 394.065 118.173 394.566 117.648C395.094 117.135 395.511 116.518 395.789 115.835C396.068 115.153 396.202 114.42 396.184 113.683ZM389.181 135.924C388.256 135.898 387.335 136.041 386.461 136.347C385.829 136.583 385.241 136.924 384.721 137.355C384.298 137.687 383.969 138.124 383.769 138.623C383.613 139.004 383.53 139.41 383.524 139.822C383.509 140.443 383.688 141.053 384.037 141.566C384.386 142.08 384.886 142.471 385.468 142.684C387.722 143.44 390.1 143.751 392.472 143.597C393.579 143.624 394.685 143.482 395.749 143.175C396.513 142.951 397.238 142.611 397.898 142.166C398.372 141.846 398.767 141.422 399.054 140.926C399.269 140.596 399.396 140.216 399.421 139.822C399.385 139.36 399.204 138.921 398.904 138.568C398.45 138.018 397.872 137.584 397.218 137.301C396.214 136.839 395.153 136.514 394.063 136.333C392.457 136.039 390.826 135.907 389.195 135.938M370.346 136.565H362.296V102.752H370.346V136.565ZM362.296 88.9604H370.346V96.5106H362.296V88.9604ZM341.136 102.752V91.5634H349.186V102.752H355.809V109.253H349.186V128.333C349.141 128.677 349.182 129.026 349.306 129.35C349.429 129.673 349.631 129.961 349.893 130.187C350.569 130.561 351.339 130.732 352.11 130.677C352.733 130.677 353.354 130.604 353.96 130.459C354.585 130.296 355.197 130.159 355.809 130.037V136.66L352.668 137.069C351.675 137.164 350.601 137.219 349.485 137.219C346.494 137.219 344.372 136.538 343.094 135.134C341.743 133.55 341.056 131.504 341.176 129.423V109.253H336.498V102.752H341.136ZM304.799 119.665C304.765 117.199 305.099 114.741 305.792 112.374C306.397 110.387 307.381 108.536 308.688 106.923C309.929 105.405 311.508 104.2 313.298 103.407C317.248 101.772 321.683 101.772 325.633 103.407C327.421 104.204 329 105.408 330.243 106.923C331.546 108.537 332.525 110.388 333.126 112.374C334.447 117.145 334.447 122.186 333.126 126.957C332.525 128.943 331.546 130.794 330.243 132.408C328.992 133.915 327.416 135.118 325.633 135.924C321.683 137.559 317.248 137.559 313.298 135.924C311.513 135.121 309.936 133.918 308.688 132.408C307.381 130.795 306.397 128.944 305.792 126.957C305.101 124.589 304.767 122.132 304.799 119.665ZM326.081 119.665C326.081 115.849 325.537 113.042 324.463 111.27C323.912 110.45 323.168 109.777 322.296 109.312C321.425 108.847 320.453 108.604 319.466 108.604C318.478 108.604 317.506 108.847 316.635 109.312C315.763 109.777 315.019 110.45 314.468 111.27C313.38 113.042 312.85 115.849 312.85 119.665C312.85 123.481 313.38 126.275 314.468 128.047C315.019 128.868 315.763 129.54 316.635 130.005C317.506 130.47 318.478 130.713 319.466 130.713C320.453 130.713 321.425 130.47 322.296 130.005C323.168 129.54 323.912 128.868 324.463 128.047C325.542 126.275 326.081 123.481 326.081 119.665ZM268 136.565V89.6145H285.135C287.427 89.5937 289.712 89.8685 291.934 90.4322C293.838 90.8986 295.622 91.7624 297.17 92.9671C298.602 94.1311 299.735 95.6218 300.474 97.3147C301.296 99.3046 301.694 101.444 301.644 103.597C301.693 105.759 301.295 107.908 300.474 109.907C299.746 111.611 298.612 113.108 297.17 114.269C295.628 115.45 293.86 116.299 291.975 116.763C289.754 117.333 287.468 117.608 285.176 117.58H277.016V136.565H268ZM276.948 110.303H284.101C285.512 110.337 286.921 110.181 288.29 109.839C289.291 109.607 290.224 109.14 291.01 108.476C291.646 107.909 292.116 107.179 292.369 106.364C292.877 104.536 292.877 102.604 292.369 100.776C292.113 99.963 291.643 99.2335 291.01 98.6639C290.22 98.0056 289.289 97.5392 288.29 97.301C286.919 96.9658 285.512 96.81 284.101 96.8376H276.948V110.303ZM608.506 52.0543C608.601 55.5568 609.309 58.0645 610.655 59.5636C611.254 60.2704 612 60.8369 612.841 61.2231C613.683 61.6093 614.598 61.8058 615.523 61.7987C617.073 61.8794 618.61 61.4848 619.929 60.6675C621.084 59.8386 622.13 58.868 623.044 57.7783L628.891 61.4171C627.493 63.6924 625.473 65.5182 623.071 66.6777C620.444 67.8258 617.599 68.384 614.735 68.3131C612.691 68.3421 610.667 67.9186 608.805 67.0729C607.068 66.2493 605.535 65.0482 604.318 63.5568C603.045 61.9073 602.099 60.0292 601.53 58.0236C600.829 55.6625 600.485 53.2093 600.51 50.746C600.485 48.2826 600.829 45.8295 601.53 43.4683C602.109 41.448 603.09 39.5659 604.413 37.9351C605.661 36.425 607.238 35.222 609.023 34.419C610.964 33.5692 613.065 33.1463 615.183 33.1788C617.215 33.1369 619.228 33.5758 621.058 34.4599C622.725 35.2689 624.196 36.4315 625.369 37.867C626.589 39.3325 627.513 41.0221 628.089 42.8414C628.694 44.745 629.002 46.731 629 48.7289V52.0543H608.506ZM621.493 46.6029C621.532 44.625 620.877 42.6961 619.644 41.1515C619.038 40.5338 618.315 40.0432 617.517 39.7084C616.72 39.3735 615.864 39.201 615 39.201C614.135 39.201 613.279 39.3735 612.482 39.7084C611.685 40.0432 610.962 40.5338 610.356 41.1515C609.127 42.6989 608.474 44.6259 608.506 46.6029H621.493ZM594.73 67.6999H587.931L587.536 64.0474C586.273 65.3161 584.83 66.3907 583.253 67.2365C581.743 67.9966 580.073 68.38 578.384 68.354C576.333 68.4102 574.302 67.9411 572.482 66.9912C570.789 66.051 569.341 64.7252 568.253 63.1207C567.074 61.3322 566.222 59.3479 565.737 57.2604C565.153 54.8564 564.87 52.3888 564.894 49.9146C564.892 47.8437 565.185 45.7831 565.764 43.7954C566.307 41.8784 567.186 40.0738 568.362 38.4667C569.497 36.9196 570.948 35.6327 572.618 34.6916C574.388 33.7394 576.376 33.2695 578.384 33.3287C579.129 33.3332 579.869 33.434 580.587 33.6285C581.377 33.8278 582.15 34.0875 582.899 34.4054C583.643 34.7268 584.35 35.129 585.007 35.6047C585.595 36.0299 586.121 36.5343 586.571 37.1038H586.693V20.6951H594.73V67.6999ZM586.707 42.5416C585.866 41.7963 584.955 41.1345 583.987 40.5655C582.93 39.9699 581.732 39.6687 580.519 39.6932C579.425 39.6451 578.336 39.8792 577.358 40.3731C576.379 40.867 575.543 41.6043 574.93 42.5143C573.498 44.9905 572.827 47.8348 572.999 50.6914C572.827 53.5481 573.498 56.3924 574.93 58.8686C575.543 59.7786 576.379 60.5159 577.358 61.0098C578.336 61.5037 579.425 61.7378 580.519 61.6897C581.264 61.7057 582.007 61.6093 582.722 61.4035C583.279 61.2257 583.813 60.9833 584.314 60.6812C584.756 60.4098 585.171 60.0948 585.551 59.7408C585.932 59.375 586.331 59.0293 586.748 58.705L586.707 42.5416ZM551.73 67.6999L551.214 64.7288C549.691 65.7957 548.047 66.6786 546.318 67.3591C544.52 68.0215 542.616 68.3449 540.701 68.3131C539.336 68.3356 537.981 68.0806 536.717 67.5636C535.632 67.098 534.658 66.4057 533.861 65.5329C533.135 64.6911 532.564 63.7266 532.175 62.6846C531.792 61.6086 531.599 60.4742 531.604 59.3319C531.532 57.5626 531.924 55.8054 532.74 54.2347C533.556 52.664 534.768 51.3344 536.255 50.378C539.41 48.2792 544.273 46.8391 550.846 46.0577V43.1685C550.88 42.5975 550.774 42.027 550.537 41.5067C550.3 40.9864 549.939 40.5323 549.486 40.1839C548.453 39.4586 547.211 39.0946 545.951 39.1481C544.339 39.0638 542.745 39.5088 541.409 40.4155C540.312 41.2234 539.348 42.1983 538.553 43.3048L533.358 39.3389C533.918 38.3802 534.646 37.5307 535.507 36.8312C536.448 36.047 537.48 35.379 538.58 34.8415C539.734 34.2872 540.941 33.8534 542.184 33.5468C543.416 33.2472 544.683 33.1142 545.951 33.1515C547.925 33.1656 549.89 33.4312 551.798 33.942C553.332 34.348 554.737 35.1409 555.878 36.2452C556.991 37.4237 557.782 38.8692 558.176 40.4428C558.72 42.5191 558.971 44.6613 558.924 46.8073V62.7527C558.924 63.6113 558.924 64.4563 559.06 65.2876C559.147 66.0855 559.32 66.8715 559.577 67.6317L551.73 67.6999ZM550.874 51.4955C549.514 51.7681 548.154 52.0407 546.862 52.3405C545.613 52.6167 544.396 53.0233 543.231 53.5534C542.224 53.9904 541.324 54.6414 540.593 55.4614C539.915 56.2837 539.562 57.3261 539.6 58.3916C539.565 58.9293 539.643 59.4684 539.831 59.9734C540.018 60.4785 540.31 60.938 540.688 61.3217C541.446 62.0195 542.447 62.3914 543.476 62.3575C544.166 62.3548 544.851 62.235 545.502 62.0031C546.195 61.7662 546.868 61.4746 547.515 61.1309C548.154 60.7772 548.771 60.3858 549.364 59.9588C549.935 59.5227 550.452 59.1411 550.874 58.7868V51.4955ZM526.218 67.6999H519.419L519.038 64.0474C517.772 65.313 516.329 66.3872 514.754 67.2365C513.245 67.9966 511.575 68.38 509.886 68.354C507.835 68.412 505.803 67.9428 503.984 66.9912C502.289 66.0544 500.839 64.7279 499.755 63.1207C498.566 61.336 497.709 59.3507 497.225 57.2604C496.641 54.8564 496.358 52.3888 496.382 49.9146C496.384 47.8431 496.682 45.7825 497.266 43.7954C497.804 41.8791 498.679 40.0745 499.85 38.4667C500.988 36.9219 502.438 35.6354 504.106 34.6916C505.882 33.7407 507.874 33.2709 509.886 33.3287C510.63 33.3332 511.371 33.434 512.089 33.6285C512.878 33.8299 513.65 34.0896 514.401 34.4054C515.142 34.7238 515.845 35.1262 516.495 35.6047C517.086 36.0262 517.613 36.5311 518.059 37.1038H518.181V20.6951H526.232L526.218 67.6999ZM518.168 42.5416C517.328 41.7957 516.417 41.1339 515.448 40.5655C514.386 39.9675 513.184 39.6663 511.967 39.6932C510.874 39.6448 509.787 39.8789 508.811 40.373C507.834 40.867 507.001 41.6044 506.391 42.5143C504.954 44.9887 504.277 47.8333 504.446 50.6914C504.277 53.5496 504.954 56.3942 506.391 58.8686C507.001 59.7785 507.834 60.5159 508.811 61.0099C509.787 61.504 510.874 61.738 511.967 61.6897C512.716 61.7057 513.463 61.6092 514.183 61.4035C514.739 61.2231 515.273 60.9808 515.774 60.6812C516.213 60.4097 516.623 60.0947 516.998 59.7408C517.379 59.3864 517.773 59.0457 518.195 58.705L518.168 42.5416ZM489.297 67.6999H481.246V33.833H489.297V67.6999ZM481.246 20H489.297V27.5366H481.246V20ZM468.015 42.6915C467.15 41.7915 466.203 40.9747 465.186 40.252C464.181 39.5115 462.965 39.1149 461.718 39.1208C460.503 39.0259 459.292 39.3427 458.278 40.0203C457.921 40.3101 457.636 40.6786 457.445 41.097C457.254 41.5155 457.162 41.9726 457.176 42.4326C457.176 42.8922 457.292 43.3444 457.513 43.7471C457.734 44.1498 458.053 44.4899 458.441 44.7358C459.412 45.3892 460.458 45.9245 461.555 46.3303C462.793 46.8073 464.139 47.2979 465.635 47.8022C467.078 48.2828 468.451 48.9567 469.714 49.8056C470.96 50.6708 472.019 51.7785 472.829 53.0628C473.725 54.5868 474.164 56.3376 474.093 58.1054C474.135 59.6763 473.809 61.2352 473.141 62.6573C472.529 63.8892 471.646 64.9656 470.558 65.8055C469.376 66.7013 468.025 67.3459 466.587 67.6999C464.973 68.1086 463.314 68.3101 461.65 68.2995C459.107 68.3376 456.596 67.733 454.348 66.5414C452.159 65.3014 450.295 63.5593 448.908 61.458L454.348 57.3694C455.296 58.6582 456.422 59.8054 457.693 60.7766C458.985 61.7592 460.572 62.2733 462.194 62.2348C463.445 62.2956 464.677 61.9146 465.676 61.1582C466.101 60.8438 466.446 60.4329 466.682 59.9591C466.919 59.4853 467.04 58.9621 467.035 58.4325C467.042 57.9659 466.93 57.5054 466.708 57.095C466.487 56.6845 466.164 56.3379 465.771 56.0883C464.807 55.4152 463.76 54.8701 462.657 54.4666C461.433 53.9896 460.073 53.4717 458.577 52.9402C457.139 52.4221 455.769 51.7311 454.497 50.8822C453.259 50.0638 452.2 49.0021 451.383 47.7613C450.489 46.3212 450.049 44.6449 450.118 42.9504C450.095 41.5011 450.402 40.0655 451.016 38.7529C451.603 37.5551 452.448 36.5031 453.491 35.6728C454.554 34.8303 455.761 34.1885 457.054 33.7784C458.422 33.346 459.848 33.1254 461.283 33.1243C463.517 33.1196 465.73 33.5548 467.797 34.4054C469.875 35.2312 471.716 36.5611 473.155 38.2759L468.015 42.6915ZM429.461 67.6999V33.833H436.859V39.6251H436.982C437.824 37.8121 439.082 36.2244 440.653 34.9914C442.373 33.8046 444.413 33.1723 446.501 33.1788V41.7102C446.29 41.6681 446.076 41.6452 445.862 41.6421H445.073C444.077 41.6399 443.097 41.8982 442.231 42.3917C441.364 42.8573 440.556 43.4246 439.824 44.0816C439.191 44.6194 438.62 45.2275 438.124 45.8942C437.829 46.2457 437.62 46.6609 437.512 47.1071V67.6999H429.461ZM402.984 52.0543C403.084 55.5523 403.795 58.0554 405.119 59.5636C405.719 60.269 406.466 60.8345 407.307 61.2206C408.148 61.6066 409.063 61.8039 409.988 61.7987C411.541 61.8787 413.082 61.4843 414.407 60.6675C415.559 59.835 416.604 58.8648 417.521 57.7783L423.383 61.4171C421.99 63.692 419.974 65.5179 417.576 66.6777C414.949 67.8258 412.104 68.384 409.24 68.3131C407.196 68.3434 405.171 67.9199 403.31 67.0729C401.57 66.2529 400.037 65.0512 398.823 63.5568C397.531 61.9095 396.562 60.0321 395.967 58.0236C395.271 55.6617 394.931 53.2086 394.961 50.746C394.931 48.2833 395.271 45.8302 395.967 43.4683C396.568 41.4461 397.567 39.5648 398.904 37.9351C400.15 36.4284 401.722 35.2259 403.501 34.419C405.448 33.5713 407.552 33.1485 409.675 33.1788C411.616 33.1345 413.542 33.5336 415.307 34.3458C417.072 35.1581 418.629 36.3622 419.86 37.867C421.071 39.3394 421.993 41.0269 422.58 42.8414C423.181 44.7457 423.484 46.7317 423.478 48.7289V52.0543H402.984ZM415.958 46.6029C416.001 44.6265 415.351 42.6974 414.122 41.1515C413.515 40.5338 412.793 40.0432 411.995 39.7084C411.198 39.3735 410.342 39.201 409.478 39.201C408.613 39.201 407.757 39.3735 406.96 39.7084C406.163 40.0432 405.44 40.5338 404.833 41.1515C403.605 42.6989 402.952 44.6259 402.984 46.6029H415.958ZM365.22 33.8466H373.257L378.846 56.797H378.968L384.68 33.9011H392.73L383.061 67.6999H374.63L365.22 33.8466ZM359.562 67.6999H351.525V33.833H359.562V67.6999ZM351.525 20H359.562V27.5366H351.525V20ZM314.59 67.6999V33.833H321.988V37.4718C323.545 36.4082 325.162 35.4345 326.829 34.5553C328.537 33.6462 330.444 33.1778 332.378 33.1924C333.785 33.085 335.197 33.3061 336.504 33.8381C337.812 34.3702 338.978 35.1988 339.912 36.2588C341.663 38.6474 342.533 41.5714 342.373 44.5314V67.6999H334.322V45.6761C334.489 44.034 334.127 42.3815 333.289 40.9607C332.9 40.5228 332.415 40.1807 331.873 39.9608C331.33 39.741 330.745 39.6495 330.161 39.6932C328.555 39.6478 326.97 40.0639 325.592 40.8925C324.504 41.5434 323.511 42.3414 322.641 43.2639V67.6999H314.59ZM296.028 20.6951H304.989V50.0918C305.072 53.0351 304.578 55.9661 303.534 58.7187C302.697 60.8748 301.359 62.7997 299.631 64.3336C297.96 65.764 295.997 66.8106 293.879 67.4C289.427 68.6123 284.732 68.6123 280.28 67.4C278.166 66.812 276.207 65.7652 274.541 64.3336C272.793 62.8058 271.436 60.8804 270.584 58.7187C269.529 55.969 269.029 53.0365 269.115 50.0918V20.6951H278.077V50.487C278.077 54.303 278.825 56.9697 280.321 58.487C282.278 59.9727 284.665 60.7767 287.12 60.7767C289.575 60.7767 291.963 59.9727 293.92 58.487C295.407 56.9787 296.15 54.3121 296.15 50.487L296.028 20.6951Z" fill="white"/>
<path d="M225 10H223V150H225V10Z" fill="white"/>
</svg>
