<svg width="629" height="138" viewBox="0 0 629 138" fill="none" xmlns="http://www.w3.org/2000/svg">
<path d="M595.529 81.3481H587.691C586.42 81.3481 585.572 79.8652 586.208 78.8059L605.909 40.2504L585.996 2.54213C585.36 1.27106 586.208 0 587.479 0H595.317C602.52 0 607.392 2.96582 610.57 8.6856L629 40.4622L610.782 72.2388C607.604 77.7467 602.943 81.3481 595.529 81.3481Z" fill="white"/>
<path d="M461.009 40.25C455.925 40.25 452.747 40.4618 450.205 40.8855C444.061 41.7329 439.401 52.9606 441.943 55.5028C442.79 55.9265 444.061 55.9265 445.968 55.5028C448.934 54.8672 454.442 54.0199 462.068 54.0199C472.872 54.0199 480.075 56.1383 480.075 65.8831V73.5095H463.127C444.061 73.5095 431.986 79.653 431.986 97.236C431.986 113.972 443.214 121.386 462.916 121.386C485.583 121.386 495.328 113.548 495.328 96.1768V66.095C495.539 46.3935 481.558 40.25 461.009 40.25ZM479.863 95.7531C479.863 106.345 472.449 108.04 462.704 108.04C454.865 108.04 447.663 106.557 447.663 97.236C447.663 89.186 452.747 86.0083 463.127 86.0083H479.863V95.7531Z" fill="white"/>
<path d="M99.3909 40.04C94.3066 40.04 91.1289 40.2519 88.5868 40.6756C82.4433 41.5229 77.7828 52.7507 80.3249 55.2928C81.1723 55.7165 82.4433 55.7165 84.3499 55.2928C87.3158 54.6573 92.8237 53.8099 100.45 53.8099C111.254 53.8099 118.457 55.9283 118.457 65.885V73.5114H101.721C82.6552 73.5114 70.5801 79.6549 70.5801 97.2379C70.5801 113.974 81.8078 121.6 101.509 121.6C124.177 121.6 133.921 113.762 133.921 96.3905V65.885C133.921 46.1835 119.94 40.04 99.3909 40.04ZM118.245 95.755C118.245 106.559 110.83 108.042 101.086 108.042C93.2474 108.042 86.0447 106.559 86.0447 97.2379C86.0447 89.1878 91.1289 86.0102 101.509 86.0102H118.245V95.755Z" fill="white"/>
<path d="M93.8831 17.582C89.6463 17.582 86.0449 20.5478 84.9857 24.361C84.562 25.8439 84.562 29.2335 84.562 29.2335C84.562 30.2927 85.4094 31.3519 86.6805 31.3519H117.822C122.058 31.3519 125.66 28.3861 126.719 24.5729C127.354 22.6663 127.143 19.7005 127.143 19.7005C127.143 18.6413 126.295 17.582 125.024 17.582H93.8831Z" fill="white"/>
<path d="M267.595 91.0918C267.595 110.37 277.975 121.597 301.066 121.597H301.278C324.369 121.597 334.749 110.37 334.749 91.0918V52.748C334.749 46.6045 329.877 41.7321 323.733 41.7321H321.191C319.92 41.7321 318.861 42.7914 318.861 44.0624V91.0918C318.861 101.048 315.683 106.556 301.278 106.556C286.873 106.556 283.695 101.048 283.695 91.0918V52.748C283.695 47.8756 280.305 43.6387 275.857 42.1558C273.95 41.5203 270.349 41.7321 270.349 41.7321C269.078 41.7321 268.018 42.7914 268.018 44.0624L267.595 91.0918Z" fill="white"/>
<path d="M249.164 41.7343C249.164 41.7343 246.198 41.3107 243.232 42.158C238.36 43.4291 234.97 47.666 234.758 52.5384V94.6953C234.758 115.456 227.556 122.871 222.471 127.319C220.988 128.59 218.87 130.497 218.87 130.497C218.234 131.344 218.658 132.615 219.717 133.463L221.836 135.158C222.683 135.793 223.53 136.429 224.59 136.852C229.25 138.759 234.758 137.7 238.148 133.886C238.148 133.886 241.325 130.709 242.385 128.802C247.681 121.176 251.706 111.007 251.706 93.848V53.1739V44.2765C251.706 42.7936 250.435 41.7343 249.164 41.7343Z" fill="white"/>
<path d="M147.267 87.704V74.146C147.267 52.1142 159.13 40.251 183.492 40.251C208.49 40.251 219.294 51.4787 219.294 74.146V87.704C219.294 109.524 207.43 121.599 183.492 121.599C158.282 121.599 147.267 110.371 147.267 87.704ZM202.982 74.146C202.982 61.0117 198.533 55.2919 183.28 55.2919C168.027 55.2919 163.367 61.0117 163.367 74.146V87.704C163.367 100.838 167.815 106.346 183.28 106.346C198.533 106.346 202.982 100.838 202.982 87.704V74.146Z" fill="white"/>
<path d="M419.698 12.2883C419.698 11.0172 418.639 9.95797 417.368 9.95797C417.368 9.95797 414.19 9.53429 411.648 10.3817C406.988 11.8646 403.598 15.8896 403.598 20.9739V50.632C399.361 43.853 391.735 40.4635 380.719 40.4635C358.899 40.4635 347.883 51.9031 347.883 74.7822V88.1284C347.883 110.584 359.747 121.812 383.897 121.812C406.564 121.812 419.91 110.796 419.91 88.1284V69.698L419.698 12.2883ZM383.685 106.559C368.008 106.559 363.983 101.051 363.983 87.9166V74.3585C363.983 61.2242 368.432 55.5044 383.685 55.5044C398.938 55.5044 403.598 61.0124 403.598 74.1467V78.3836V87.7047C403.81 100.839 399.361 106.559 383.685 106.559Z" fill="white"/>
<path d="M0.882936 61.6472C0.882936 73.9342 6.81457 78.8066 16.5594 83.0435L33.5069 90.6698C41.1333 94.0593 43.6754 95.9659 43.6754 100.203C43.6754 105.499 39.4385 106.982 29.0582 106.982C28.4227 106.982 24.3976 106.77 24.3976 106.77C12.7462 106.346 3.00138 102.533 3.00138 102.533C2.78953 102.533 1.73031 102.109 0.882936 102.745C-1.87104 105.499 2.154 118.633 8.29748 120.116C8.29748 120.116 12.3225 120.752 15.0765 121.175C15.0765 121.175 26.3042 122.023 27.5753 122.023C49.8189 122.023 59.3519 115.032 59.3519 99.991C59.3519 87.4922 52.9966 82.1961 42.6162 77.7474L24.3976 69.9091C19.1015 67.5789 16.9831 65.6723 16.9831 61.8591C16.9831 57.1985 20.3726 55.5037 30.7529 55.5037C37.3201 55.5037 43.0399 56.3511 47.0649 57.4103C48.1241 57.834 52.5729 59.5288 54.0558 58.6814C56.8097 56.3511 53.4202 43.8523 47.2768 42.1576C45.7939 41.522 38.3793 40.251 30.9648 40.251C9.78038 40.251 0.882936 47.2418 0.882936 61.6472Z" fill="white"/>
<path d="M509.733 61.6472C509.733 73.9342 515.664 78.8066 525.409 83.0435L542.357 90.6698C549.983 94.0593 552.525 95.9659 552.525 100.203C552.525 105.499 548.288 106.982 537.908 106.982C537.272 106.982 533.247 106.77 533.247 106.77C521.596 106.346 511.851 102.533 511.851 102.533C511.639 102.533 510.58 102.109 509.733 102.745C506.979 105.499 511.004 118.633 517.147 120.116C517.147 120.116 521.172 120.752 523.926 121.175C523.926 121.175 535.154 121.811 536.425 121.811C558.669 121.811 568.201 115.032 568.201 99.7791C568.201 87.2803 561.846 81.9842 551.466 77.5355L533.247 69.6973C527.951 67.367 525.833 65.4604 525.833 61.6472C525.833 56.9867 529.222 55.2919 539.603 55.2919C546.17 55.2919 551.889 56.1393 555.915 57.1985C556.974 57.6222 561.422 59.3169 562.905 58.4696C565.659 56.1393 562.27 43.6405 556.126 41.9457C554.643 41.522 547.229 40.251 539.814 40.251C518.842 40.251 509.733 47.2418 509.733 61.6472Z" fill="white"/>
</svg>
